<svg width="472" height="1301" viewBox="0 0 472 1301" fill="none" xmlns="http://www.w3.org/2000/svg">
<g clip-path="url(#clip0_165_1554)">
<path d="M130.467 1293.4C138.519 1287.45 145.01 1283.53 170.741 1271.05C172.402 1270.23 178.544 1266.35 180.702 1265C186.676 1261.03 192.073 1256.26 196.739 1250.81C201.354 1245.66 203.545 1229.22 204.574 1215.94C201.935 1186.57 159.386 715.552 150.405 664.546C141.142 611.914 155.253 531.637 155.253 531.637L188.106 519.234L250.459 735.409L245.479 899.948C245.479 899.948 260.138 947.383 262.08 975.725C264.023 1004.07 240.881 1234.12 240.881 1234.12C240.717 1240.92 241.128 1247.72 242.109 1254.44C243.769 1263.04 253.232 1280.76 248.916 1288.86C244.599 1296.97 239.652 1298.99 239.652 1298.99L127.612 1300.8C121.503 1300.95 125.537 1297.02 130.467 1293.4Z" fill="#F58D80"/>
<path d="M300.528 514.818C300.528 514.818 339.441 573.527 348.671 622.108C357.901 670.69 341.865 820.003 359.694 883.677C369.339 918.145 405.895 971.375 411.456 1015.9C417.017 1060.43 436.358 1188.99 436.358 1188.99C439.279 1202.49 443.861 1219.18 449.821 1226.93C453.457 1231.68 460.114 1237.69 464.48 1246.28C471.27 1259.64 467.518 1279.48 462.504 1290.49C459.931 1296.12 462.687 1296.1 456.827 1297.91C439.462 1303.27 421.002 1294.24 413.664 1277.57C408.538 1265.76 405.667 1253.09 405.197 1240.22C404.672 1226.86 402.611 1213.6 399.055 1200.72L274.664 895.564L184.62 632.22L161.495 496.588L300.528 514.818Z" fill="#F79C8D"/>
<path d="M410.277 1268.81C437.204 1273.79 455.1 1257.95 464.43 1246.13C471.286 1259.52 474.623 1279.5 469.576 1290.49C465.144 1300.17 452.195 1299.9 442.002 1300.29C431.211 1300.68 422.861 1294.67 417.515 1285.26C414.562 1280.03 412.138 1274.52 410.277 1268.81Z" fill="#9F1C38"/>
<path d="M180.752 1264.99C210.384 1272.61 232.215 1267.43 244.549 1262.48C247.704 1271.45 251.904 1282.72 249.679 1289.21C246.956 1297.16 243.039 1298.96 239.718 1299.06C212.642 1299.75 140.561 1300.72 119.926 1301C119.267 1301.04 118.612 1300.87 118.046 1300.54C117.479 1300.2 117.026 1299.7 116.745 1299.1C116.464 1298.5 116.366 1297.84 116.466 1297.18C116.565 1296.53 116.856 1295.92 117.303 1295.44C122.366 1289.31 178.544 1266.33 180.752 1264.99Z" fill="#9F1C38"/>
<path d="M275.295 889.803C272.97 889.969 270.63 890.118 268.272 890.251H267.907L260.951 890.633H260.536L253.531 890.965H253.165C250.792 891.081 248.401 891.165 246.01 891.248C219.449 892.111 186.645 891.779 165.595 888.193C154.854 780.819 150.87 682.76 146.886 661.06C137.257 608.444 155.286 525.427 155.286 525.427L163.885 523.883L158.457 493.117L302.968 511.381C302.968 511.381 343.425 570.09 353.054 618.671C362.682 667.253 345.982 816.583 364.525 880.24C364.525 880.107 323.271 886.549 275.295 889.803Z" fill="#18457C"/>
<path d="M117.818 137.658C118.393 150.539 119.78 163.371 121.968 176.078C122.25 177.738 122.532 179.398 122.848 181.059C123.163 182.719 123.479 184.379 123.811 186.04C128.227 207.531 134.039 228.712 141.208 249.448C142.022 251.888 142.869 254.312 143.715 256.753C144.7 259.576 145.691 262.393 146.687 265.204C151.368 278.221 155.884 291.587 160.565 305.052C162.093 309.48 163.642 313.857 165.214 318.185C168.224 326.52 171.361 334.789 174.626 342.991C175.324 344.651 176.037 346.461 176.751 348.187C179.352 354.463 182.086 360.645 184.952 366.733C187.354 371.836 189.872 376.845 192.506 381.759C205.869 406.664 224.512 429.394 248.949 443.49L250.775 444.52C260.129 449.672 270.253 453.283 280.757 455.212C282.417 455.528 283.994 455.777 285.637 456.009C316.05 460.243 348.19 451.46 375.183 435.703C378.188 434.043 381.11 432.117 383.982 430.191C389.772 426.325 395.306 422.087 400.549 417.506C417.27 402.611 430.879 384.554 440.591 364.376C442.384 360.701 444.044 356.965 445.571 353.168C447.431 348.619 449.091 343.992 450.552 339.288C460.214 308.738 461.492 275.947 450.552 247.389C449.106 243.583 447.444 239.863 445.571 236.248C444.044 233.326 442.384 230.454 440.591 227.648C435.725 220.19 429.929 213.383 423.343 207.392C414.711 199.756 405.619 192.659 396.117 186.139L389.012 181.158L388.182 180.577L381.99 176.161C377.64 173.006 373.34 169.802 369.157 166.448C347.277 148.931 332.004 120.855 316.565 92.7127C307.102 75.4453 297.557 58.1613 286.384 43.2848C267.625 18.2636 244.234 0.116224 208.791 0.116224C180.154 0.116224 148.762 15.1422 136.079 41.6244C135.797 42.2055 135.514 42.8033 135.249 43.401C127.964 59.0902 122.933 75.7309 120.308 92.8289C119.909 95.253 119.577 97.6937 119.279 100.134C119.279 100.134 119.279 100.267 119.279 100.35C117.796 112.727 117.307 125.203 117.818 137.658ZM286.002 431.32C288.775 387.388 299.981 321.921 299.981 321.921L300.611 323.913C300.379 315.014 300.263 305.517 300.263 295.688C300.263 271.812 300.977 250.029 302.139 233.608C302.585 225.169 303.572 216.767 305.094 208.454C303.315 207.608 301.451 206.956 299.532 206.512C247.289 195.387 235.386 194.126 234.523 194.043C234.402 193.395 234.236 192.757 234.025 192.133C233.361 190.156 232.807 188.144 232.365 186.106H348.124C351.676 190.246 355.074 194.507 358.317 198.891L322.342 221.123C324.36 223.22 326.121 225.549 327.588 228.063C355.445 277.457 379.914 366.036 379.914 366.036L373.988 367.846L373.39 368.028L372.56 368.277L371.631 368.576L370.834 368.809C370.518 368.925 370.186 369.008 369.854 369.108L368.891 369.406L367.895 369.705L367.231 369.905L366.849 370.021L366.318 370.187L361.869 371.498L360.707 371.831C359.528 372.179 358.317 372.528 357.088 372.86L355.843 373.225C347.941 375.433 339.242 377.658 331.838 379.136L330.294 379.435L329.148 379.634C328.418 379.767 327.688 379.9 326.99 379.999L325.779 380.199L324.782 380.331H324.6L331.24 415.198C314.739 421.225 299.732 426.588 286.002 431.32Z" fill="#39180E"/>
<path d="M232.431 186.09C232.873 188.128 233.427 190.14 234.091 192.117C234.302 192.74 234.468 193.378 234.589 194.026C235.452 194.026 247.355 195.371 299.598 206.495C301.517 206.94 303.382 207.591 305.16 208.438C307.05 209.328 308.885 210.332 310.655 211.443C314.967 214.158 318.921 217.405 322.425 221.106L358.399 198.874C355.156 194.447 351.759 190.185 348.206 186.09H232.431Z" fill="#39180E"/>
<path d="M331.19 415.298L324.55 380.431H324.733C322.741 380.712 320.734 380.867 318.723 380.896L312.713 361.952L300.678 323.996L300.047 322.004C300.047 322.004 288.841 387.471 286.069 431.403C299.731 426.588 314.739 421.225 331.19 415.298Z" fill="#39180E"/>
<path d="M6.02638 660.014C6.02638 660.014 11.5047 654.136 13.1814 652.044C15.1403 649.587 20.4195 641.8 20.4195 641.8C20.4195 641.8 37.5351 613.823 35.3604 612.761C33.1856 611.698 27.4915 614.903 25.8314 616.264C24.1713 617.625 22.0463 619.07 20.3862 620.431C19.5104 621.126 18.3971 621.449 17.2857 621.331C16.1744 621.213 15.1537 620.663 14.4431 619.801C12.5672 617.891 18.0455 611.034 20.4028 609.025C27.7903 602.782 50.9155 589.964 53.3061 588.52C56.1282 586.86 76.7467 532.932 85.3128 515.034C98.4442 485.314 110.414 454.133 111.874 450.978L128.293 313.437L181.947 299.473C181.947 299.473 165.795 452.356 164.085 459.927C163.288 463.53 127.463 530.11 127.43 530.093C107.691 561.805 90.2101 589.699 87.0227 595.145C87.0227 595.145 81.8764 613.956 79.3364 626.11C76.7965 638.263 69.4754 648.474 68.2304 651.795C65.1802 660.425 60.6896 668.475 54.9496 675.604C46.7487 685.666 49.8365 672.383 49.8365 672.383C49.8365 672.383 61.6232 650.981 59.7971 650.351C58.3528 649.852 52.6254 661.973 43.6775 673.163C41.3699 676.052 39.0956 678.892 37.0371 681.465C31.4923 688.272 25.6488 686.828 30.3967 678.775C32.4711 675.094 34.8126 671.571 37.4023 668.232C40.1082 664.912 41.5359 661.076 43.3787 657.971C47.0475 651.812 49.8198 647.362 49.4712 647.345C49.1226 647.329 48.8902 645.602 46.3502 648.591C43.2956 652.193 38.5312 661.259 33.6173 666.207C30.8449 669.013 25.3167 675.222 25.3167 675.222C25.3167 675.222 15.3561 684.337 14.7087 683.906C11.1063 681.598 16.3688 673.047 20.6353 669.727C22.2954 666.223 28.1721 659.848 28.1721 659.848C28.1721 659.848 37.2197 644.29 34.9951 642.979C33.1856 641.899 4.23345 675.006 0.797045 672.433C-2.22434 670.358 6.02638 660.014 6.02638 660.014Z" fill="#F58D80"/>
<path d="M59.7306 611.349C59.7306 611.349 43.9763 620.265 35.5928 612.927C36.6164 614.703 38.0759 616.188 39.8333 617.243C41.5907 618.297 43.588 618.886 45.6364 618.954C52.5756 619.037 59.7306 611.349 59.7306 611.349Z" fill="#F17458"/>
<path d="M173.978 207.757C173.978 207.757 157.992 215.129 136.327 258.945C116.174 299.739 112.87 394.577 112.87 394.577C112.87 394.577 144.943 404.771 163.37 401.218C181.798 397.665 173.978 207.757 173.978 207.757Z" fill="#9F1C38"/>
<path d="M127.662 308.207C127.941 309.929 128.306 311.635 128.758 313.321C130.019 318.451 132.277 326.603 135.066 336.781C138.004 347.507 141.573 360.49 145.226 374.537C147.517 383.337 149.857 392.585 152.115 401.949C155.186 414.7 158.091 427.701 160.532 440.136C160.665 440.867 160.814 441.597 160.947 442.328C162.095 448.861 162.833 455.46 163.155 462.086C163.719 471.849 163.819 482.757 163.636 493.632C163.636 494.695 163.636 495.741 163.636 496.803C163.636 500.124 163.47 503.445 163.354 506.765V507.944C163.221 511.265 163.088 514.585 162.939 517.757C162.839 519.882 162.723 521.957 162.624 523.983C162.524 525.688 162.424 527.348 162.325 528.964C161.794 538.079 161.212 545.816 160.797 551.013C160.449 555.43 160.2 558.02 160.2 558.02C160.2 558.02 164.682 558.783 171.821 559.68H172.368C179.706 560.593 189.7 561.639 200.59 562.17C212.049 562.829 223.542 562.623 234.971 561.556C299.599 554.765 314.124 546.348 317.378 542.96C318.308 541.997 318.324 541.433 318.324 541.433C318.324 541.433 315.154 533.712 310.738 523.003C309.376 519.683 307.899 516.146 306.372 512.427C302.338 502.648 297.889 491.872 294.021 482.541C291.547 476.564 289.322 471.184 287.596 467.05C286.387 463.435 285.737 459.655 285.67 455.843C285.338 447.612 285.482 439.368 286.102 431.154C288.874 387.222 300.08 321.755 300.08 321.755L300.711 323.747C300.478 314.848 300.362 305.351 300.362 295.522C300.362 271.646 301.076 249.863 302.238 233.442C302.684 225.003 303.671 216.601 305.193 208.288C303.415 207.442 301.55 206.79 299.632 206.346C247.388 195.221 235.485 193.96 234.622 193.877C220.589 194.792 206.641 196.723 192.887 199.654C191.191 200.093 189.527 200.647 187.907 201.315C183.059 203.158 178.295 205.748 175.108 207.176C174.776 207.325 174.427 207.508 174.078 207.707H173.929C165.446 212.954 153.476 234.588 143.864 256.654C134.252 278.719 126.799 301.283 127.662 308.207Z" fill="#C41E53"/>
<path d="M191.775 267.578C222.204 260.14 237.859 210.878 234.572 194.026C234.452 193.378 234.285 192.74 234.074 192.117C233.41 190.14 232.856 188.128 232.414 186.09C232.082 184.529 231.75 182.769 231.451 181.109C231.152 179.448 230.903 177.788 230.654 176.128C229.725 169.586 228.994 162.463 228.48 156.204C228.48 155.706 228.48 155.224 228.363 154.743C228.264 153.497 228.164 152.285 228.081 151.14C228.081 150.725 228.081 150.31 227.998 149.894C227.832 147.636 227.699 145.594 227.6 143.851C227.6 143.419 227.6 143.004 227.517 142.622C227.525 142.501 227.525 142.379 227.517 142.257C227.517 142.041 227.517 141.842 227.517 141.643C227.517 141.443 227.517 140.846 227.517 140.497C227.517 139.501 227.434 138.837 227.417 138.322C227.417 138.322 227.417 138.189 227.417 138.139C227.424 138.051 227.424 137.962 227.417 137.874L192.638 130.22L182.827 128.061C182.827 128.061 182.827 128.31 182.827 128.792C182.827 129.605 182.993 131.066 183.142 133.042C183.408 136.612 183.79 141.858 184.238 147.985C184.321 149.214 184.42 150.492 184.503 151.787C185.068 159.558 185.699 168.258 186.263 176.31C186.379 177.971 186.479 179.631 186.595 181.291C186.711 182.952 186.828 184.695 186.944 186.272C187.375 193.013 187.724 198.542 187.84 201.564C187.893 202.382 187.893 203.203 187.84 204.021C183.823 224.908 163.155 274.568 191.775 267.578Z" fill="#F6A390"/>
<path d="M184.736 151.057C182.263 138.488 179.938 128.078 179.938 128.078L227.218 137.724C227.218 137.724 227.567 145.86 228.43 156.121C210.767 164.306 195.626 160.637 184.736 151.057Z" fill="#F17458"/>
<path d="M212.958 29.5704C225.193 33.651 235.571 41.9641 242.225 53.0143C252.933 71.2779 258.279 123.794 218.868 146.192C179.457 168.59 151.534 132.693 152.713 99.1216C153.891 65.5498 163.337 21.1526 212.958 29.5704Z" fill="#F6A390"/>
<path d="M149.26 87.765C152.115 96.0666 158.324 101.38 163.138 99.7193C167.952 98.059 169.53 90.0064 166.691 81.7546C163.852 73.5027 157.627 68.1399 152.812 69.8002C147.998 71.4605 146.421 79.5131 149.26 87.765Z" fill="#F6A390"/>
<path d="M245.28 99.2544C242.076 107.838 244.184 116.555 249.978 118.73C255.772 120.905 263.093 115.692 266.297 107.108C269.501 98.5239 267.393 89.8072 261.599 87.6487C255.805 85.4903 248.501 90.6871 245.28 99.2544Z" fill="#F6A390"/>
<path d="M158.274 562.054L293.738 539.49L264.637 351.11L122.001 379.086L158.274 562.054Z" fill="url(#paint0_linear_165_1554)"/>
<path d="M137.357 485.397C137.805 490.743 138.868 498.53 141.657 503.544C142.413 504.992 143.479 506.256 144.778 507.247C145.716 507.898 146.717 508.454 147.766 508.907C151.667 510.568 154.987 509.704 161.179 508.359C161.827 508.21 162.524 508.06 163.255 507.928C163.332 507.918 163.41 507.918 163.487 507.928L164.417 507.728C169.131 506.799 178.793 502.947 188.687 500.124C191.725 499.261 194.763 498.464 197.718 497.966C199.08 497.7 200.391 497.501 201.702 497.351C237.826 492.951 253.415 492.37 285.289 484.816C288.044 484.168 290.916 483.471 293.938 482.691C298.337 481.578 303.052 480.333 308.148 478.938C326.16 473.957 343.259 468.976 356.64 464.344C371.846 459.064 382.238 454.249 383.733 450.547C385.094 447.226 384.928 439.688 383.932 430.174C383.6 427.053 383.201 423.716 382.72 420.213C380.363 403.045 376.445 382.506 373.955 367.813L373.357 367.995L372.527 368.244L371.597 368.543L370.8 368.776C370.485 368.892 370.153 368.975 369.821 369.074L368.858 369.373L367.862 369.672L367.198 369.871L366.816 369.988L366.285 370.154L361.836 371.465L360.674 371.797C359.495 372.146 358.283 372.495 357.055 372.827L355.81 373.192C347.908 375.4 339.209 377.625 331.805 379.103L330.261 379.402L329.115 379.601C328.385 379.734 327.654 379.867 326.957 379.966L325.745 380.165L324.749 380.298H324.567L331.207 415.165C314.755 421.092 299.665 426.455 286.069 431.187L277.503 434.109C267.21 437.596 257.714 440.751 248.949 443.357C227.368 449.899 210.302 453.834 196.855 454.664C195.285 454.705 193.714 454.622 192.157 454.415C189.909 451.975 187.372 449.817 184.603 447.99C182.329 446.446 174.361 443.939 166.442 441.697L160.549 440.037C153.676 438.194 148.065 436.799 148.065 436.799C148.065 436.799 137.141 435.471 137.141 440.817C137.141 446.163 150.555 451.41 150.688 451.593C151.767 452.888 158.656 456.574 157.129 457.304C149.393 460.625 138.154 457.553 137.955 458.35L137.855 458.749C135.68 467.316 136.211 472.297 137.357 485.397Z" fill="#F58D80"/>
<path d="M211.563 29.1222C211.563 29.1222 220.81 83.6141 238.241 92.2146C255.672 100.815 249.48 125.77 249.48 125.77C249.48 125.77 262.761 67.7912 248.6 50.6566C234.44 33.522 211.563 29.1222 211.563 29.1222Z" fill="#39180E"/>
<path d="M196.573 123.279L167.156 118.896C167.156 118.896 166.176 130.17 179.059 132.478C194.697 135.25 196.573 123.279 196.573 123.279Z" fill="white"/>
<path d="M199.76 68.6878C199.909 71.3609 206.832 68.0569 210.252 69.1859C216.045 71.0953 215.597 74.3495 217.871 74.1669C218.801 71.3111 215.796 66.7618 210.733 65.3007C208.785 64.5951 206.659 64.544 204.679 65.1553C202.699 65.7665 200.972 67.0066 199.76 68.6878Z" fill="#39180E"/>
<path d="M208.127 82.1198C207.413 85.4405 205.338 87.8646 203.495 87.4661C201.653 87.0676 200.756 84.0458 201.487 80.692C202.217 77.3381 204.276 74.9306 206.102 75.3291C207.928 75.7276 208.858 78.7992 208.127 82.1198Z" fill="#243962"/>
<path d="M206.118 75.2959C208.329 75.3864 210.484 76.0193 212.393 77.1388C211.539 76.9586 210.657 76.954 209.801 77.1253C208.945 77.2965 208.132 77.6401 207.413 78.135L206.118 75.2959Z" fill="#243962"/>
<path d="M181.698 64.8026C180.47 67.1769 175.506 61.3325 171.937 60.9506C165.861 60.3197 164.931 63.4743 162.906 62.4117C163.238 59.4231 167.886 56.5176 173.066 57.2481C175.129 57.4017 177.086 58.2214 178.643 59.5839C180.2 60.9464 181.272 62.7779 181.698 64.8026Z" fill="#39180E"/>
<path d="M168.567 73.5857C167.836 76.9064 168.749 79.978 170.592 80.3765C172.435 80.775 174.493 78.3675 175.207 75.0136C175.921 71.6598 175.025 68.6214 173.199 68.2229C171.372 67.8244 169.281 70.2319 168.567 73.5857Z" fill="#243962"/>
<path d="M173.198 68.2229C171.138 67.4095 168.908 67.1186 166.708 67.3761C167.562 67.566 168.369 67.9254 169.082 68.4331C169.795 68.9407 170.399 69.5863 170.858 70.3315L173.198 68.2229Z" fill="#243962"/>
<path opacity="0.5" d="M175.456 108.585C174.652 108.274 173.987 107.685 173.58 106.925C172.086 104.667 171.24 102.658 171.14 102.658C171.14 102.658 171.057 102.658 171.14 102.658C171.223 102.658 174.809 106.826 175.606 107.307C176.388 107.606 177.233 107.703 178.063 107.589C182.329 107.49 185.433 107.008 185.566 107.124C184.671 107.561 183.73 107.895 182.761 108.121C181.191 108.621 179.56 108.901 177.913 108.951C177.079 108.976 176.247 108.852 175.456 108.585Z" fill="#6E4822"/>
<path d="M297.789 302.396C297.789 313.37 297.922 323.98 298.171 333.942L311.584 376.23L318.225 397.333C320.447 397.294 322.665 397.116 324.865 396.802L325.961 396.652L327.322 396.437L329.729 396.038L330.991 395.806L332.651 395.474C340.952 393.813 350.58 391.339 359.395 388.832L360.773 388.434L364.807 387.288L366.102 386.906C367.762 386.408 369.422 385.927 371.083 385.445L371.68 385.263L372.095 385.146L372.826 384.93L373.938 384.582L375.017 384.25L376.096 383.918L376.992 383.652L378.022 383.337L378.951 383.054L379.615 382.838C383.716 381.56 386.256 380.746 386.256 380.746C386.256 380.746 359.014 282.156 328.053 227.1C326.414 224.306 324.453 221.715 322.209 219.379C318.304 215.264 313.898 211.655 309.094 208.637C307.13 207.403 305.089 206.293 302.985 205.316C301.283 214.578 300.174 223.939 299.665 233.343C298.569 251.473 297.789 275.797 297.789 302.396Z" fill="#9F1C38"/>
</g>
<defs>
<linearGradient id="paint0_linear_165_1554" x1="122.001" y1="456.59" x2="293.738" y2="456.59" gradientUnits="userSpaceOnUse">
<stop offset="0.01" stop-color="#3C8F7C"/>
<stop offset="1" stop-color="#225F4C"/>
</linearGradient>
<clipPath id="clip0_165_1554">
<rect width="472" height="1301" fill="white"/>
</clipPath>
</defs>
</svg>
