<svg id="Layer_1" data-name="Layer 1" xmlns="http://www.w3.org/2000/svg" viewBox="0 0 334.14 800.65"><defs><style>.cls-1{fill:#f48c7f;}.cls-2{fill:#a00035;}.cls-3{fill:#f79c8d;}.cls-4{fill:#c41051;}.cls-5{fill:#13437c;}.cls-6{fill:#f7a491;}.cls-7{fill:#f47458;}.cls-11,.cls-7{opacity:0.5;}.cls-8{fill:#3a0f08;}.cls-9{fill:#fff;}.cls-10{fill:#02254f;}.cls-11{fill:#6d4821;}</style></defs><title>hi people</title><path class="cls-1" d="M1108.46,594.81c-3.14-2.62-6.94-1.43-17.84-6.48a68.15,68.15,0,0,0-10.15-3,1.23,1.23,0,0,1-1-.9c-3.31-12.54-17.83-70.51-19.42-87.22-1.63-17.1-12.66-89.57-14.34-100.59a1.26,1.26,0,0,0-1.59-1l-31.67,8.83a1.28,1.28,0,0,0-.9,1.5c2,8.63,14.13,62.87,17.71,90.32,2.85,21.89,35.45,92.09,36.11,96.58,0,0,0,.08,0,.12a2.75,2.75,0,0,0,2.72,2.36h35.3C1104.78,595.28,1109.44,595.63,1108.46,594.81Z" transform="translate(-774.45 -185.35)"/><path class="cls-2" d="M1051.21,415.41c-.82.23-1.63.48-2.49.75-6.2,1.95-13.28,4.85-20,7.37-4.15,1.57-8.17,3-11.82,4l-3.19-23.45-5.46-40.28-5.87-43.22-.07-.53s7.49-.87,17.23,11.27c5.73,7.13,12.25,18.75,18.49,37.68C1042.12,381.58,1047.75,399.25,1051.21,415.41Z" transform="translate(-774.45 -185.35)"/><path class="cls-1" d="M1042.66,981.41c-4.85-3.57-8.77-5.94-24.28-13.46-1-.49-4.7-2.84-6-3.65a47.13,47.13,0,0,1-9.66-8.55c-2.78-3.11-4.1-13-4.73-21,1.6-17.69,27.25-301.58,32.66-332.31,5.58-31.72-2.92-80.11-2.92-80.11l-19.8-7.46L970.31,645.17l3,99.17s-8.84,28.58-9.95,45.66,12.77,155.74,12.77,155.74h0a72.67,72.67,0,0,1-.74,12.24c-1,5.19-6.7,15.86-4.1,20.74s5.59,6.1,5.59,6.1l67.54,1.09C1048.06,986,1045.63,983.6,1042.66,981.41Z" transform="translate(-774.45 -185.35)"/><path class="cls-3" d="M940.15,512.18s-23.45,35.38-29,64.66,4.1,119.27-6.64,157.65c-5.81,20.77-27.85,52.85-31.2,79.69s-15,104.31-15,104.31h0c-1.77,8.14-4.53,18.2-8.12,22.87-2.19,2.87-6.2,6.49-8.83,11.66-4.1,8.05-1.84,20,1.19,26.65,1.55,3.38-.11,3.37,3.42,4.47,10.46,3.23,21.59-2.22,26-12.26a62.12,62.12,0,0,0,5.11-22.52,105.32,105.32,0,0,1,3.7-23.81h0l75-183.9L1010,582.94l13.91-81.74Z" transform="translate(-774.45 -185.35)"/><path class="cls-4" d="M874,966.6c-16.22,3-27-6.55-32.64-13.67-4.12,8.07-6.13,20.11-3.1,26.74,2.67,5.83,10.48,5.67,16.63,5.89,6.5.25,11.53-3.37,14.75-9A53.79,53.79,0,0,0,874,966.6Z" transform="translate(-774.45 -185.35)"/><path class="cls-4" d="M1012.35,964.29c-17.87,4.6-31.07,1.48-38.46-1.51-1.9,5.41-4.43,12.2-3.09,16.11,1.64,4.8,4,5.88,6,5.93,16.31.43,59.76,1,72.2,1.18a2,2,0,0,0,1.58-3.35C1047.54,979,1013.68,965.11,1012.35,964.29Z" transform="translate(-774.45 -185.35)"/><path class="cls-5" d="M955.36,738.18c1.4.1,2.82.19,4.23.27l.22,0,4.19.23h.26c1.4.08,2.81.14,4.22.2h.22l4.31.17c16,.52,35.79.32,48.47-1.84,6.47-64.76,8.88-123.85,11.28-136.93,5.8-31.73-5.06-81.8-5.06-81.8l-5.19-.93,3.28-18.54-87.11,11s-24.39,35.38-30.19,64.66,4.26,119.28-6.91,157.65C901.58,732.34,926.44,736.21,955.36,738.18Z" transform="translate(-774.45 -185.35)"/><path class="cls-4" d="M1028.21,488.63v0c-.17,13.64-.36,24.76-.45,30.17v0c0,2.24-.07,3.48-.07,3.48a27.65,27.65,0,0,1-7.94,3.39,74.29,74.29,0,0,1-15.66,2.31c-27.49,1.57-65.2-5.61-69.72-6.5-.31,0-.46-.09-.46-.09s.85-2.84,2.09-7.36c0,0,0,0,0,0,3.72-13.59,10.93-42.3,9.26-55.09-.18-1.46-.63-3.6-1.26-6.29-1.91-8.08-5.61-21.15-9.65-36-1.11-4-2.24-8.24-3.36-12.49-.19-.66-.36-1.33-.53-2-9.23-34.91-18.05-73.77-11-81.47a24,24,0,0,1,5.56-4.47c12.38-7.42,30.78-5.75,33.68-5.41l.39,0s16.17,2,28.84,4.8c6.88,1.5,12.73,3.2,14.36,4.91l0,.05c2,2.18,6.83,13.32,11.76,26.06,6.08,15.73,12.33,33.91,13.55,40.64a113.38,113.38,0,0,1,.75,12.62c.16,6.33.23,14.5.23,23.59C1028.72,443.88,1028.46,468.87,1028.21,488.63Z" transform="translate(-774.45 -185.35)"/><path class="cls-6" d="M988,315.66c-.34,2.76,9.64,25.6,4.18,26.55-18.54,3.23-37.79-23.09-33.44-31.33,0,0,0,0,0-.05,3.19-6.12,7.74-26.32,9.67-36,.17-.8.31-1.53.44-2.17.07-.34.12-.64.17-.93l.46-2.49,10.34-.26,16.73-.41.7,0s-1.07,5.48-2.54,12.95c-.34,1.69-.7,3.48-1.06,5.34-.53,2.64-1.07,5.4-1.62,8.18-.17.93-.36,1.85-.54,2.77a.64.64,0,0,0,0,.07c-1.3,6.58-2.56,13-3.5,17.7A.16.16,0,0,0,988,315.66Z" transform="translate(-774.45 -185.35)"/><path class="cls-7" d="M997.25,268.58s-1.07,5.48-2.54,12.95c-.34,1.69-.7,3.48-1.06,5.34-.53,2.64-1.07,5.4-1.62,8.18-.17.93-.36,1.85-.54,2.77-4.29-.63-8.77-2.71-13.26-6.65a35.17,35.17,0,0,1-10-15c.08-.46.17-.89.24-1.31.17-.8.3-1.54.42-2.19.07-.34.12-.64.17-.93l.46-2.49,10.34-.26,16.73-.41Z" transform="translate(-774.45 -185.35)"/><path class="cls-6" d="M1014.92,241.6c-.26,3.74-.72,7.49-1.21,11.12a41.59,41.59,0,0,1-1.28,6c-2.92,10.09-9.45,19.1-17.72,22.85-7.27,3.33-15.86,2.59-24.51-5-.61-.54-1.21-1.09-1.77-1.65a0,0,0,0,0,0,0,37.15,37.15,0,0,1-10.06-20.41,55.35,55.35,0,0,1,.42-19,.3.3,0,0,1,0-.13c.27-.05.56-.09.85-.12,9.91-1.15,23-21.05,27.94-29.24l.58,0C1012.84,205.36,1016.2,223.22,1014.92,241.6Z" transform="translate(-774.45 -185.35)"/><path class="cls-6" d="M1019.75,252.4c-1.93,3.75-4.88,6.19-7.32,6.28a3.4,3.4,0,0,1-1.81-.41c-2.61-1.5-2.74-6.57-.31-11.31a13.8,13.8,0,0,1,4.61-5.36c1.62-1,3.24-1.24,4.52-.51C1022,242.59,1022.19,247.66,1019.75,252.4Z" transform="translate(-774.45 -185.35)"/><path class="cls-8" d="M958.64,235.36a13.61,13.61,0,0,0-8.7,5.83c.41-3.56,2.18-6.34,4.72-6.85A5,5,0,0,1,958.64,235.36Z" transform="translate(-774.45 -185.35)"/><path class="cls-8" d="M1032.79,266.78c-.92,22.05-6.32,43.64-13.3,64.53-9.74-12.14-17.23-11.27-17.23-11.27l.07.53c-1.63-1.71-7.48-3.41-14.36-4.91a.16.16,0,0,1,0-.07c.94-4.71,2.2-11.12,3.5-17.7a.64.64,0,0,1,0-.07c.18-.92.37-1.84.54-2.77.55-2.78,1.09-5.54,1.62-8.18.36-1.86.72-3.65,1.06-5.34,8.27-3.75,14.8-12.76,17.72-22.85,2.44-.09,5.39-2.53,7.32-6.28,2.44-4.74,2.28-9.81-.31-11.31-1.28-.73-2.9-.48-4.52.51,1.28-18.38-2.08-36.24-26.76-35.59l-.58,0c-5,8.19-18,28.09-27.94,29.24-.29,0-.58.07-.85.12l-.15,0a5,5,0,0,0-4-1c-2.54.51-4.31,3.29-4.72,6.85a14.46,14.46,0,0,0,.15,4.52c1,5.56,4.71,9.47,8.26,8.74a37.15,37.15,0,0,0,10.06,20.41c-1.93,9.65-6.48,29.85-9.67,36-2.9-.34-21.3-2-33.68,5.41a17.26,17.26,0,0,0-4.58.41c-17.12,3.82-30.78,95.13-30.78,95.13l5,2.59c-2.68,6.77-5.08,12.93-5.73,15.11-8.36-1.58-25.12-8.64-39.11-15-22-32-28-78.95,2.22-106.53,9.91-9,21.59-15.86,32.06-24.24,34.23-27.4,41.07-98.47,94.86-98.41,16.94,0,35.51,8.89,43,24.51C1030.73,228,1033.6,247.28,1032.79,266.78Z" transform="translate(-774.45 -185.35)"/><path class="cls-6" d="M958.35,254.45c-3.55.73-7.23-3.18-8.26-8.74a14.46,14.46,0,0,1-.15-4.52c.41-3.56,2.18-6.34,4.72-6.85a5,5,0,0,1,4,1l.13.1a12.47,12.47,0,0,1,4.15,7.61C963.94,248.63,961.89,253.73,958.35,254.45Z" transform="translate(-774.45 -185.35)"/><path class="cls-9" d="M978.32,263.25,997.25,267s-1.85,7.1-10.22,5.71C976.82,271,978.32,263.25,978.32,263.25Z" transform="translate(-774.45 -185.35)"/><path class="cls-6" d="M931.5,402.71c-.15.48-.32,1-.49,1.46-2.13,6.14-5.85,15-10,23.9-4.38,9.58-9.19,19.25-12.94,25.87-2.61,4.57-4.71,7.69-5.82,8.27-13.16,7-68.32-33.22-79.24-40s-16.78-4-24-5.92-17,5.19-18.13,2.46,12.33-5.87,12.89-8.73-17.39-2-18.19-4.44c-1.47-4.52,19.59-2.2,19-4.31s-22.16-5.58-20.08-9.4,22,5.92,22.45,3.38-19.38-7.39-19.36-12.9c0-2.93,32.78,12.61,36.34,10.78s-4.91-15.09-2.11-17.31,13.08,27.24,15.16,28.13c.94.39,10.85,5.21,22.77,10.59,14,6.31,30.75,13.37,39.11,15,.65-2.18,3-8.34,5.73-15.11,3.72-9.41,8-20,8.73-22.9,8.6,5.34,18.18,6.19,27.07,10.71C930.82,402.35,931.16,402.52,931.5,402.71Z" transform="translate(-774.45 -185.35)"/><path class="cls-2" d="M956.47,354.75c-.58,13.37-13.68,43.68-22.1,61.91-4,8.73-7,14.68-7,14.68l-6.31-3.27-26.38-13.7-5-2.59s13.66-91.31,30.78-95.13a17.26,17.26,0,0,1,4.58-.41C940.92,316.71,957.26,336.7,956.47,354.75Z" transform="translate(-774.45 -185.35)"/><path class="cls-8" d="M988.25,229.22c-.68,1.6-4.19-1.92-6.52-2-4-.1-4.39,2-5.75,1.41.06-1.94,2.87-4.07,6.29-3.87A6.2,6.2,0,0,1,988.25,229.22Z" transform="translate(-774.45 -185.35)"/><path class="cls-10" d="M980.22,235.58c-.29,2.2.46,4.12,1.66,4.28s2.42-1.5,2.71-3.71-.45-4.12-1.66-4.27S980.51,233.38,980.22,235.58Z" transform="translate(-774.45 -185.35)"/><path class="cls-10" d="M982.92,231.88a8.73,8.73,0,0,0-4.24-.21,4.19,4.19,0,0,1,2.84,1.69Z" transform="translate(-774.45 -185.35)"/><path class="cls-8" d="M1000.12,230.77c.24,1.72,4.54-.77,6.8-.22,3.85.92,3.73,3,5.19,2.85.45-1.9-1.72-4.67-5.07-5.36A6.19,6.19,0,0,0,1000.12,230.77Z" transform="translate(-774.45 -185.35)"/><path class="cls-10" d="M1006.23,239c-.28,2.2-1.5,3.86-2.71,3.7s-1.95-2.07-1.66-4.27,1.5-3.87,2.71-3.71S1006.52,236.79,1006.23,239Z" transform="translate(-774.45 -185.35)"/><path class="cls-10" d="M1004.57,234.71a8.72,8.72,0,0,1,4.15.9,4.21,4.21,0,0,0-3.18.9Z" transform="translate(-774.45 -185.35)"/><path class="cls-11" d="M994.42,258.87a2.36,2.36,0,0,0,1.52-.65c1.4-1.05,2.36-2.1,2.41-2.07h0c-.19-.11-3.15,1.74-3.74,1.86a3.17,3.17,0,0,1-1.56-.35c-2.59-1-4.38-2-4.48-1.92s1.34,1.11,1.5,1.22a11.92,11.92,0,0,0,2.77,1.56A4.68,4.68,0,0,0,994.42,258.87Z" transform="translate(-774.45 -185.35)"/></svg>