<svg xmlns="http://www.w3.org/2000/svg" xmlns:xlink="http://www.w3.org/1999/xlink" viewBox="0 0 1976.26 1578.33"><defs><style>.cls-1{isolation:isolate;}.cls-2{fill:#90b7c6;}.cls-3,.cls-4,.cls-7{opacity:0.3;}.cls-11,.cls-18,.cls-3,.cls-4,.cls-7{mix-blend-mode:screen;}.cls-3{fill:url(#New_Gradient_Swatch_copy_2);}.cls-4{fill:url(#New_Gradient_Swatch_copy_2-2);}.cls-10,.cls-12,.cls-13,.cls-158,.cls-161,.cls-163,.cls-171,.cls-43,.cls-5,.cls-56,.cls-6,.cls-75,.cls-77{mix-blend-mode:multiply;}.cls-5{fill:url(#New_Gradient_Swatch_copy);}.cls-168,.cls-32,.cls-6,.cls-61,.cls-74{opacity:0.6;}.cls-6{fill:url(#New_Gradient_Swatch_copy-2);}.cls-7{fill:url(#New_Gradient_Swatch_copy_2-3);}.cls-8{fill:#f2f2e5;}.cls-9{fill:#dde6e5;}.cls-10,.cls-11,.cls-12{opacity:0.8;}.cls-10{fill:url(#New_Gradient_Swatch_copy-3);}.cls-11{fill:url(#New_Gradient_Swatch_copy_6);}.cls-12{fill:url(#New_Gradient_Swatch_copy-4);}.cls-13{fill:url(#New_Gradient_Swatch_copy-5);}.cls-14{fill:#f6dec2;}.cls-15{fill:#f6f0ea;}.cls-16{fill:#e3c4a1;}.cls-17{fill:#e7cfb3;}.cls-163,.cls-18,.cls-29{opacity:0.7;}.cls-18{fill:url(#New_Gradient_Swatch_copy_6-2);}.cls-19{opacity:0.97;mix-blend-mode:soft-light;fill:url(#New_Gradient_Swatch_copy_3);}.cls-20{fill:#9bc1f9;}.cls-21{fill:#c5ddf9;}.cls-165,.cls-22,.cls-60,.cls-61,.cls-81{fill:#fff;}.cls-23{fill:#efd66c;}.cls-24{fill:#552748;}.cls-25{fill:#66192d;}.cls-26{fill:url(#linear-gradient);}.cls-27{fill:#ff443c;}.cls-28{fill:#c8c1e1;}.cls-166,.cls-167,.cls-171,.cls-30,.cls-62{opacity:0.4;}.cls-31{fill:url(#linear-gradient-2);}.cls-33{fill:#b71111;}.cls-34{fill:#00baed;}.cls-35{fill:#ebe0ec;}.cls-36,.cls-39{opacity:0.2;}.cls-36{fill:url(#linear-gradient-3);}.cls-37{fill:url(#Degradado_sin_nombre_11);}.cls-122,.cls-124,.cls-125,.cls-126,.cls-157,.cls-158,.cls-161,.cls-170,.cls-38,.cls-60,.cls-69{opacity:0.5;}.cls-38{fill:url(#Degradado_sin_nombre_11-2);}.cls-39{fill:url(#linear-gradient-4);}.cls-40{fill:url(#linear-gradient-5);}.cls-41{fill:url(#linear-gradient-6);}.cls-42{fill:url(#linear-gradient-7);}.cls-43{fill:url(#linear-gradient-8);}.cls-44{fill:url(#linear-gradient-9);}.cls-45{fill:url(#linear-gradient-10);}.cls-46{fill:url(#linear-gradient-11);}.cls-47{fill:#c19dc5;}.cls-48{fill:url(#linear-gradient-12);}.cls-49{fill:url(#linear-gradient-13);}.cls-50{fill:url(#linear-gradient-14);}.cls-51{fill:url(#linear-gradient-15);}.cls-52{fill:url(#Degradado_sin_nombre_11-3);}.cls-53{fill:url(#Degradado_sin_nombre_11-4);}.cls-54{fill:url(#linear-gradient-16);}.cls-55{fill:url(#linear-gradient-17);}.cls-169,.cls-171,.cls-56{fill:#611273;}.cls-57{fill:url(#linear-gradient-18);}.cls-58{fill:url(#linear-gradient-19);}.cls-59{fill:url(#linear-gradient-20);}.cls-62{fill:url(#linear-gradient-21);}.cls-63{fill:url(#linear-gradient-22);}.cls-64{fill:url(#linear-gradient-23);}.cls-65{fill:#adaeb5;}.cls-66{fill:#f3cd75;}.cls-67{fill:#544c60;}.cls-68{fill:#f3bc3d;}.cls-70{fill:#355389;}.cls-71{fill:url(#linear-gradient-24);}.cls-72{fill:url(#linear-gradient-25);}.cls-73{fill:url(#linear-gradient-26);}.cls-74{stroke:#001ae9;stroke-miterlimit:10;stroke-width:2px;fill:url(#linear-gradient-27);}.cls-75{fill:#a6a8ab;}.cls-76{fill:#d73633;}.cls-77{fill:#d0d2d3;}.cls-78{fill:url(#linear-gradient-28);}.cls-79{fill:#d5cbb0;}.cls-80{fill:#9d2420;}.cls-81{opacity:0.1;}.cls-82{fill:url(#linear-gradient-29);}.cls-83{fill:url(#linear-gradient-30);}.cls-84{fill:#46802b;}.cls-85{fill:url(#linear-gradient-31);}.cls-86{fill:url(#linear-gradient-32);}.cls-87{fill:url(#linear-gradient-33);}.cls-88{fill:#178f90;}.cls-89{fill:url(#linear-gradient-34);}.cls-90{fill:url(#linear-gradient-35);}.cls-91{fill:#690d1d;}.cls-92{fill:url(#linear-gradient-36);}.cls-93{fill:url(#linear-gradient-37);}.cls-94{fill:url(#linear-gradient-38);}.cls-95{fill:url(#linear-gradient-39);}.cls-96{fill:url(#linear-gradient-40);}.cls-97{fill:url(#linear-gradient-41);}.cls-98{fill:url(#linear-gradient-42);}.cls-99{opacity:0.7;}.cls-100{fill:url(#linear-gradient-43);}.cls-101{fill:url(#linear-gradient-44);}.cls-102{fill:url(#linear-gradient-45);}.cls-103{fill:url(#linear-gradient-46);}.cls-104{fill:url(#linear-gradient-47);}.cls-105{fill:url(#linear-gradient-48);}.cls-106{fill:url(#linear-gradient-49);}.cls-107{fill:url(#linear-gradient-50);}.cls-108{fill:url(#linear-gradient-51);}.cls-109{fill:url(#linear-gradient-52);}.cls-110{fill:url(#linear-gradient-53);}.cls-111{fill:url(#linear-gradient-54);}.cls-112{fill:url(#linear-gradient-55);}.cls-113{fill:url(#linear-gradient-56);}.cls-114{fill:url(#linear-gradient-57);}.cls-115{fill:url(#linear-gradient-58);}.cls-116{fill:url(#linear-gradient-59);}.cls-117{fill:url(#linear-gradient-60);}.cls-118{fill:url(#linear-gradient-61);}.cls-119{fill:url(#linear-gradient-62);}.cls-120{fill:url(#linear-gradient-63);}.cls-121{fill:url(#linear-gradient-64);}.cls-122{fill:url(#linear-gradient-65);}.cls-123{fill:url(#linear-gradient-66);}.cls-124{fill:url(#linear-gradient-67);}.cls-125{fill:url(#linear-gradient-68);}.cls-126{fill:url(#linear-gradient-69);}.cls-127{fill:url(#linear-gradient-70);}.cls-128{fill:url(#linear-gradient-71);}.cls-129{fill:url(#linear-gradient-72);}.cls-130{fill:url(#linear-gradient-73);}.cls-131{fill:url(#linear-gradient-74);}.cls-132{fill:url(#linear-gradient-75);}.cls-133{fill:url(#linear-gradient-76);}.cls-134{fill:url(#linear-gradient-77);}.cls-135{fill:url(#linear-gradient-78);}.cls-136{fill:url(#linear-gradient-79);}.cls-137{fill:url(#linear-gradient-80);}.cls-138{fill:url(#linear-gradient-81);}.cls-139{fill:url(#linear-gradient-82);}.cls-140{fill:url(#linear-gradient-83);}.cls-141{fill:url(#linear-gradient-84);}.cls-142{fill:url(#linear-gradient-85);}.cls-143{fill:url(#linear-gradient-86);}.cls-144{fill:url(#linear-gradient-87);}.cls-145{fill:#cadfe0;}.cls-146{fill:url(#linear-gradient-88);}.cls-147{fill:#f48c7f;}.cls-148{fill:#f79c8d;}.cls-149{fill:#a00035;}.cls-150{fill:#739fdc;}.cls-151{fill:#3b1405;}.cls-152{fill:#f17458;}.cls-153{fill:#c41051;}.cls-154{fill:#f5a28f;}.cls-155{fill:url(#linear-gradient-89);}.cls-156{fill:#233862;}.cls-157{fill:#6d4721;}.cls-158{fill:url(#Degradado_sin_nombre_11-5);}.cls-159{fill:url(#Degradado_sin_nombre_11-6);}.cls-160{fill:url(#linear-gradient-90);}.cls-161,.cls-163{fill:#8e6160;}.cls-162{fill:#ffeb8e;}.cls-164,.cls-165{opacity:0.9;}.cls-164{fill:url(#linear-gradient-91);}.cls-166{fill:url(#linear-gradient-92);}.cls-167{fill:url(#linear-gradient-93);}.cls-168{fill:url(#linear-gradient-94);}.cls-170{fill:url(#linear-gradient-95);}.cls-172{fill:#ffdcd5;}.cls-173{fill:url(#linear-gradient-96);}.cls-174{fill:url(#linear-gradient-97);}.cls-175{fill:url(#linear-gradient-98);}.cls-176{fill:url(#linear-gradient-99);}.cls-177{fill:url(#linear-gradient-100);}.cls-178{fill:url(#linear-gradient-101);}.cls-179{fill:url(#linear-gradient-102);}.cls-180{fill:url(#linear-gradient-103);}.cls-181{fill:url(#linear-gradient-104);}.cls-182{fill:url(#linear-gradient-105);}.cls-183{fill:url(#linear-gradient-106);}.cls-184{fill:url(#linear-gradient-107);}.cls-185{fill:url(#linear-gradient-108);}.cls-186{fill:url(#linear-gradient-109);}.cls-187{fill:url(#linear-gradient-110);}.cls-188{fill:url(#linear-gradient-111);}.cls-189{fill:url(#linear-gradient-112);}.cls-190{fill:url(#linear-gradient-113);}.cls-191{fill:url(#linear-gradient-114);}.cls-192{fill:url(#linear-gradient-115);}.cls-193{fill:url(#linear-gradient-116);}.cls-194{fill:url(#linear-gradient-117);}.cls-195{fill:url(#linear-gradient-118);}.cls-196{fill:url(#linear-gradient-119);}.cls-197{fill:url(#linear-gradient-120);}.cls-198{fill:url(#linear-gradient-121);}.cls-199{fill:url(#linear-gradient-122);}.cls-200{fill:url(#linear-gradient-123);}.cls-201{fill:url(#linear-gradient-124);}.cls-202{fill:url(#linear-gradient-125);}.cls-203{fill:url(#linear-gradient-126);}.cls-204{fill:url(#linear-gradient-127);}.cls-205{fill:url(#linear-gradient-128);}.cls-206{fill:url(#linear-gradient-129);}.cls-207{fill:url(#linear-gradient-130);}.cls-208{fill:url(#linear-gradient-131);}.cls-209{fill:url(#linear-gradient-132);}.cls-210{fill:url(#linear-gradient-133);}.cls-211{fill:url(#linear-gradient-134);}.cls-212{fill:url(#linear-gradient-135);}</style><linearGradient id="New_Gradient_Swatch_copy_2" x1="1283.75" y1="734.24" x2="1987.88" y2="734.24" gradientUnits="userSpaceOnUse"><stop offset="0" stop-color="#fff2c2"/><stop offset="1"/></linearGradient><linearGradient id="New_Gradient_Swatch_copy_2-2" x1="1016.26" y1="919.27" x2="1016.26" y2="1447.23" xlink:href="#New_Gradient_Swatch_copy_2"/><linearGradient id="New_Gradient_Swatch_copy" x1="56.26" y1="1285.88" x2="1329.27" y2="1285.88" gradientUnits="userSpaceOnUse"><stop offset="0" stop-color="#fff"/><stop offset="1" stop-color="#b0ccd4"/></linearGradient><linearGradient id="New_Gradient_Swatch_copy-2" x1="1066.76" y1="746.85" x2="1329.27" y2="746.85" xlink:href="#New_Gradient_Swatch_copy"/><linearGradient id="New_Gradient_Swatch_copy_2-3" x1="1370.52" y1="1017.6" x2="1370.52" y2="1337.84" xlink:href="#New_Gradient_Swatch_copy_2"/><linearGradient id="New_Gradient_Swatch_copy-3" x1="717.19" y1="841.14" x2="895.74" y2="561.33" xlink:href="#New_Gradient_Swatch_copy"/><linearGradient id="New_Gradient_Swatch_copy_6" x1="1721.49" y1="1156.24" x2="1721.49" y2="1496.57" gradientUnits="userSpaceOnUse"><stop offset="0" stop-color="#ffc900"/><stop offset="1"/></linearGradient><linearGradient id="New_Gradient_Swatch_copy-4" x1="56.26" y1="926.3" x2="444.29" y2="926.3" xlink:href="#New_Gradient_Swatch_copy"/><linearGradient id="New_Gradient_Swatch_copy-5" x1="56.26" y1="1477.59" x2="444.29" y2="1477.59" xlink:href="#New_Gradient_Swatch_copy"/><linearGradient id="New_Gradient_Swatch_copy_6-2" x1="1903.27" y1="679.08" x2="41.94" y2="1434.98" xlink:href="#New_Gradient_Swatch_copy_6"/><linearGradient id="New_Gradient_Swatch_copy_3" x1="1903.27" y1="679.08" x2="41.94" y2="1434.98" gradientUnits="userSpaceOnUse"><stop offset="0" stop-color="#fff"/><stop offset="0.61" stop-color="#86d1ff"/><stop offset="1" stop-color="#3fb6ff"/></linearGradient><linearGradient id="linear-gradient" x1="845.82" y1="324.79" x2="1221.95" y2="324.79" gradientUnits="userSpaceOnUse"><stop offset="0" stop-color="#3c8f7c"/><stop offset="1" stop-color="#215346"/></linearGradient><linearGradient id="linear-gradient-2" x1="985.4" y1="582.62" x2="1102.63" y2="582.62" gradientUnits="userSpaceOnUse"><stop offset="0" stop-color="#529ccb"/><stop offset="1" stop-color="#006ac3"/></linearGradient><linearGradient id="linear-gradient-3" x1="1488.32" y1="292.27" x2="1293.84" y2="501.04" gradientUnits="userSpaceOnUse"><stop offset="0" stop-color="#abc9db"/><stop offset="1" stop-color="#5fb7d9"/></linearGradient><linearGradient id="Degradado_sin_nombre_11" x1="1400.95" y1="205.21" x2="1462.75" y2="244.42" gradientTransform="translate(105.76 -215.4) rotate(11.3)" gradientUnits="userSpaceOnUse"><stop offset="0" stop-opacity="0"/><stop offset="1" stop-opacity="0.5"/></linearGradient><linearGradient id="Degradado_sin_nombre_11-2" x1="1468.58" y1="270.77" x2="1572.75" y2="270.77" gradientTransform="matrix(1, 0, 0, 1, 0, 0)" xlink:href="#Degradado_sin_nombre_11"/><linearGradient id="linear-gradient-4" x1="1418.19" y1="295.54" x2="1642.36" y2="295.54" xlink:href="#linear-gradient-3"/><linearGradient id="linear-gradient-5" x1="1440.2" y1="272.77" x2="1487.71" y2="272.77" gradientUnits="userSpaceOnUse"><stop offset="0" stop-color="#579eca"/><stop offset="1" stop-color="#0062b7"/></linearGradient><linearGradient id="linear-gradient-6" x1="1479.3" y1="272.77" x2="1577.98" y2="272.77" xlink:href="#linear-gradient-5"/><linearGradient id="linear-gradient-7" x1="1470.55" y1="298.87" x2="1493.81" y2="298.87" gradientUnits="userSpaceOnUse"><stop offset="0" stop-color="#21579f"/><stop offset="1" stop-color="#186aa5"/></linearGradient><linearGradient id="linear-gradient-8" x1="1470.55" y1="299.44" x2="1491.87" y2="299.44" xlink:href="#linear-gradient-7"/><linearGradient id="linear-gradient-9" x1="1316.36" y1="298.87" x2="1648.01" y2="298.87" gradientUnits="userSpaceOnUse"><stop offset="0" stop-color="#518bba"/><stop offset="1" stop-color="#00539a"/></linearGradient><linearGradient id="linear-gradient-10" x1="1321.85" y1="319.13" x2="1575.25" y2="319.13" gradientUnits="userSpaceOnUse"><stop offset="0" stop-color="#0cabe5"/><stop offset="1" stop-color="#61c0df"/></linearGradient><linearGradient id="linear-gradient-11" x1="1376.12" y1="281.95" x2="1648.01" y2="281.95" xlink:href="#linear-gradient-10"/><linearGradient id="linear-gradient-12" x1="1476.2" y1="158.3" x2="1488.17" y2="158.3" gradientUnits="userSpaceOnUse"><stop offset="0" stop-color="#5aabe2"/><stop offset="1" stop-color="#0571c0"/></linearGradient><linearGradient id="linear-gradient-13" x1="1476.2" y1="298.87" x2="1488.17" y2="298.87" gradientUnits="userSpaceOnUse"><stop offset="0" stop-color="#94cbe7"/><stop offset="1" stop-color="#73caee"/></linearGradient><linearGradient id="linear-gradient-14" x1="1674.75" y1="798.18" x2="1686.72" y2="798.18" xlink:href="#linear-gradient-12"/><linearGradient id="linear-gradient-15" x1="1389.66" y1="798.18" x2="1401.62" y2="798.18" xlink:href="#linear-gradient-12"/><linearGradient id="Degradado_sin_nombre_11-3" x1="389.06" y1="1421.14" x2="1192.82" y2="1421.14" gradientTransform="matrix(1, 0, 0, 1, 0, 0)" xlink:href="#Degradado_sin_nombre_11"/><linearGradient id="Degradado_sin_nombre_11-4" x1="498.11" y1="921.75" x2="1130.85" y2="921.75" gradientTransform="matrix(1, 0, 0, 1, 0, 0)" xlink:href="#Degradado_sin_nombre_11"/><linearGradient id="linear-gradient-16" x1="815.55" y1="863.71" x2="1085.32" y2="863.71" gradientUnits="userSpaceOnUse"><stop offset="0" stop-color="#a1cee8"/><stop offset="1" stop-color="#0e80c5"/></linearGradient><linearGradient id="linear-gradient-17" x1="815.55" y1="863.71" x2="1052.21" y2="863.71" xlink:href="#linear-gradient-7"/><linearGradient id="linear-gradient-18" x1="516.21" y1="566.88" x2="1384.66" y2="566.88" xlink:href="#linear-gradient-7"/><linearGradient id="linear-gradient-19" x1="541.57" y1="567.91" x2="1359.3" y2="567.91" gradientUnits="userSpaceOnUse"><stop offset="0" stop-color="#dfeaf1"/><stop offset="1" stop-color="#3c8ac2"/></linearGradient><linearGradient id="linear-gradient-20" x1="755.89" y1="909.39" x2="1144.98" y2="909.39" xlink:href="#linear-gradient-7"/><linearGradient id="linear-gradient-21" x1="605.65" y1="487.31" x2="853.02" y2="487.31" xlink:href="#linear-gradient-3"/><linearGradient id="linear-gradient-22" x1="602.7" y1="487.32" x2="855.97" y2="487.32" xlink:href="#linear-gradient-7"/><linearGradient id="linear-gradient-23" x1="1041.26" y1="897.17" x2="1066.73" y2="897.17" xlink:href="#linear-gradient-7"/><linearGradient id="linear-gradient-24" x1="1465.19" y1="-231.56" x2="1583.35" y2="-231.56" gradientTransform="translate(204.26 49.86) rotate(19.81)" xlink:href="#linear-gradient"/><linearGradient id="linear-gradient-25" x1="46.37" y1="260.57" x2="173.77" y2="260.57" gradientTransform="translate(204.26 49.86) rotate(19.81)" gradientUnits="userSpaceOnUse"><stop offset="0" stop-color="#b41915"/><stop offset="1" stop-color="#d34a41"/></linearGradient><linearGradient id="linear-gradient-26" x1="1305.07" y1="-365.89" x2="1471.22" y2="-365.89" xlink:href="#linear-gradient-25"/><linearGradient id="linear-gradient-27" x1="303.44" y1="287.98" x2="313.48" y2="287.98" gradientUnits="userSpaceOnUse"><stop offset="0" stop-color="#a6b5c5"/><stop offset="1" stop-color="#f9e8e8"/></linearGradient><linearGradient id="linear-gradient-28" x1="160.89" y1="969.97" x2="375.49" y2="969.97" gradientTransform="matrix(1, 0, 0, 1, 0, 0)" xlink:href="#linear-gradient-25"/><linearGradient id="linear-gradient-29" x1="224.07" y1="1365.08" x2="601.03" y2="1365.08" xlink:href="#linear-gradient"/><linearGradient id="linear-gradient-30" x1="160.89" y1="914.57" x2="375.49" y2="914.57" xlink:href="#linear-gradient"/><linearGradient id="linear-gradient-31" x1="368.83" y1="933.24" x2="544.77" y2="933.24" xlink:href="#linear-gradient"/><linearGradient id="linear-gradient-32" x1="251.84" y1="1324.16" x2="572.23" y2="1324.16" xlink:href="#linear-gradient-7"/><linearGradient id="linear-gradient-33" x1="189.7" y1="866.32" x2="372.09" y2="866.32" xlink:href="#linear-gradient-7"/><linearGradient id="linear-gradient-34" x1="258.21" y1="1273.69" x2="576.92" y2="1273.69" gradientTransform="matrix(1, 0, 0, 1, 0, 0)" xlink:href="#linear-gradient-25"/><linearGradient id="linear-gradient-35" x1="346.6" y1="812.86" x2="527.34" y2="812.86" gradientTransform="matrix(1, 0, 0, 1, 0, 0)" xlink:href="#linear-gradient-25"/><linearGradient id="linear-gradient-36" x1="203.29" y1="834.58" x2="353.7" y2="834.58" gradientTransform="matrix(1, 0, 0, 1, 0, 0)" xlink:href="#linear-gradient-25"/><linearGradient id="linear-gradient-37" x1="201.95" y1="774.39" x2="371.06" y2="774.39" gradientTransform="matrix(1, 0, 0, 1, 0, 0)" xlink:href="#linear-gradient-25"/><linearGradient id="linear-gradient-38" x1="246.92" y1="1235.78" x2="508.73" y2="1235.78" xlink:href="#linear-gradient-7"/><linearGradient id="linear-gradient-39" x1="175.88" y1="763.03" x2="286.35" y2="763.03" xlink:href="#linear-gradient-7"/><linearGradient id="linear-gradient-40" x1="278.52" y1="759.78" x2="452.47" y2="759.78" xlink:href="#linear-gradient-7"/><linearGradient id="linear-gradient-41" x1="281.63" y1="791.37" x2="452.47" y2="791.37" xlink:href="#linear-gradient-7"/><linearGradient id="linear-gradient-42" x1="596.14" y1="1064.28" x2="1417.14" y2="1064.28" gradientUnits="userSpaceOnUse"><stop offset="0" stop-color="#86b5d7"/><stop offset="1" stop-color="#c4dae9"/></linearGradient><linearGradient id="linear-gradient-43" x1="-1100.84" y1="340.87" x2="-1007.09" y2="340.87" gradientTransform="matrix(1, 0, 0, -1, 2343.45, 681.74)" xlink:href="#linear-gradient-7"/><linearGradient id="linear-gradient-44" x1="-912.76" y1="380.3" x2="-897.14" y2="380.3" gradientTransform="matrix(-1, 0, 0, 1, 291.79, 499.3)" gradientUnits="userSpaceOnUse"><stop offset="0" stop-color="#0062b7"/><stop offset="1" stop-color="#2199d5"/></linearGradient><linearGradient id="linear-gradient-45" x1="-983.07" y1="380.3" x2="-924.92" y2="380.3" xlink:href="#linear-gradient-44"/><linearGradient id="linear-gradient-46" x1="-1044.51" y1="380.3" x2="-996.67" y2="380.3" xlink:href="#linear-gradient-44"/><linearGradient id="linear-gradient-47" x1="-1100.84" y1="380.3" x2="-1064.96" y2="380.3" xlink:href="#linear-gradient-44"/><linearGradient id="linear-gradient-48" x1="-915.66" y1="398.11" x2="-865.31" y2="398.11" xlink:href="#linear-gradient-44"/><linearGradient id="linear-gradient-49" x1="-996.67" y1="398.11" x2="-931.86" y2="398.11" xlink:href="#linear-gradient-44"/><linearGradient id="linear-gradient-50" x1="-1029.08" y1="398.11" x2="-1003.62" y2="398.11" xlink:href="#linear-gradient-44"/><linearGradient id="linear-gradient-51" x1="-1073.93" y1="398.11" x2="-1047.02" y2="398.11" xlink:href="#linear-gradient-44"/><linearGradient id="linear-gradient-52" x1="-1100.84" y1="398.11" x2="-1087.53" y2="398.11" xlink:href="#linear-gradient-44"/><linearGradient id="linear-gradient-53" x1="-1039.72" y1="415.92" x2="-937.26" y2="415.92" xlink:href="#linear-gradient-44"/><linearGradient id="linear-gradient-54" x1="-1100.84" y1="415.92" x2="-1077.11" y2="415.92" xlink:href="#linear-gradient-44"/><linearGradient id="linear-gradient-55" x1="-937.26" y1="433.73" x2="-906.4" y2="433.73" xlink:href="#linear-gradient-44"/><linearGradient id="linear-gradient-56" x1="-988.19" y1="433.73" x2="-954" y2="433.73" xlink:href="#linear-gradient-44"/><linearGradient id="linear-gradient-57" x1="-1100.84" y1="433.73" x2="-1007.09" y2="433.73" xlink:href="#linear-gradient-44"/><linearGradient id="linear-gradient-58" x1="-1050.49" y1="451.54" x2="-1029.08" y2="451.54" xlink:href="#linear-gradient-44"/><linearGradient id="linear-gradient-59" x1="-1100.84" y1="451.54" x2="-1064.96" y2="451.54" xlink:href="#linear-gradient-44"/><linearGradient id="linear-gradient-60" x1="-1025.33" y1="469.35" x2="-988.19" y2="469.35" xlink:href="#linear-gradient-44"/><linearGradient id="linear-gradient-61" x1="-1077.11" y1="469.35" x2="-1044.51" y2="469.35" xlink:href="#linear-gradient-44"/><linearGradient id="linear-gradient-62" x1="-1100.84" y1="469.35" x2="-1087.53" y2="469.35" xlink:href="#linear-gradient-44"/><linearGradient id="linear-gradient-63" x1="-1035.45" y1="487.16" x2="-957.32" y2="487.16" xlink:href="#linear-gradient-44"/><linearGradient id="linear-gradient-64" x1="-1100.84" y1="487.16" x2="-1050.49" y2="487.16" xlink:href="#linear-gradient-44"/><linearGradient id="linear-gradient-65" x1="574.63" y1="344.65" x2="599.02" y2="344.65" xlink:href="#linear-gradient-9"/><linearGradient id="linear-gradient-66" x1="612.43" y1="344.65" x2="636.83" y2="344.65" xlink:href="#linear-gradient-9"/><linearGradient id="linear-gradient-67" x1="650.24" y1="344.65" x2="674.63" y2="344.65" xlink:href="#linear-gradient-9"/><linearGradient id="linear-gradient-68" x1="688.04" y1="344.65" x2="712.44" y2="344.65" xlink:href="#linear-gradient-9"/><linearGradient id="linear-gradient-69" x1="725.85" y1="344.65" x2="750.24" y2="344.65" xlink:href="#linear-gradient-9"/><linearGradient id="linear-gradient-70" x1="837.98" y1="1289.18" x2="856.74" y2="1289.18" gradientUnits="userSpaceOnUse"><stop offset="0" stop-color="#1070b8"/><stop offset="1" stop-color="#24b4f0"/></linearGradient><linearGradient id="linear-gradient-71" x1="869.25" y1="1289.18" x2="888.01" y2="1289.18" xlink:href="#linear-gradient-70"/><linearGradient id="linear-gradient-72" x1="806.72" y1="1289.18" x2="825.48" y2="1289.18" xlink:href="#linear-gradient-70"/><linearGradient id="linear-gradient-73" x1="744.19" y1="1289.18" x2="762.95" y2="1289.18" xlink:href="#linear-gradient-70"/><linearGradient id="linear-gradient-74" x1="775.45" y1="1289.18" x2="794.21" y2="1289.18" xlink:href="#linear-gradient-70"/><linearGradient id="linear-gradient-75" x1="900.52" y1="1289.18" x2="919.28" y2="1289.18" xlink:href="#linear-gradient-70"/><linearGradient id="linear-gradient-76" x1="1056.85" y1="1289.18" x2="1075.61" y2="1289.18" xlink:href="#linear-gradient-70"/><linearGradient id="linear-gradient-77" x1="1119.38" y1="1289.18" x2="1138.14" y2="1289.18" xlink:href="#linear-gradient-70"/><linearGradient id="linear-gradient-78" x1="1150.64" y1="1289.18" x2="1169.4" y2="1289.18" xlink:href="#linear-gradient-70"/><linearGradient id="linear-gradient-79" x1="1181.91" y1="1289.18" x2="1200.67" y2="1289.18" xlink:href="#linear-gradient-70"/><linearGradient id="linear-gradient-80" x1="931.78" y1="1289.18" x2="950.54" y2="1289.18" xlink:href="#linear-gradient-70"/><linearGradient id="linear-gradient-81" x1="1213.18" y1="1289.18" x2="1231.94" y2="1289.18" xlink:href="#linear-gradient-70"/><linearGradient id="linear-gradient-82" x1="963.05" y1="1289.18" x2="981.81" y2="1289.18" xlink:href="#linear-gradient-70"/><linearGradient id="linear-gradient-83" x1="1088.11" y1="1289.18" x2="1106.87" y2="1289.18" xlink:href="#linear-gradient-70"/><linearGradient id="linear-gradient-84" x1="994.31" y1="1289.18" x2="1013.07" y2="1289.18" xlink:href="#linear-gradient-70"/><linearGradient id="linear-gradient-85" x1="1025.58" y1="1289.18" x2="1044.34" y2="1289.18" xlink:href="#linear-gradient-70"/><linearGradient id="linear-gradient-86" x1="1244.44" y1="1289.18" x2="1254.01" y2="1289.18" xlink:href="#linear-gradient-70"/><linearGradient id="linear-gradient-87" x1="5269.51" y1="626.89" x2="5425.3" y2="626.89" gradientTransform="matrix(-1, 0, 0, 1, 5724.75, 499.3)" gradientUnits="userSpaceOnUse"><stop offset="0" stop-color="#53d6fd"/><stop offset="1" stop-color="#3840f5"/></linearGradient><linearGradient id="linear-gradient-88" x1="432.94" y1="611.24" x2="587.3" y2="611.24" gradientUnits="userSpaceOnUse"><stop offset="0" stop-color="#085fa2"/><stop offset="1" stop-color="#347aaf"/></linearGradient><linearGradient id="linear-gradient-89" x1="538.74" y1="934.91" x2="658.98" y2="934.91" xlink:href="#linear-gradient"/><linearGradient id="Degradado_sin_nombre_11-5" x1="1318.51" y1="1321.88" x2="1342.68" y2="1048.28" gradientTransform="matrix(1, 0, 0, 1, 0, 0)" xlink:href="#Degradado_sin_nombre_11"/><linearGradient id="Degradado_sin_nombre_11-6" x1="1096.83" y1="1471.02" x2="1773.29" y2="1471.02" gradientTransform="matrix(1, 0, 0, 1, 0, 0)" xlink:href="#Degradado_sin_nombre_11"/><linearGradient id="linear-gradient-90" x1="1262.99" y1="706.02" x2="1728.53" y2="706.02" gradientTransform="matrix(1, 0, 0, 1, 0, 0)" xlink:href="#linear-gradient-87"/><linearGradient id="linear-gradient-91" x1="1540.38" y1="826.88" x2="1561.73" y2="826.88" gradientUnits="userSpaceOnUse"><stop offset="0" stop-color="#14adee"/><stop offset="1" stop-color="#1a8dd1"/></linearGradient><linearGradient id="linear-gradient-92" x1="1350.04" y1="463.2" x2="1550.21" y2="463.2" xlink:href="#linear-gradient-3"/><linearGradient id="linear-gradient-93" x1="1287.54" y1="905.05" x2="1697.63" y2="905.05" xlink:href="#linear-gradient-3"/><linearGradient id="linear-gradient-94" x1="1573.95" y1="917.65" x2="1672.05" y2="917.65" xlink:href="#linear-gradient-3"/><linearGradient id="linear-gradient-95" x1="1422.07" y1="414.22" x2="1554.85" y2="414.22" gradientTransform="matrix(1, 0, 0, 1, 0, 0)" xlink:href="#linear-gradient-25"/><linearGradient id="linear-gradient-96" x1="1320.58" y1="755.41" x2="1373.94" y2="755.41" xlink:href="#linear-gradient-9"/><linearGradient id="linear-gradient-97" x1="1319.16" y1="821.1" x2="1374.81" y2="821.1" xlink:href="#linear-gradient-9"/><linearGradient id="linear-gradient-98" x1="1322.06" y1="691.86" x2="1373.09" y2="691.86" xlink:href="#linear-gradient-9"/><linearGradient id="linear-gradient-99" x1="1326" y1="514.38" x2="1370.82" y2="514.38" xlink:href="#linear-gradient-9"/><linearGradient id="linear-gradient-100" x1="1324.71" y1="571.34" x2="1371.57" y2="571.34" xlink:href="#linear-gradient-9"/><linearGradient id="linear-gradient-101" x1="1323.48" y1="630.49" x2="1372.28" y2="630.49" xlink:href="#linear-gradient-9"/><linearGradient id="linear-gradient-102" x1="1392.06" y1="1003.03" x2="1436.71" y2="1003.03" gradientUnits="userSpaceOnUse"><stop offset="0" stop-color="#a537d3"/><stop offset="1" stop-color="#ed497a"/></linearGradient><linearGradient id="linear-gradient-103" x1="1386.58" y1="1181.87" x2="1436.71" y2="1181.87" xlink:href="#linear-gradient-102"/><linearGradient id="linear-gradient-104" x1="1386.58" y1="1246.15" x2="1436.71" y2="1246.15" xlink:href="#linear-gradient-102"/><linearGradient id="linear-gradient-105" x1="1531.34" y1="854.62" x2="1672.09" y2="854.62" xlink:href="#linear-gradient-88"/><linearGradient id="linear-gradient-106" x1="1593.25" y1="1325.54" x2="1616.17" y2="1325.54" xlink:href="#linear-gradient-91"/><linearGradient id="linear-gradient-107" x1="1616.18" y1="1315.51" x2="1654.38" y2="1315.51" xlink:href="#linear-gradient-88"/><linearGradient id="linear-gradient-108" x1="1558.25" y1="816.2" x2="1599.83" y2="816.2" xlink:href="#linear-gradient-88"/><linearGradient id="linear-gradient-109" x1="1647.68" y1="1304.35" x2="1692.81" y2="1304.35" gradientTransform="matrix(1, 0, 0, 1, 0, 0)" xlink:href="#linear-gradient-25"/><linearGradient id="linear-gradient-110" x1="1589.71" y1="805.06" x2="1638.19" y2="805.06" gradientTransform="matrix(1, 0, 0, 1, 0, 0)" xlink:href="#linear-gradient-25"/><linearGradient id="linear-gradient-111" x1="1691.11" y1="1328.38" x2="1722.39" y2="1328.38" gradientUnits="userSpaceOnUse"><stop offset="0" stop-color="#166594"/><stop offset="1" stop-color="#0aadeb"/></linearGradient><linearGradient id="linear-gradient-112" x1="1633.19" y1="829.1" x2="1667.85" y2="829.1" xlink:href="#linear-gradient-111"/><linearGradient id="linear-gradient-113" x1="1570.16" y1="602.13" x2="1587.57" y2="602.13" gradientTransform="matrix(1, 0.07, -0.07, 1, 43.66, -103.94)" xlink:href="#linear-gradient-88"/><linearGradient id="linear-gradient-114" x1="1455.76" y1="1006.69" x2="1540.6" y2="1006.69" xlink:href="#linear-gradient-88"/><linearGradient id="linear-gradient-115" x1="1458.68" y1="1020.28" x2="1518.2" y2="1020.28" xlink:href="#linear-gradient-88"/><linearGradient id="linear-gradient-116" x1="1532.91" y1="1020.28" x2="1563.73" y2="1020.28" xlink:href="#linear-gradient-88"/><linearGradient id="linear-gradient-117" x1="1456.49" y1="1059.44" x2="1546.12" y2="1059.44" xlink:href="#linear-gradient-88"/><linearGradient id="linear-gradient-118" x1="1456.49" y1="1070.64" x2="1501.3" y2="1070.64" xlink:href="#linear-gradient-88"/><linearGradient id="linear-gradient-119" x1="1460.15" y1="1110.38" x2="1564.9" y2="1110.38" xlink:href="#linear-gradient-88"/><linearGradient id="linear-gradient-120" x1="1460.15" y1="1129.79" x2="1534.14" y2="1129.79" xlink:href="#linear-gradient-88"/><linearGradient id="linear-gradient-121" x1="1549.6" y1="1129.79" x2="1583.25" y2="1129.79" xlink:href="#linear-gradient-88"/><linearGradient id="linear-gradient-122" x1="1460.15" y1="1147.53" x2="1506.38" y2="1147.53" xlink:href="#linear-gradient-88"/><linearGradient id="linear-gradient-123" x1="1464.55" y1="1181.87" x2="1516.01" y2="1181.87" xlink:href="#linear-gradient-88"/><linearGradient id="linear-gradient-124" x1="1464.55" y1="1194.95" x2="1530.71" y2="1194.95" xlink:href="#linear-gradient-88"/><linearGradient id="linear-gradient-125" x1="1464.55" y1="1242.57" x2="1524.61" y2="1242.57" xlink:href="#linear-gradient-88"/><linearGradient id="linear-gradient-126" x1="1539.86" y1="1242.57" x2="1583.25" y2="1242.57" xlink:href="#linear-gradient-88"/><linearGradient id="linear-gradient-127" x1="1464.55" y1="1256.2" x2="1561.56" y2="1256.2" xlink:href="#linear-gradient-88"/><linearGradient id="linear-gradient-128" x1="1466.01" y1="1309.96" x2="1509.23" y2="1309.96" xlink:href="#linear-gradient-88"/><linearGradient id="linear-gradient-129" x1="1466.74" y1="1324.61" x2="1534.61" y2="1324.61" xlink:href="#linear-gradient-88"/><linearGradient id="linear-gradient-130" x1="1323.68" y1="895.88" x2="1476.67" y2="895.88" gradientTransform="translate(12.45 -19.17) rotate(0.79)" xlink:href="#linear-gradient-88"/><linearGradient id="linear-gradient-131" x1="1322.9" y1="910.03" x2="1493.36" y2="910.03" gradientTransform="translate(11.4 -17.41) rotate(0.71)" xlink:href="#linear-gradient-88"/><linearGradient id="linear-gradient-132" x1="1657.96" y1="1030.2" x2="1691.1" y2="1030.2" xlink:href="#linear-gradient-88"/><linearGradient id="linear-gradient-133" x1="1660.16" y1="1041.12" x2="1681.45" y2="1041.12" xlink:href="#linear-gradient-88"/><linearGradient id="linear-gradient-134" x1="1665.26" y1="1123.9" x2="1691.1" y2="1123.9" xlink:href="#linear-gradient-88"/><linearGradient id="linear-gradient-135" x1="1665.83" y1="1134.88" x2="1697.96" y2="1134.88" xlink:href="#linear-gradient-88"/></defs><title>abstract....</title><g class="cls-1"><g id="Layer_1" data-name="Layer 1"><rect class="cls-2" x="56.26" y="500.27" width="1920" height="1078.06"/><polygon class="cls-3" points="1466.71 557.81 1411.77 664.57 1411.77 910.66 1976.26 910.66 1976.26 557.81 1466.71 557.81"/><polygon class="cls-2" points="1976.26 1578.33 56.26 1578.33 56.26 910.69 1976.26 910.66 1976.26 1578.33"/><polygon class="cls-4" points="1976.26 1578.33 56.26 1578.33 56.26 910.69 1976.26 910.66 1976.26 1578.33"/><polygon class="cls-5" points="1329.27 993.44 908.49 1578.33 56.26 1578.33 56.26 993.44 1329.27 993.44"/><rect class="cls-2" x="444.29" y="500.27" width="967.48" height="493.16"/><rect class="cls-6" x="1066.76" y="500.27" width="262.51" height="493.16"/><rect class="cls-7" x="1329.27" y="993.44" width="82.5" height="358.9"/><polygon class="cls-8" points="1411.77 993.44 1329.27 993.44 1329.27 834.87 1411.77 692.35 1411.77 993.44"/><rect class="cls-9" x="444.29" y="601.21" width="116.3" height="392.23"/><rect class="cls-9" x="606.1" y="601.21" width="116.3" height="392.23"/><rect class="cls-9" x="767.9" y="601.21" width="116.3" height="392.23"/><rect class="cls-9" x="929.71" y="601.21" width="116.3" height="392.23"/><rect class="cls-2" x="443.34" y="727.72" width="602.66" height="16.57"/><rect class="cls-2" x="443.34" y="868.86" width="602.66" height="16.57"/><polygon class="cls-10" points="1046.01 993.44 444.29 601.21 1046.01 601.21 1046.01 993.44"/><rect class="cls-8" x="1466.71" y="557.81" width="509.55" height="285.02"/><rect class="cls-11" x="1466.71" y="1128.52" width="509.55" height="449.81"/><rect class="cls-2" x="56.26" y="1376.84" width="388.03" height="201.49"/><rect class="cls-9" x="56.26" y="500.27" width="388.03" height="876.57"/><polygon class="cls-12" points="444.29 886.19 56.26 1352.34 56.26 500.27 444.29 500.27 444.29 886.19"/><polygon class="cls-13" points="56.26 1377.52 56.26 1578.33 299.37 1578.33 444.29 1376.84 56.26 1377.52"/><polygon class="cls-14" points="1774.9 743.45 1718.91 757.84 1712.19 757.84 1712.19 746.55 1682.63 746.55 1682.63 757.84 1664.52 757.84 1664.52 842.84 1824.95 842.84 1824.95 743.45 1774.9 743.45"/><polygon class="cls-15" points="1774.9 743.45 1718.91 757.84 1712.19 757.84 1712.19 763.43 1721.49 763.43 1775.16 748.41 1802.98 748.41 1802.98 743.45 1774.9 743.45"/><rect class="cls-15" x="1682.63" y="746.55" width="5.8" height="11.28"/><rect class="cls-15" x="1664.52" y="757.84" width="7.83" height="85"/><rect class="cls-16" x="1798.22" y="557.81" width="178.04" height="285.02"/><rect class="cls-14" x="1798.22" y="557.81" width="51.93" height="285.02"/><rect class="cls-17" x="1798.22" y="574.15" width="25.97" height="16.88"/><rect class="cls-17" x="1798.22" y="608.63" width="25.97" height="16.88"/><rect class="cls-17" x="1798.22" y="643.11" width="25.97" height="16.88"/><rect class="cls-17" x="1798.22" y="677.59" width="25.97" height="16.88"/><rect class="cls-17" x="1798.22" y="712.07" width="25.97" height="16.88"/><rect class="cls-17" x="1798.22" y="746.55" width="25.97" height="16.88"/><rect class="cls-17" x="1798.22" y="781.03" width="25.97" height="16.88"/><rect class="cls-17" x="1798.22" y="815.51" width="25.97" height="16.88"/><rect class="cls-14" x="1874.25" y="574.15" width="102.01" height="16.88"/><rect class="cls-14" x="1874.25" y="608.63" width="102.01" height="16.88"/><rect class="cls-14" x="1874.25" y="643.11" width="102.01" height="16.88"/><rect class="cls-14" x="1874.25" y="677.59" width="102.01" height="16.88"/><rect class="cls-14" x="1874.25" y="712.07" width="102.01" height="16.88"/><rect class="cls-14" x="1874.25" y="746.55" width="102.01" height="16.88"/><rect class="cls-14" x="1874.25" y="781.03" width="102.01" height="16.88"/><rect class="cls-14" x="1874.25" y="815.51" width="102.01" height="16.88"/><rect class="cls-18" x="56.26" y="500.27" width="1920" height="1078.06"/><rect class="cls-19" x="56.26" y="500.27" width="1920" height="1078.06"/><path class="cls-20" d="M-56.19-499.22a.27.27,0,0,0-.07-.08h.06A.19.19,0,0,1-56.19-499.22Z" transform="translate(56.26 499.3)"/><path class="cls-21" d="M-56.19-499.22a.27.27,0,0,0-.07-.08h.06A.19.19,0,0,1-56.19-499.22Z" transform="translate(56.26 499.3)"/><rect class="cls-22" x="599.57" y="721.28" width="175.32" height="108.23" rx="8.79"/><path class="cls-23" d="M638.61,294.07l5.8-13.65a3.19,3.19,0,0,1,4.8-1.33l7.75,5.62a3.19,3.19,0,0,0,4.91-1.64l4.46-14.36a3.19,3.19,0,0,1,4.1-2.07l4.27,1.49a3.17,3.17,0,0,0,3.61-1.11l.68-.91a3.19,3.19,0,0,1,5.75,1.89v27.32a3.18,3.18,0,0,1-3.19,3.18h-40A3.19,3.19,0,0,1,638.61,294.07Z" transform="translate(56.26 499.3)"/><path class="cls-24" d="M559.59,265.34,562,300a6,6,0,0,0,5.88,5.57l119.28,1.95h.1a6,6,0,0,0,6-6V262.61a6,6,0,0,0-6.09-6l-121.7,2.31a6,6,0,0,0-5.86,6.4Zm2.41-3.68a4.81,4.81,0,0,1,3.46-1.57l121.71-2.3h.09a4.81,4.81,0,0,1,4.83,4.82v38.91a4.8,4.8,0,0,1-1.45,3.44,4.67,4.67,0,0,1-3.46,1.38L567.9,304.39a4.81,4.81,0,0,1-4.74-4.49l-2.42-34.65A4.77,4.77,0,0,1,562,261.66Z" transform="translate(56.26 499.3)"/><path class="cls-24" d="M618.78,285.48H575.67a2.93,2.93,0,0,1-2.53-1.93c-.26-1.93,1.58-2.48,2.53-2.48l43.11,1a1.73,1.73,0,0,1,1.72,1.73h0A1.72,1.72,0,0,1,618.78,285.48Z" transform="translate(56.26 499.3)"/><path class="cls-24" d="M607.58,277.38H575a2.24,2.24,0,0,1-1.91-1.55,1.77,1.77,0,0,1,1.91-2l32.54.77a1.34,1.34,0,0,1,1.3,1.39h0A1.34,1.34,0,0,1,607.58,277.38Z" transform="translate(56.26 499.3)"/><path class="cls-24" d="M607.58,293.64H575a2.24,2.24,0,0,1-1.91-1.55,1.77,1.77,0,0,1,1.91-2l32.54.77a1.34,1.34,0,0,1,1.3,1.39h0A1.34,1.34,0,0,1,607.58,293.64Z" transform="translate(56.26 499.3)"/><path class="cls-24" d="M607.17,238.69H564.06a3,3,0,0,1-2.54-1.93c-.26-1.93,1.59-2.48,2.53-2.48l43.12,1a1.72,1.72,0,0,1,1.72,1.72h0A1.73,1.73,0,0,1,607.17,238.69Z" transform="translate(56.26 499.3)"/><path class="cls-24" d="M596,246.85H563.43a2.24,2.24,0,0,1-1.91-1.55,1.77,1.77,0,0,1,1.91-2l32.54.77a1.34,1.34,0,0,1,1.3,1.38h0A1.35,1.35,0,0,1,596,246.85Z" transform="translate(56.26 499.3)"/><path class="cls-25" d="M1048.6,341.65l84.17-84.17a91.59,91.59,0,0,1,65.17-27h105.28v-1.73H1197.94a93.24,93.24,0,0,0-66.39,27.5l-84.17,84.17Z" transform="translate(56.26 499.3)"/><path class="cls-25" d="M1310.8,230.05c0-3.59-4-6.28-7.58-6.92-4.76-.87-6.5,2.9-6.5,6.49s2.91,7.48,6.5,7.48S1310.8,233.64,1310.8,230.05Z" transform="translate(56.26 499.3)"/><path class="cls-25" d="M1055,341c0-3.59-4-6.28-7.58-6.92-4.77-.87-6.5,2.91-6.5,6.5s2.91,7.47,6.5,7.47S1055,344.63,1055,341Z" transform="translate(56.26 499.3)"/><path class="cls-25" d="M924.16,258.16l1.54-.79-49.2-95.48a65.87,65.87,0,0,0-24.59-26.51,93.94,93.94,0,0,0-48.21-13.32H698.42v1.73H803.7A92.15,92.15,0,0,1,851,136.87,64.15,64.15,0,0,1,875,162.69Z" transform="translate(56.26 499.3)"/><path class="cls-25" d="M690.84,123.35c0-3.59,4-6.28,7.58-6.92,4.77-.87,6.5,2.91,6.5,6.5s-2.91,7.47-6.5,7.47S690.84,126.94,690.84,123.35Z" transform="translate(56.26 499.3)"/><path class="cls-25" d="M917.89,257.76c0-3.58,4.05-6.28,7.58-6.92,4.76-.86,6.5,2.91,6.5,6.5s-2.91,7.47-6.5,7.47S917.89,261.35,917.89,257.76Z" transform="translate(56.26 499.3)"/><path class="cls-26" d="M1221.92,339.5l-1.75-33.19a18.92,18.92,0,0,0-19.9-17.88l-26.43,1.42a19,19,0,0,1-18.59-11.93l-.1-.27c-.06-.15-.12-.3-.17-.45a13.81,13.81,0,0,1-.54-1.73,18.87,18.87,0,0,1,5.46-18.68l18.26-16.85a18.91,18.91,0,0,0,1.08-26.72l-3.53-3.83-19-20.59a18.89,18.89,0,0,0-22.45-4,18.52,18.52,0,0,0-4.27,3l-18.27,16.88a18.86,18.86,0,0,1-21.16,3.07l-.24-.12a18.9,18.9,0,0,1-10.41-19.47l3.51-26.24a18.89,18.89,0,0,0-16.24-21.25l-2.64-.35-30.29-4.06A18.92,18.92,0,0,0,1013,152.44L1008.91,183a18.89,18.89,0,0,1-8.78,13.59,17.26,17.26,0,0,1-1.52.84,17.78,17.78,0,0,1-3.24,1.24c-1.71.48-3.4,1-5.09,1.53a18.9,18.9,0,0,1-19.63-5.28L951,173.67a18.89,18.89,0,0,0-26.71-1.07l-24.4,22.51a18.92,18.92,0,0,0-1.07,26.73l14.59,15.79a19,19,0,0,1,2.35,22.51,132.79,132.79,0,0,0-8.25,16.76A19,19,0,0,1,891,288.76l-27.29,1.47a18.91,18.91,0,0,0-17.87,19.89l1.78,33.17a18.91,18.91,0,0,0,19.89,17.88l19.28-1a18.9,18.9,0,0,1,18.79,12.47q.81,2.23,1.69,4.44a18.77,18.77,0,0,1-4.79,20.72L889.6,409.68a18.91,18.91,0,0,0-1.06,26.71l22.52,24.4a18.92,18.92,0,0,0,26.73,1.07L950.67,450a18.79,18.79,0,0,1,21.06-3.13q2.14,1.07,4.32,2.05A18.89,18.89,0,0,1,987,468.59l-2.57,19.15A18.92,18.92,0,0,0,1000.63,509l32.91,4.4a18.91,18.91,0,0,0,21.25-16.23l3.63-27.06a19,19,0,0,1,13.16-15.55,133.06,133.06,0,0,0,17.35-6.86,19,19,0,0,1,22.24,4.14l14.59,15.8a18.91,18.91,0,0,0,26.72,1.06l24.41-22.53a18.92,18.92,0,0,0,1.06-26.73l-19.63-21.24a18.91,18.91,0,0,1-3.7-20q1-2.44,1.93-4.94a18.82,18.82,0,0,1,16.7-12.26l30.79-1.63A18.92,18.92,0,0,0,1221.92,339.5Zm-138.54,42.63c-28.33,26.17-70.74,22-96.88-6.37s-34.45-79-6.12-105.14c12.23-11.3,28.49-18.64,45.11-21q.91-.14,1.83-.24c21.27-2.6,42.92,2.91,57.35,18.53,12.6,13.64,19.33,34.55,19.77,55.5,0,.81,0,1.61,0,2.42C1104.42,347.55,1097.55,369,1083.38,382.13Z" transform="translate(56.26 499.3)"/><rect class="cls-22" x="1168.36" y="67.22" width="184.48" height="113.88" rx="8.79" transform="translate(2577.46 747.62) rotate(-180)"/><path class="cls-27" d="M1252.56,143.07l-6.1-14.36a3.35,3.35,0,0,0-5-1.4l-8.16,5.91a3.35,3.35,0,0,1-5.17-1.72l-4.69-15.12a3.36,3.36,0,0,0-4.31-2.17l-4.49,1.57a3.36,3.36,0,0,1-3.81-1.17l-.71-1a3.35,3.35,0,0,0-6,2v28.74a3.35,3.35,0,0,0,3.36,3.36h42.1A3.36,3.36,0,0,0,1252.56,143.07Z" transform="translate(56.26 499.3)"/><path class="cls-24" d="M1334.07,108.14a6.22,6.22,0,0,0-4.52-2l-128.06-2.42a6.28,6.28,0,0,0-6.42,6.29v40.94a6.3,6.3,0,0,0,6.3,6.3h.11L1327,155.15a6.25,6.25,0,0,0,6.18-5.86l2.54-36.45A6.17,6.17,0,0,0,1334.07,108.14Zm.42,4.61L1332,149.21a5,5,0,0,1-5,4.72L1201.45,156a5.09,5.09,0,0,1-5.16-5.08V110a5.07,5.07,0,0,1,5.08-5.08h.1l128.06,2.43a5.1,5.1,0,0,1,3.65,1.65A5,5,0,0,1,1334.49,112.75Z" transform="translate(56.26 499.3)"/><path class="cls-24" d="M1273.43,134h45.36a3.08,3.08,0,0,0,2.66-2c.28-2-1.66-2.61-2.66-2.61l-45.36,1a1.82,1.82,0,0,0-1.82,1.81h0A1.83,1.83,0,0,0,1273.43,134Z" transform="translate(56.26 499.3)"/><path class="cls-24" d="M1285.21,125.51h34.24a2.36,2.36,0,0,0,2-1.63,1.86,1.86,0,0,0-2-2.09l-34.24.81a1.42,1.42,0,0,0-1.37,1.45h0A1.42,1.42,0,0,0,1285.21,125.51Z" transform="translate(56.26 499.3)"/><path class="cls-24" d="M1285.21,142.62h34.24a2.36,2.36,0,0,0,2-1.63,1.87,1.87,0,0,0-2-2.1l-34.24.82a1.42,1.42,0,0,0-1.37,1.45h0A1.42,1.42,0,0,0,1285.21,142.62Z" transform="translate(56.26 499.3)"/><path class="cls-24" d="M1285.65,84.8H1331a3.08,3.08,0,0,0,2.66-2c.28-2-1.66-2.61-2.66-2.61l-45.36,1a1.82,1.82,0,0,0-1.82,1.81h0A1.83,1.83,0,0,0,1285.65,84.8Z" transform="translate(56.26 499.3)"/><path class="cls-24" d="M1297.43,93.38h34.24a2.36,2.36,0,0,0,2-1.63,1.86,1.86,0,0,0-2-2.09l-34.24.81a1.42,1.42,0,0,0-1.37,1.46h0A1.42,1.42,0,0,0,1297.43,93.38Z" transform="translate(56.26 499.3)"/><rect class="cls-28" x="756.45" y="169.86" width="110.53" height="68.23" rx="4.69" transform="translate(1679.69 907.25) rotate(-180)"/><path class="cls-24" d="M778.8,206.75h68.67c1.51,0,3.84-1.58,4-3.08.41-3.07-2.53-3.95-4-3.95l-68.67,1.53a2.76,2.76,0,0,0-2.75,2.75h0A2.76,2.76,0,0,0,778.8,206.75Z" transform="translate(56.26 499.3)"/><path class="cls-24" d="M796.64,193.85h51.83a3.59,3.59,0,0,0,3-2.47,2.84,2.84,0,0,0-3-3.18l-51.83,1.23a2.15,2.15,0,0,0-2.08,2.21h0A2.16,2.16,0,0,0,796.64,193.85Z" transform="translate(56.26 499.3)"/><path class="cls-24" d="M796.64,219.75h51.83a3.59,3.59,0,0,0,3-2.47,2.84,2.84,0,0,0-3-3.18l-51.83,1.23a2.15,2.15,0,0,0-2.08,2.21h0A2.16,2.16,0,0,0,796.64,219.75Z" transform="translate(56.26 499.3)"/><g class="cls-29"><g class="cls-30"><rect class="cls-31" x="985.4" y="546.44" width="117.23" height="72.37" rx="8.79"/></g><path class="cls-22" d="M992.86,95.34l3.88-9.12a2.13,2.13,0,0,1,3.21-.9l5.18,3.76a2.13,2.13,0,0,0,3.29-1.09l3-9.61a2.13,2.13,0,0,1,2.74-1.38l2.86,1a2.12,2.12,0,0,0,2.41-.74l.46-.62a2.13,2.13,0,0,1,3.84,1.27V96.17a2.13,2.13,0,0,1-2.13,2.13H994.83A2.14,2.14,0,0,1,992.86,95.34Z" transform="translate(56.26 499.3)"/><g class="cls-32"><path class="cls-33" d="M1025.4,104.32h-.07L945.57,103a4,4,0,0,1-3.93-3.72L940,76.12a4,4,0,0,1,1-3,4,4,0,0,1,2.88-1.29l81.38-1.54a3.94,3.94,0,0,1,2.88,1.14,4,4,0,0,1,1.2,2.86v26a4,4,0,0,1-4,4Zm0-33.24h-.07L944,72.62a3.23,3.23,0,0,0-3.16,3.45l1.62,23.17a3.2,3.2,0,0,0,3.16,3l79.76,1.31a3.23,3.23,0,0,0,3.28-3.23v-26a3.23,3.23,0,0,0-3.22-3.23Z" transform="translate(56.26 499.3)"/></g><path class="cls-24" d="M979.6,89.6H950.78a2,2,0,0,1-1.69-1.29c-.18-1.29,1-1.66,1.69-1.66l28.82.64a1.16,1.16,0,0,1,1.16,1.15h0A1.16,1.16,0,0,1,979.6,89.6Z" transform="translate(56.26 499.3)"/><path class="cls-24" d="M972.12,84.18H950.36a1.5,1.5,0,0,1-1.28-1,1.19,1.19,0,0,1,1.28-1.34l21.76.52a.9.9,0,0,1,.87.92h0A.9.9,0,0,1,972.12,84.18Z" transform="translate(56.26 499.3)"/><path class="cls-24" d="M972.12,95.05H950.36a1.5,1.5,0,0,1-1.28-1,1.19,1.19,0,0,1,1.28-1.34l21.76.52a.9.9,0,0,1,.87.93h0A.9.9,0,0,1,972.12,95.05Z" transform="translate(56.26 499.3)"/><path class="cls-34" d="M971.84,58.31H943a2,2,0,0,1-1.7-1.29c-.17-1.29,1.06-1.66,1.69-1.66l28.83.64A1.16,1.16,0,0,1,973,57.15h0A1.16,1.16,0,0,1,971.84,58.31Z" transform="translate(56.26 499.3)"/><path class="cls-34" d="M964.35,63.76H942.6a1.5,1.5,0,0,1-1.28-1,1.18,1.18,0,0,1,1.27-1.33l21.76.51a.9.9,0,0,1,.87.93h0A.9.9,0,0,1,964.35,63.76Z" transform="translate(56.26 499.3)"/></g><path class="cls-35" d="M656.08,356.3s-109.08-43-147.43,72.91C562,446.51,620.44,452.05,656.08,356.3Z" transform="translate(56.26 499.3)"/><circle class="cls-22" cx="1538.44" cy="798.18" r="160.17"/><path class="cls-36" d="M1636.14,343c-125.39,89-221.6,35.06-244.94-18.44-17-39-21.65-117,7.27-162.29A160.18,160.18,0,1,0,1636.14,343Z" transform="translate(56.26 499.3)"/><path class="cls-37" d="M1483.45,296.52l-49.66-49.11c-2.18-2.19-5.18-2-6.66.35h0c-1.48,2.39-.9,6.13,1.28,8.32l49.65,49.11c2.19,2.19,5.19,2,6.67-.36S1485.63,298.71,1483.45,296.52Z" transform="translate(56.26 499.3)"/><path class="cls-38" d="M1572.33,248.75a5.34,5.34,0,0,0-7-2.8l-93.54,39.87a5.32,5.32,0,0,0,4.17,9.78l93.54-39.87A5.35,5.35,0,0,0,1572.33,248.75Z" transform="translate(56.26 499.3)"/><path class="cls-39" d="M1482.18,138.7a159.7,159.7,0,0,0-64,13.33,160.18,160.18,0,0,1,109.75,300.35,160.18,160.18,0,0,0-45.76-313.68Z" transform="translate(56.26 499.3)"/><path class="cls-40" d="M1486.83,297.29l-36.89-54.92a5.35,5.35,0,0,0-7.37-1.5h0a5.34,5.34,0,0,0-1.49,7.37L1478,303.16a5.32,5.32,0,1,0,8.87-5.87Z" transform="translate(56.26 499.3)"/><path class="cls-41" d="M1577.27,244.69a5.33,5.33,0,0,0-7.26-1.95l-88,50.84a5.32,5.32,0,0,0,5.31,9.21L1575.33,252A5.32,5.32,0,0,0,1577.27,244.69Z" transform="translate(56.26 499.3)"/><path class="cls-42" d="M1493.81,298.87a11.63,11.63,0,1,1-11.63-11.63A11.62,11.62,0,0,1,1493.81,298.87Z" transform="translate(56.26 499.3)"/><path class="cls-43" d="M1476.45,303.5c-2.46-3.29-3-10.31.76-15.13a11.62,11.62,0,1,0,14.66,16.93C1486,307.21,1479.05,307,1476.45,303.5Z" transform="translate(56.26 499.3)"/><path class="cls-44" d="M1482.18,464.7c-91.43,0-165.82-74.39-165.82-165.83s74.39-165.82,165.82-165.82S1648,207.44,1648,298.87,1573.62,464.7,1482.18,464.7Zm0-320.35c-85.2,0-154.52,69.32-154.52,154.52S1397,453.4,1482.18,453.4s154.52-69.32,154.52-154.53S1567.39,144.35,1482.18,144.35Z" transform="translate(56.26 499.3)"/><path class="cls-45" d="M1383.31,180.24a154.35,154.35,0,0,0-61.46,123.26c0,85.2,69.32,154.52,154.52,154.52a153.81,153.81,0,0,0,98.88-35.89,153.72,153.72,0,0,1-93.07,31.27c-85.2,0-154.52-69.32-154.52-154.53A154.24,154.24,0,0,1,1383.31,180.24Z" transform="translate(56.26 499.3)"/><path class="cls-46" d="M1482.18,133.05a165,165,0,0,0-106.06,38.48,164.92,164.92,0,0,1,100.25-33.85c91.43,0,165.82,74.38,165.82,165.82a165.54,165.54,0,0,1-59.76,127.35,165.64,165.64,0,0,0,65.58-132C1648,207.44,1573.62,133.05,1482.18,133.05Z" transform="translate(56.26 499.3)"/><path class="cls-47" d="M1488.17,298.87a6,6,0,1,1-6-6A6,6,0,0,1,1488.17,298.87Z" transform="translate(56.26 499.3)"/><path class="cls-48" d="M1488.17,158.3a6,6,0,1,1-6-6A6,6,0,0,1,1488.17,158.3Z" transform="translate(56.26 499.3)"/><path class="cls-47" d="M1488.17,442.07a6,6,0,1,1-6-6A6,6,0,0,1,1488.17,442.07Z" transform="translate(56.26 499.3)"/><path class="cls-49" d="M1488.17,298.87a6,6,0,1,1-6-6A6,6,0,0,1,1488.17,298.87Z" transform="translate(56.26 499.3)"/><circle class="cls-50" cx="1680.73" cy="798.18" r="5.98"/><circle class="cls-51" cx="1395.64" cy="798.18" r="5.98"/><ellipse class="cls-52" cx="790.94" cy="1421.14" rx="401.88" ry="10.03"/><path class="cls-53" d="M1130.85,921.75c0,3.27-141.64,5.91-316.37,5.91S498.11,925,498.11,921.75s141.65-5.91,316.37-5.91S1130.85,918.48,1130.85,921.75Z" transform="translate(56.26 499.3)"/><path class="cls-54" d="M1023,832.55H877.86s9.28,62.31-62.31,62.31h269.77C1013.73,894.86,1023,832.55,1023,832.55Z" transform="translate(56.26 499.3)"/><path class="cls-55" d="M1052.21,894.86c-35.39-12.11-41.1-42.28-40.65-62.31H877.86s9.28,62.31-62.31,62.31h236.66Z" transform="translate(56.26 499.3)"/><path class="cls-56" d="M1013.15,851.17h0a83.13,83.13,0,0,1-1.59-18.62H877.86s4,27.14-13.8,45.6Z" transform="translate(56.26 499.3)"/><path class="cls-57" d="M1355.61,282.58H545.26a29.15,29.15,0,0,0-29,29.06V822.12a29.11,29.11,0,0,0,17.65,26.68l.82.35.56.21.46.17.68.22.57.19.78.22.7.18c.55.14,1.11.26,1.67.36l.59.1.45.07.16,0,.49.07.57.06,1.21.1.52,0,.49,0h811a28.77,28.77,0,0,0,18.09-6.4l.29-.23.48-.41.25-.21.33-.3.33-.3.37-.35.59-.58.39-.41c.34-.36.66-.72,1-1.09l.51-.62c.5-.62,1-1.26,1.43-1.93.12-.17.24-.35.35-.53l0,0,.24-.39.25-.39a1.62,1.62,0,0,1,.1-.18c.24-.39.47-.8.69-1.22l.16-.3v0l.19-.38,0,0c.07-.14.13-.28.2-.41a1.22,1.22,0,0,1,.07-.17l.12-.26c.08-.16.15-.33.22-.5.23-.53.45-1.07.65-1.62s.35-1,.51-1.55l.22-.79c0-.18.1-.36.14-.55v0c0-.16.07-.31.1-.47s.11-.43.15-.65c.1-.52.2-1,.27-1.56,0-.18.05-.37.07-.56v0c0-.13,0-.27,0-.41a.15.15,0,0,0,0-.07,5.61,5.61,0,0,0,.06-.59c0-.21,0-.42,0-.63l0-.47c0-.11,0-.23,0-.35s0-.22,0-.33,0-.51,0-.76V311.64A29.15,29.15,0,0,0,1355.61,282.58ZM730,370.11a6.89,6.89,0,0,0-.29,1.13c-.51.05-7.51.78-38.22,7.33a15.44,15.44,0,0,0-3.27,1.14,117.1,117.1,0,0,1,1.73,14.78c.69,9.65,1.11,22.45,1.11,36.49,0,5.79-.07,11.37-.21,16.6l.38-1.17s6.58,38.48,8.21,64.3q-12.06-4.17-26.53-9.42l3.91-20.52-.11,0-.58-.08-.71-.11-1.28-.22-.66-.12h-.05l-.91-.17c-4.37-.87-9.46-2.18-14.11-3.48l-.73-.21-2.12-.6-.69-.2c-.91-.26-1.79-.52-2.62-.78l-.31-.09-.22-.06-.39-.12-.59-.18-.57-.17-.57-.18-.46-.14-.55-.17-.49-.15-.35-.11c-2.16-.67-3.48-1.1-3.48-1.1s14.38-52,30.72-81.07a21.33,21.33,0,0,1,3.08-4.08l-21.15-13.06c1.9-2.58,3.91-5.09,6-7.51h68A35.51,35.51,0,0,1,730,370.11Z" transform="translate(56.26 499.3)"/><path class="cls-56" d="M1338.19,729.89v94.3L1022.61,839.6l-10.9.53h0l-133.83,6.54h0l-92.2,4.5H544.58l-.49,0-.52,0-1.21-.1-.57-.06-.49-.07-.16,0-.45-.07-.59-.1c-.56-.1-1.12-.22-1.67-.36l-.7-.18-.78-.22-.57-.19-.68-.22-.46-.17-.56-.21-.82-.35a28.89,28.89,0,0,1-5.42-3.07c0-5.57.15-12.64.46-21.54,1-30.2,4.14-389,4.14-444s2.08-63.28,25.81-66.66h0l76.31,47.11,4.21,2.6.56.35,4.78,2.95,12.17,7.51,21.15,13.06a21.33,21.33,0,0,0-3.08,4.08c-16.34,29-30.72,81.07-30.72,81.07s1.32.43,3.48,1.1l.35.11.49.15.55.17.46.14.57.18.57.17.59.18.39.12.22.06.31.09c.83.26,1.71.52,2.62.78l.69.2,2.12.6.73.21c4.65,1.3,9.74,2.61,14.11,3.48l.91.17h.05l.66.12,1.28.22.71.11.58.08.11,0-3.91,20.52q14.49,5.23,26.53,9.42c-1.63-25.82-8.21-64.3-8.21-64.3l-.38,1.17c.14-5.23.21-10.81.21-16.6,0-14-.42-26.84-1.11-36.49l71.25,44,3.23,2,6,3.73,17.73,10.95,6.07,3.75h0l4.93,3h0l50.87,31.41,2.95,1.82,3,1.83,22.56,13.92h0l23.71,14.64,5.14,3.17,19.93,12.31,294,135.14Z" transform="translate(56.26 499.3)"/><path class="cls-58" d="M1332,311.64h-763a27,27,0,0,0-10.07,1.93A27.45,27.45,0,0,0,541.57,339V796.84a27.43,27.43,0,0,0,27.35,27.35h763a27.34,27.34,0,0,0,27.35-27.35V339A27.43,27.43,0,0,0,1332,311.64ZM730,370.11a6.89,6.89,0,0,0-.29,1.13c-.51.05-7.51.78-38.22,7.33a15.44,15.44,0,0,0-3.27,1.14,117.1,117.1,0,0,1,1.73,14.78c.69,9.65,1.11,22.45,1.11,36.49,0,5.79-.07,11.37-.21,16.6l.38-1.17s6.58,38.48,8.21,64.3q-12.06-4.17-26.53-9.42l3.91-20.52-.11,0-.58-.08-.71-.11-1.28-.22-.66-.12h-.05l-.91-.17c-4.37-.87-9.46-2.18-14.11-3.48l-.73-.21-2.12-.6-.69-.2c-.91-.26-1.79-.52-2.62-.78l-.31-.09-.22-.06-.39-.12-.59-.18-.57-.17-.57-.18-.46-.14-.55-.17-.49-.15-.35-.11c-2.16-.67-3.48-1.1-3.48-1.1s14.38-52,30.72-81.07a21.33,21.33,0,0,1,3.08-4.08l-21.15-13.06c1.9-2.58,3.91-5.09,6-7.51h68A35.51,35.51,0,0,1,730,370.11Z" transform="translate(56.26 499.3)"/><circle class="cls-22" cx="1006.7" cy="796.6" r="4.22"/><path class="cls-59" d="M1130.45,923.91h-360a14.57,14.57,0,0,1-14.53-14.52h0a14.57,14.57,0,0,1,14.53-14.53h360A14.57,14.57,0,0,1,1145,909.39h0A14.57,14.57,0,0,1,1130.45,923.91Z" transform="translate(56.26 499.3)"/><path class="cls-60" d="M1355.6,282.58H862c107.91,5.31,462.67,4.09,491.81,8.49,28.9,4.37,23.06,26.25,21.79,264.51-.82,153.17.94,243.61-1.85,289.2a29,29,0,0,0,11-22.66V311.64A29.15,29.15,0,0,0,1355.6,282.58Z" transform="translate(56.26 499.3)"/><path class="cls-60" d="M1118.73,902.47c15.63-.48,20.81,8.43,19.29,19.28a14.5,14.5,0,0,0-7.57-26.89h-266S1094.67,903.2,1118.73,902.47Z" transform="translate(56.26 499.3)"/><path class="cls-56" d="M765.71,895.66a14.52,14.52,0,0,0,4.71,28.25h360a14.41,14.41,0,0,0,4.93-.88l1.18-1.19s-342-3.63-360.21-4.67S758.2,901.59,765.71,895.66Z" transform="translate(56.26 499.3)"/><path class="cls-61" d="M1327.21,820a27,27,0,0,0,26.91-26.9V342.83a27,27,0,0,0-26.91-26.9H796.91c204.84,42.38,467,214.37,432.21,504.11Z" transform="translate(56.26 499.3)"/><path class="cls-22" d="M605.65,363.63V611H853V363.63ZM731,366.58a35.51,35.51,0,0,1-1,3.53,6.89,6.89,0,0,0-.29,1.13c-.51.05-7.51.78-38.22,7.33a15.44,15.44,0,0,0-3.27,1.14,117.1,117.1,0,0,1,1.73,14.78c.69,9.65,1.11,22.45,1.11,36.49,0,5.79-.07,11.37-.21,16.6l.38-1.17s6.58,38.48,8.21,64.3q-12.06-4.17-26.53-9.42l3.91-20.52-.11,0-.58-.08-.71-.11-1.28-.22-.66-.12h-.05l-.91-.17c-4.37-.87-9.46-2.18-14.11-3.48l-.73-.21-2.12-.6-.69-.2c-.91-.26-1.79-.52-2.62-.78l-.31-.09-.22-.06-.39-.12-.59-.18-.57-.17-.57-.18-.46-.14-.55-.17-.49-.15-.35-.11c-2.16-.67-3.48-1.1-3.48-1.1s14.38-52,30.72-81.07a21.33,21.33,0,0,1,3.08-4.08l-21.15-13.06c1.9-2.58,3.91-5.09,6-7.51Z" transform="translate(56.26 499.3)"/><path class="cls-62" d="M853,544.15V611H605.65V363.63h59.87c-.89,1-1.76,1.95-2.61,2.95-2.09,2.42-4.1,4.93-6,7.51A130.38,130.38,0,0,0,642.58,504.2h0c1.38,3.09,2.86,6.12,4.47,9.08a130.94,130.94,0,0,0,40.47,45.19h0l1,.68,2,1.31q2.94,1.93,6,3.69a129.08,129.08,0,0,0,55.09,17.08q5,.39,10.08.39c1.83,0,3.65,0,5.46-.11,2-.09,4-.21,6-.39.92-.08,1.83-.17,2.74-.27l2.07-.24,1-.14a128.73,128.73,0,0,0,41.82-13A130.48,130.48,0,0,0,850.07,547C851.07,546,852.05,545.1,853,544.15Z" transform="translate(56.26 499.3)"/><path class="cls-63" d="M602.7,360.68V614H856V360.68ZM850.07,608.06H608.6V366.58H850.07Z" transform="translate(56.26 499.3)"/><rect class="cls-64" x="1041.26" y="885.76" width="25.46" height="22.83"/><ellipse class="cls-65" cx="359.83" cy="1047.11" rx="18.52" ry="11.47"/><path class="cls-66" d="M303.57,304a83.52,83.52,0,0,1,54.7,146.63c-.06.07-13,14.1-15.19,28.8l-.38,9a12.6,12.6,0,0,1-3.28,7.94,7.14,7.14,0,0,1-.54.56H268.26c-.19-.18-.37-.36-.55-.56a12.64,12.64,0,0,1-3.27-7.94l-.39-9c-2.14-14.7-15.12-28.73-15.19-28.8A83.52,83.52,0,0,1,303.57,304Z" transform="translate(56.26 499.3)"/><path class="cls-67" d="M295.85,497h15.43a27.77,27.77,0,0,1,27.77,27.77v24.34a0,0,0,0,1,0,0h-71a0,0,0,0,1,0,0V524.74A27.77,27.77,0,0,1,295.85,497Z" transform="translate(663.4 1545.36) rotate(-180)"/><path class="cls-68" d="M282.63,451.42a83.57,83.57,0,0,0,67-133.55,83.52,83.52,0,0,1,8.66,132.8c-.06.07-13,14.1-15.19,28.8l-.38,9a12.6,12.6,0,0,1-3.28,7.94,7.14,7.14,0,0,1-.54.56H268.26c-.19-.18-.37-.36-.55-.56a12.64,12.64,0,0,1-3.27-7.94l-.39-9c-2.14-14.7-15.12-28.73-15.19-28.8a84.16,84.16,0,0,1-12.07-12.95A83.1,83.1,0,0,0,282.63,451.42Z" transform="translate(56.26 499.3)"/><g class="cls-69"><polygon class="cls-22" points="360.42 927.37 377.01 854.98 391.58 897.08 395.85 895.61 376.13 838.61 359.2 912.46 341.85 870.13 325.79 897.25 329.68 899.55 341.11 880.25 360.42 927.37"/></g><g class="cls-69"><path class="cls-70" d="M325.07,507.86l.4,0a3.82,3.82,0,0,0,4.19-3.41l11.61-112.07a3.82,3.82,0,0,0-3.41-4.19l-.39,0a3.8,3.8,0,0,0-4.19,3.4L321.67,503.66A3.83,3.83,0,0,0,325.07,507.86Z" transform="translate(56.26 499.3)"/><path class="cls-70" d="M281.82,507.88h0a4,4,0,0,1-4.41-3.59L265.85,392.62a4,4,0,0,1,3.58-4.41h0a4,4,0,0,1,4.41,3.58L285.4,503.47A4,4,0,0,1,281.82,507.88Z" transform="translate(56.26 499.3)"/></g><rect class="cls-65" x="265.05" y="512.72" width="77" height="7.86" rx="3.07" transform="translate(663.35 1532.61) rotate(180)"/><rect class="cls-65" x="269.14" y="530.35" width="68.82" height="7.86" rx="3.07" transform="translate(663.35 1567.86) rotate(-180)"/><path class="cls-71" d="M1774.2,363.42a9.25,9.25,0,0,1,.35-2.05c.62-1.67.28-2.63-1.49-3.39-3.71-1.58-7.3-3.41-10.9-5.23a2.08,2.08,0,0,1-1-1.48c-.09-1-.13-2-.18-3-.11-2.47-.18-5-.5-7.42a2.61,2.61,0,0,1,1.62-3.12c3.8-2.16,7.53-4.47,11.67-6.93-.38-.82-.75-1.63-1.13-2.43-2.12-4.59-4.22-9.11-6.32-13.67l-.3.09-2,.68c-3.73,1.35-7.49,2.67-11.19,4.08a2,2,0,0,1-1.06.17,2.48,2.48,0,0,1-1.37-.79c-2.19-2.05-4.51-4-6.75-6l-1.73-1.55a2.42,2.42,0,0,1-.56-1.91c.7-3.18,1.61-6.31,2.38-9.48.64-2.55.86-3.51,0-4.36l-15.46-5.51c-.86.12-1.18.87-2,2.71-1.5,3.28-3,6.58-4.62,9.82a2.37,2.37,0,0,1-1.68,1c-1.4.08-2.81.13-4.2.18-2.14.07-4.28.13-6.41.27a2.21,2.21,0,0,1-1.66-.34,2.47,2.47,0,0,1-.57-.72c-2.26-4-4.64-8-7-11.95-4.15.75-13.58,5.11-16.3,7.55,1.5,4.14,3,8.39,4.62,12.59a2.23,2.23,0,0,1-.69,2.94,92.18,92.18,0,0,0-7,7.55c-.9,1.05-1.58,1.6-3.08,1.18-3.86-1.12-7.81-2-11.69-3.05-1.06-.29-1.71-.13-2.1.9-1.08,3-2.14,5.89-3.21,8.82-.69,1.91-1.39,3.79-2.07,5.7-.43,1.18.54,1.42,1.24,1.76,3.54,1.7,7,3.43,10.62,5a2.52,2.52,0,0,1,1.73,2.81c-.08,3.94.11,7.89.2,12.13-3.92,2.32-8.25,4.88-12.72,7.5,0,0,0,0,0,0a52,52,0,0,0,6,13.58c.53.86,1.08,1.69,1.65,2.53l2.54-.91,11.08-4c2.34,2.05,4.53,4,6.72,5.91,1.13,1,2.27,1.95,3.44,2.89a2,2,0,0,1,.81,2.48c-.09.36-.21.73-.28,1.09-.94,3.48-1.77,7-2.71,10.45-.22.83-.28,1.44.61,1.91a50,50,0,0,0,14.27,5.36,1.59,1.59,0,0,0,2-1.09c1.51-3.18,3-6.32,4.55-9.49.26-.52.51-1.06.75-1.58a1.84,1.84,0,0,1,2-1.29c1.18,0,2.35-.08,3.52-.14,2.72-.13,5.43-.33,8.13-.58a1.55,1.55,0,0,1,1.79,1c1,1.6,1.91,3.21,2.86,4.84,1.27,2.1,2.54,4.23,3.83,6.38.14.26.31.52.46.78.29-.08.58-.18.88-.28a61,61,0,0,0,6.35-2.33,48.59,48.59,0,0,0,6.42-3.29c.81-.47,1.59-1,2.38-1.52-.29-.81-.59-1.62-.87-2.43-1.43-4-2.85-7.95-4.23-11.76,2.3-2.51,4.56-5,6.86-7.5l3.14-3.4c3.42.87,7.37,1.9,11.33,2.84,2.45.61,2.79,1,3.49-.24.23-.39.47-1,.84-1.74.17-.31.43-.55.62-.84C1772.11,369.23,1773.16,366.32,1774.2,363.42ZM1702,326.15a25.92,25.92,0,0,1,6.17-3.06,26.57,26.57,0,0,1,32.54,36.75,21.76,21.76,0,0,1-1.57,2.75,26,26,0,0,1-7.47,7.63,26.51,26.51,0,0,1-23.74,3,25.84,25.84,0,0,1-4.45-2.06,26.55,26.55,0,0,1-1.48-45Z" transform="translate(56.26 499.3)"/><path class="cls-72" d="M184.38,387.05a1.73,1.73,0,0,0,2.51-.35c3.2-3.15,6.47-6.23,9.67-9.39a2,2,0,0,1,2.5-.59c3.15,1.08,6.35,2,9.54,2.95l2.74.75a1.72,1.72,0,0,1,1.48,1.66c.89,5,1.83,10,2.79,15.11A62.43,62.43,0,0,0,235,395.63c.05-5.63.1-11.22.16-16.56l14.45-7.43c3.2,2.2,6.87,4.76,10.58,7.27,3.06,2,2.42,2.34,5.25-.41a7.5,7.5,0,0,1,.95-.64c2.18-2.59,4.34-5.19,6.52-7.79a10.89,10.89,0,0,1,1.14-2c1.28-1.49,1.29-2.61-.24-4.07-2.24-2.13-4.39-4.36-6.52-6.61-.91-1-1.82-1.94-2.72-2.92a2.32,2.32,0,0,1-.45-1.92c1.05-3.67,2.42-7.27,3.27-11,.42-1.82,1.19-2.33,2.87-2.6,4.74-.77,9.45-1.74,14.66-2.71-.52-6.56-1-12.95-1.55-19.41-1.23,0-1.95-.07-2.64-.08-4.37,0-8.73-.11-13.09-.07a2.19,2.19,0,0,1-2.27-1.55c-1.87-3.7-4-7.29-5.88-11a2.64,2.64,0,0,1,.15-2.18c2-3,4.06-5.92,6.06-8.87,1.63-2.39,2.23-3.29,1.73-4.49l-13.84-11.57c-.93-.18-1.55.45-3.11,2-2,2-4,4.06-6.08,6.05-.8.77-1.6,1.56-2.41,2.31a2.54,2.54,0,0,1-2.12.41c-3.73-1.13-7.38-2.49-11.12-3.57-1.14-.34-1.69-.7-1.89-2-.79-5-1.74-10-2.61-14.94-4.56-.8-15.95.09-19.66,1.57,0,4.85-.13,9.78,0,14.73,0,1.53-.36,2.14-1.85,2.78a98.72,98.72,0,0,0-10,5.12c-1.31.75-2.23,1.06-3.6,0-3.57-2.63-7.29-5-10.91-7.6-1-.69-1.73-.77-2.49.14-3.68,4.31-7.32,8.63-11,12.94-.9,1.06,0,1.68.62,2.3,3,3.09,6,6.2,9,9.19a2.79,2.79,0,0,1,.71,3.56l-.24.64c-1.46,3.84-2.72,7.77-4.16,11.95l-16,2.88a58.09,58.09,0,0,0,1.77,19.55c5.52,0,11,.11,15.9.16,2.47,4.54,4.67,8.78,7.12,12.9a2.17,2.17,0,0,1-.12,2.87c-2.53,3.56-4.95,7.2-7.47,10.77-.54.76-.84,1.37-.09,2.2A54.54,54.54,0,0,0,184.38,387.05Zm8.49-66.34a29.31,29.31,0,0,1,4.29-6.89,29.67,29.67,0,0,1,6.14-5.54,29.2,29.2,0,0,1,42.29,37.48,28.24,28.24,0,0,1-3.62,5.48,29.13,29.13,0,0,1-26.13,10.26,29.42,29.42,0,0,1-20.52-12.7A29.25,29.25,0,0,1,192.87,320.71Z" transform="translate(56.26 499.3)"/><path class="cls-73" d="M1678.79,221.59a3,3,0,0,1,.27-2.49c2.82-4,6-7.73,8.57-11.84,1.26-2,2.41-2.32,4.53-1.94,6,1.08,12.1,1.91,18.77,2.93,2.11-8.11,4.2-16,6.29-24-1.46-.56-2.28-.9-3.15-1.21-5.22-1.88-10.44-3.82-15.68-5.59-1.51-.52-1.88-1.3-2.08-2.83-.7-5.23-1.72-10.41-2.44-15.64a2.09,2.09,0,0,1,0-.56h0a3.49,3.49,0,0,1,1.07-2c3.6-2.79,7.37-5.38,11-8.09a18.79,18.79,0,0,0,3.46-2.93,2.57,2.57,0,0,0,.5-1.75l-6.88-11.52-4.48-7.51-.41-.68c-1-.62-2.06-.11-4.59,1.12-1,.5-2,1-3,1.49-3.54,1.71-7.1,3.4-10.7,5a3.19,3.19,0,0,1-2.73-.39c-4-2.93-7.8-6.1-11.83-9-1.24-.89-1.74-1.55-1.45-3.14,1.15-6.37,2.12-12.75,3.16-19.06-5.14-2.89-19.22-6.61-24.31-6.38-2.07,5.8-4.27,11.68-6.23,17.66-.61,1.86-1.33,2.43-3.39,2.57a128.85,128.85,0,0,0-14.22,1.94c-1.9.33-3.15.33-4.36-1.48-3.18-4.65-6.65-9.12-9.9-13.72-.87-1.23-1.76-1.65-3.08-.87l-18.62,10.94c-1.53.87-.67,2-.23,3,2.29,5,4.54,10,7,14.86.92,1.84.73,3-.63,4.58-3.59,4.19-6.91,8.6-10.6,13.27-6.31-1-13.26-2.12-20.39-3.24a73.81,73.81,0,0,0-6.11,24.22l19,6.85c1.07,6.52,1.92,12.55,3.12,18.53a2.78,2.78,0,0,1-1.35,3.41c-4.54,3.2-9,6.55-13.48,9.78-1,.71-1.61,1.31-1.06,2.61a76,76,0,0,0,8.29,15.47c.72,1,1.5,2,2.32,3a2.21,2.21,0,0,0,3.16.62c5.18-2.43,10.41-4.75,15.57-7.21a2.6,2.6,0,0,1,3.26.35c4.28,3.37,8.71,6.55,13.21,9.61A2.18,2.18,0,0,1,1605,233c-1,6.38-2,12.77-3,19.31a79,79,0,0,0,23.9,6.3l7.15-19.86c6.81-1,13.43-1.87,20.48-2.83l.93,1.27c2.1,2.88,4.41,6,6.78,9.25l2,2.66c2.8,3.74,1.91,3.8,6.46,1.72a6.74,6.74,0,0,1,1.42-.37c3.7-2.2,7.41-4.41,11.1-6.64a16.37,16.37,0,0,1,2.22-1.88c2.14-1.23,2.65-2.59,1.41-5C1683.31,231.93,1681.05,226.76,1678.79,221.59Zm-25.74-13.41a37.17,37.17,0,0,1-48.79-9.62c-.38-.5-.73-1-1.09-1.52s-.73-1.13-1.08-1.72a37.15,37.15,0,0,1,11.16-49.88c.56-.38,1.13-.73,1.7-1.08a37.17,37.17,0,0,1,49.87,11.13c.36.56.72,1.11,1.06,1.66l0,.07a37,37,0,0,1,5.08,15.39,37.55,37.55,0,0,1-8.65,27.72A36.92,36.92,0,0,1,1653.05,208.18Z" transform="translate(56.26 499.3)"/><path class="cls-74" d="M313.48,287.42a45.37,45.37,0,0,0-10,1.12,12.18,12.18,0,0,1,5.1-1.12Z" transform="translate(56.26 499.3)"/><polygon class="cls-75" points="224.07 1468.74 201.42 1475.4 437.85 1532.16 631.74 1469.27 601.03 1463.47 224.07 1468.74"/><polygon class="cls-76" points="224.07 1421.06 399.36 1374.44 601.03 1415.98 431.75 1466.51 224.07 1421.06"/><path class="cls-77" d="M474.42,902.18c-3.58,4.41-7.43,8.6-11.24,12.65-31.59,33.51-82.1,39.33-125.42,32.13a331.78,331.78,0,0,1-41.5-9.81c-14.13-4.28-28.05-9.2-42-14-6.27-2.16-12.58-4.24-18.84-6.47-3.88-1.38-16.37-8.55-20.12-7.55l-47.49,12.63,207.68,45.45,169.28-50.53Z" transform="translate(56.26 499.3)"/><path class="cls-78" d="M167.81,921.76l207.68,45.45s-26.27,14.93,0,51L167.81,969.43S152.24,951.43,167.81,921.76Z" transform="translate(56.26 499.3)"/><path class="cls-79" d="M544.77,916.68V964.2l-169.28,54s-28.66-26.67,0-51Z" transform="translate(56.26 499.3)"/><path class="cls-80" d="M544.77,916.68v5.08L356.29,979.4s3.36-7.46,19.2-12.19Z" transform="translate(56.26 499.3)"/><path class="cls-80" d="M544.77,959.09v5.08l-169.28,54s-10.1-3.1-5.43-5.88Z" transform="translate(56.26 499.3)"/><path class="cls-81" d="M343.1,875.14s85.75,33.13,32.39,92.07l169.28-50.53Z" transform="translate(56.26 499.3)"/><polygon class="cls-82" points="224.07 1365.67 399.36 1319.05 601.03 1360.59 431.75 1411.12 224.07 1365.67"/><path class="cls-77" d="M474.42,846.8c-3.58,4.4-7.43,8.59-11.24,12.64-31.59,33.51-82.1,39.32-125.42,32.13a331.78,331.78,0,0,1-41.5-9.81c-14.13-4.28-28.05-9.2-42-14-6.27-2.16-12.58-4.24-18.84-6.47-3.88-1.38-16.37-8.55-20.12-7.55l-47.49,12.63,207.68,45.45,169.28-50.53Z" transform="translate(56.26 499.3)"/><path class="cls-83" d="M167.81,866.37l207.68,45.45s-26.27,14.93,0,51L167.81,914S152.24,896.05,167.81,866.37Z" transform="translate(56.26 499.3)"/><path class="cls-79" d="M544.77,861.29v47.52l-169.28,54s-28.66-26.67,0-51Z" transform="translate(56.26 499.3)"/><path class="cls-84" d="M544.77,861.29v5.08L356.29,924s3.36-7.46,19.2-12.19Z" transform="translate(56.26 499.3)"/><path class="cls-85" d="M544.77,903.7v5.08l-169.28,54s-10.1-3.1-5.43-5.87Z" transform="translate(56.26 499.3)"/><path class="cls-81" d="M343.1,819.75s85.75,33.14,32.39,92.07l169.28-50.53Z" transform="translate(56.26 499.3)"/><polygon class="cls-86" points="251.84 1324.65 400.82 1285.03 572.23 1320.33 428.35 1363.28 251.84 1324.65"/><path class="cls-77" d="M456.17,808.71c-3,3.75-6.31,7.31-9.55,10.75-26.85,28.48-69.78,33.42-106.6,27.31a282.35,282.35,0,0,1-35.27-8.34c-12-3.63-23.84-7.82-35.69-11.9-5.34-1.84-10.7-3.61-16-5.5-3.3-1.18-13.92-7.26-17.1-6.41l-40.36,10.73L372.09,864,516,821Z" transform="translate(56.26 499.3)"/><path class="cls-87" d="M195.58,825.35,372.09,864s-22.32,12.69,0,43.31L195.58,865.87S182.35,850.57,195.58,825.35Z" transform="translate(56.26 499.3)"/><path class="cls-79" d="M516,821v40.39L372.09,907.29s-24.36-22.67,0-43.31Z" transform="translate(56.26 499.3)"/><path class="cls-88" d="M516,821v4.32l-160.19,49S358.62,868,372.09,864Z" transform="translate(56.26 499.3)"/><path class="cls-88" d="M516,857.08v4.32L372.09,907.29s-8.58-2.63-4.62-5Z" transform="translate(56.26 499.3)"/><path class="cls-81" d="M344.56,785.73s72.88,28.16,27.53,78.25L516,821Z" transform="translate(56.26 499.3)"/><polygon class="cls-89" points="576.92 1268.14 427.32 1234.28 258.21 1275.74 402.86 1313.11 576.92 1268.14"/><path class="cls-77" d="M261,762c3.15,3.61,6.54,7,9.89,10.32,27.75,27.33,70.62,30.65,107,23.2a281.27,281.27,0,0,0,34.76-9.6c11.8-4.06,23.41-8.65,35-13.16,5.24-2,10.5-4,15.72-6.06,3.24-1.29,13.57-7.74,16.76-7l40.53,9.17-174.06,45L202,776.44Z" transform="translate(56.26 499.3)"/><path class="cls-90" d="M520.66,768.84l-174.06,45s22.66,11.79,1.6,43.07l174-47.74S534.76,793.43,520.66,768.84Z" transform="translate(56.26 499.3)"/><path class="cls-79" d="M202,776.44l1.5,40.16L348.2,856.87s23.38-23.44-1.6-43.07Z" transform="translate(56.26 499.3)"/><path class="cls-91" d="M202,776.44l.16,4.3L363.2,823.5s-3.07-6.2-16.6-9.7Z" transform="translate(56.26 499.3)"/><path class="cls-92" d="M203.29,812.28l.16,4.3L348.2,856.87s8.44-2.94,4.41-5.13Z" transform="translate(56.26 499.3)"/><path class="cls-93" d="M371.06,735s-71.41,30.71-24.46,78.83L202,776.44Z" transform="translate(56.26 499.3)"/><polygon class="cls-94" points="246.92 1218.53 368.14 1202.27 508.73 1244.28 339.62 1269.29 246.92 1218.53"/><path class="cls-77" d="M382.12,724a36.21,36.21,0,0,1-7.17,8.7c-6.81,6-15.73,10.16-25.21,13.22-20,6.45-42.85,7.92-64.18,5.63-17.58-1.89-34.94-8-50.1-15C225,731.75,213.29,725.44,206.93,717l-16.27,2.19L283.36,770l169.11-25Z" transform="translate(56.26 499.3)"/><path class="cls-95" d="M190.66,719.23s-22.61,8.11-11.9,25.74l107.59,61.86s-18.34-15.32-3-36.84Z" transform="translate(56.26 499.3)"/><path class="cls-79" d="M452.47,745,283.36,770s-19.81,19.22,3,36.84l166.12-27.4Z" transform="translate(56.26 499.3)"/><path class="cls-96" d="M278.52,774.59l174-25.29V745L283.36,770S278.52,771.47,278.52,774.59Z" transform="translate(56.26 499.3)"/><path class="cls-97" d="M286.35,806.83l166.12-26.6V775.9L281.64,803S281.27,803.78,286.35,806.83Z" transform="translate(56.26 499.3)"/><path class="cls-81" d="M311.88,703l140.59,42L283.36,770S397.4,749.76,311.88,703Z" transform="translate(56.26 499.3)"/><rect class="cls-98" x="594.1" y="805.28" width="821" height="518" rx="17.3"/><g class="cls-99"><rect class="cls-100" x="1242.62" y="329.45" width="93.75" height="22.83" transform="translate(2635.24 1181.04) rotate(-180)"/><rect class="cls-101" x="1188.93" y="877.21" width="15.63" height="4.78"/><rect class="cls-102" x="1216.7" y="877.21" width="58.16" height="4.78"/><rect class="cls-103" x="1288.46" y="877.21" width="47.84" height="4.78"/><rect class="cls-104" x="1356.75" y="877.21" width="35.88" height="4.78"/><rect class="cls-105" x="1157.1" y="895.02" width="50.35" height="4.78"/><rect class="cls-106" x="1223.65" y="895.02" width="64.81" height="4.78"/><rect class="cls-107" x="1295.41" y="895.02" width="25.46" height="4.78"/><rect class="cls-108" x="1338.81" y="895.02" width="26.91" height="4.78"/><rect class="cls-109" x="1379.32" y="895.02" width="13.31" height="4.78"/><rect class="cls-110" x="1229.05" y="912.83" width="102.46" height="4.78"/><rect class="cls-111" x="1368.9" y="912.83" width="23.73" height="4.78"/><rect class="cls-112" x="1198.19" y="930.64" width="30.86" height="4.78"/><rect class="cls-113" x="1245.78" y="930.64" width="34.19" height="4.78"/><rect class="cls-114" x="1298.88" y="930.64" width="93.75" height="4.78"/><rect class="cls-115" x="1320.87" y="948.45" width="21.41" height="4.78"/><rect class="cls-116" x="1356.75" y="948.45" width="35.88" height="4.78"/><rect class="cls-117" x="1279.97" y="966.26" width="37.15" height="4.78"/><rect class="cls-118" x="1336.3" y="966.26" width="32.6" height="4.78"/><rect class="cls-119" x="1379.32" y="966.26" width="13.31" height="4.78"/><rect class="cls-120" x="1249.11" y="984.08" width="78.12" height="4.78"/><rect class="cls-121" x="1342.28" y="984.08" width="50.35" height="4.78"/></g><path class="cls-122" d="M599,344.65a12.2,12.2,0,1,1-12.19-12.19A12.2,12.2,0,0,1,599,344.65Z" transform="translate(56.26 499.3)"/><path class="cls-123" d="M636.83,344.65a12.2,12.2,0,1,1-12.2-12.19A12.2,12.2,0,0,1,636.83,344.65Z" transform="translate(56.26 499.3)"/><path class="cls-124" d="M674.63,344.65a12.2,12.2,0,1,1-12.19-12.19A12.2,12.2,0,0,1,674.63,344.65Z" transform="translate(56.26 499.3)"/><path class="cls-125" d="M712.44,344.65a12.2,12.2,0,1,1-12.2-12.19A12.2,12.2,0,0,1,712.44,344.65Z" transform="translate(56.26 499.3)"/><path class="cls-126" d="M750.24,344.65A12.2,12.2,0,1,1,738,332.46,12.2,12.2,0,0,1,750.24,344.65Z" transform="translate(56.26 499.3)"/><rect class="cls-127" x="837.98" y="1288.05" width="18.76" height="2.25"/><rect class="cls-128" x="869.25" y="1288.05" width="18.76" height="2.25"/><rect class="cls-129" x="806.72" y="1288.05" width="18.76" height="2.25"/><rect class="cls-130" x="744.19" y="1288.05" width="18.76" height="2.25"/><rect class="cls-131" x="775.45" y="1288.05" width="18.76" height="2.25"/><rect class="cls-132" x="900.52" y="1288.05" width="18.76" height="2.25"/><rect class="cls-133" x="1056.85" y="1288.05" width="18.76" height="2.25"/><rect class="cls-134" x="1119.38" y="1288.05" width="18.76" height="2.25"/><rect class="cls-135" x="1150.64" y="1288.05" width="18.76" height="2.25"/><rect class="cls-136" x="1181.91" y="1288.05" width="18.76" height="2.25"/><rect class="cls-137" x="931.78" y="1288.05" width="18.76" height="2.25"/><rect class="cls-138" x="1213.18" y="1288.05" width="18.76" height="2.25"/><rect class="cls-139" x="963.05" y="1288.05" width="18.76" height="2.25"/><rect class="cls-140" x="1088.11" y="1288.05" width="18.76" height="2.25"/><rect class="cls-141" x="994.31" y="1288.05" width="18.76" height="2.25"/><rect class="cls-142" x="1025.58" y="1288.05" width="18.76" height="2.25"/><rect class="cls-143" x="1244.44" y="1288.05" width="9.57" height="2.25"/><g class="cls-69"><path class="cls-144" d="M306.05,1078.11H448.63a6.6,6.6,0,0,1,6.6,6.6v83a6.61,6.61,0,0,1-6.61,6.61H306.05a6.6,6.6,0,0,1-6.6-6.6v-83a6.61,6.61,0,0,1,6.61-6.61Z"/><path class="cls-145" d="M367.47,630.8H270.69c-2.13,0-5.41-2.22-5.69-4.34-.59-4.33,3.55-5.56,5.68-5.56l96.79,2.15a3.88,3.88,0,0,1,3.87,3.87h0A3.89,3.89,0,0,1,367.47,630.8Z" transform="translate(56.26 499.3)"/><path class="cls-145" d="M342.33,612.61H269.28c-1.61,0-4.08-1.78-4.3-3.48-.44-3.48,2.68-4.47,4.29-4.47l73.06,1.73a3,3,0,0,1,2.92,3.11h0A3,3,0,0,1,342.33,612.61Z" transform="translate(56.26 499.3)"/><path class="cls-145" d="M342.33,649.12H269.28c-1.61,0-4.08-1.79-4.3-3.48-.44-3.48,2.68-4.48,4.29-4.48l73.06,1.73a3,3,0,0,1,2.92,3.11h0A3,3,0,0,1,342.33,649.12Z" transform="translate(56.26 499.3)"/></g><path class="cls-146" d="M585.31,578.75c-2.78,15.2-5.59,83.85-13.1,159.07-1.89.31-3.94.6-6.09.85-14.45,1.69-33.92,1.8-50.09,1.27h-.13c-1.66-.05-3.33-.11-5-.19h-.25c-1.64-.06-3.28-.15-4.91-.23h-.29l-4.87-.28h-.25l-3.15-.2c-.59,0-1.18-.07-1.77-.12-26.28-1.78-49.67-4.93-58.61-6.21l-3.86-.57c13-44.58,1.28-149.1,8-183.12,4.88-24.62,21.08-53,29.66-66.73l-5.32,12.89s0,.39.66,1.07c2.29,2.37,12.46,8.27,57.7,13a161.31,161.31,0,0,0,24.07.43c7.64-.37,14.64-1.1,19.77-1.74h0l.37-.06h0l9.44,1.58,3-15.33.55-2.77C584.05,508.32,590.57,550,585.31,578.75Z" transform="translate(56.26 499.3)"/><path class="cls-147" d="M580.37,494.12l-3,15.33-9.44-1.58h0l-.37.06h0c-5.13.64-12.13,1.37-19.77,1.74l1.42-4.92,7.28-25.23,14.94,5.64,3.2,1.21,4.86,1.83S579.81,490.37,580.37,494.12Z" transform="translate(56.26 499.3)"/><path class="cls-147" d="M598.81,1026.65l-78.45-1.27s-3.46-1.42-6.49-7.09c-1.17-2.2-.9-5.4,0-8.86.13-.53.27-1.07.43-1.61.1-.35.2-.69.31-1,.22-.74.46-1.48.7-2.22s.59-1.74.89-2.58l.12-.36q.35-.95.66-1.86a42.16,42.16,0,0,0,1.69-5.57,45.91,45.91,0,0,0,.68-6.17c.14-2.43.19-5.17.19-8,0,0-16.14-161.05-14.84-180.9s11.56-53,11.56-53l-.18-6.1c16.17.53,35.64.42,50.09-1.27C556.33,840.54,546,955.39,544.89,967.25c.73,9.2,2.27,20.75,5.5,24.35a54.14,54.14,0,0,0,11.2,9.93h0c1.55.94,5.83,3.67,7,4.24,18,8.74,22.58,11.48,28.22,15.64C600.26,1024,603.08,1026.72,598.81,1026.65Z" transform="translate(56.26 499.3)"/><path class="cls-148" d="M497.18,739l-1.33,3.91L408.76,956.54a122.37,122.37,0,0,0-4.28,27.64,75.46,75.46,0,0,1-3.59,20c-.19.58-.38,1.14-.58,1.69s-.35,1-.54,1.46-.27.69-.4,1-.18.46-.28.69c-.16.39-.33.77-.49,1.14l-.06.14c-.13.29-.26.58-.4.86-5.42,11.11-18,17-29.85,13.37-4.1-1.27-2.18-1.26-4-5.19-3.42-7.43-6-20.78-1.79-30.12.15-.31.3-.63.46-.94,3.06-6,7.67-10.13,10.21-13.43,4.17-5.44,7.38-17.12,9.43-26.56h0s13.55-90,17.44-121.18,29.49-68.43,36.24-92.56q.27-.95.51-1.92c8.94,1.28,32.33,4.43,58.61,6.21C496,738.94,496.59,739,497.18,739Z" transform="translate(56.26 499.3)"/><path class="cls-148" d="M575,463.62l-1.21,7.1-.15.85-2.31,13.59-3.85,22.66,0,.11c-5.13.64-12.13,1.37-19.77,1.74a161.31,161.31,0,0,1-24.07-.43c-45.24-4.75-55.41-10.65-57.7-13,6.48-11.85,11.78-19.84,11.78-19.84l7.57-1L556,466.11h0l17.58-2.31Z" transform="translate(56.26 499.3)"/><path class="cls-149" d="M400.9,1004.21c-18.85,3.45-31.39-7.6-37.92-15.88-4.79,9.38-7.13,23.36-3.6,31.06,3.1,6.78,12.17,6.58,19.31,6.85,7.55.28,13.39-3.92,17.14-10.51A63.63,63.63,0,0,0,400.9,1004.21Z" transform="translate(56.26 499.3)"/><path class="cls-149" d="M561.6,1001.53c-20.75,5.34-36.09,1.71-44.67-1.76-2.21,6.29-5.14,14.17-3.59,18.72,1.91,5.57,4.62,6.83,7,6.89,18.95.5,69.42,1.18,83.87,1.37a2.37,2.37,0,0,0,1.83-3.89C602.48,1018.57,563.14,1002.48,561.6,1001.53Z" transform="translate(56.26 499.3)"/><path class="cls-150" d="M580.92,491.35l-.55,2.77-3,15.33-9.44-1.58h0l-.37.06h0c-5.13.64-12.13,1.37-19.77,1.74a161.31,161.31,0,0,1-24.07-.43c-45.24-4.75-55.41-10.65-57.7-13-.65-.68-.66-1.07-.66-1.07l5.32-12.89h0c3.26-5.23,5.41-8.35,5.41-8.35l9.69-1.22,64-8.06h0l23.88-3,3.63-.46-1.91,10.79-1.16,6.56h0l-.74,4.17,1,.17,5.06.91S580,486.56,580.92,491.35Z" transform="translate(56.26 499.3)"/><path class="cls-151" d="M604.71,186.09c0-.05,0-.1,0-.15-.21-1.71-.45-3.41-.72-5.11a128.38,128.38,0,0,0-10.5-34.61c-.18-.41-.38-.83-.58-1.24C584,126.5,562,116,542,116c-24.82,0-41.19,12.73-54.33,30.24-7.82,10.43-14.5,22.52-21.13,34.61-10.81,19.7-21.49,39.35-36.82,51.62-2.93,2.35-5.94,4.59-9,6.79q-2.16,1.56-4.33,3.09l-.58.42-5,3.51a194.71,194.71,0,0,0-19.05,14.87,73,73,0,0,0-12.08,14.19c-1.28,2-2.44,4-3.51,6a74.45,74.45,0,0,0-3.51,7.8c-7.66,20-6.77,42.95,0,64.34,1,3.28,2.21,6.53,3.51,9.72,1.08,2.65,2.25,5.27,3.51,7.84a118.76,118.76,0,0,0,28,37.25,114.06,114.06,0,0,0,11.6,8.86c2,1.34,4.06,2.63,6.17,3.86,18.89,11,41.39,17.18,62.69,14.21,1.14-.16,2.28-.34,3.42-.55a69.67,69.67,0,0,0,21-7.49l1.27-.73c17.11-9.86,30.16-25.79,39.52-43.21q2.76-5.14,5.28-10.51c2-4.25,3.92-8.6,5.74-13,.5-1.21,1-2.42,1.48-3.64h0c2.31-5.73,4.49-11.53,6.59-17.37,1.11-3,2.19-6.12,3.27-9.18,3.28-9.38,6.44-18.75,9.71-27.86q1-3,2.09-5.92.88-2.53,1.75-5.1a355.43,355.43,0,0,0,12.18-44.39c.24-1.17.46-2.34.67-3.51s.42-2.34.62-3.51a214.38,214.38,0,0,0,2.9-26.89A161.84,161.84,0,0,0,604.71,186.09ZM456.28,406.71l4.65-24.45-.12,0-.7-.09-.85-.13-1.52-.26-.79-.14h-.05l-1.09-.21c-5.2-1-11.26-2.6-16.8-4.14l-.87-.25-2.53-.72-.82-.24-3.12-.92-.37-.11-.26-.08-.46-.14-.7-.21-.68-.21-.68-.21L428,374l-.65-.2-.58-.18-.42-.13c-2.57-.8-4.15-1.31-4.15-1.31s17.13-62,36.59-96.56a25.76,25.76,0,0,1,3.67-4.86l-25.19-15.55q3.4-4.61,7.15-9h81a38.9,38.9,0,0,1-1.14,4.21,9.68,9.68,0,0,0-.35,1.34c-.6.06-8.94.94-45.51,8.74a18.34,18.34,0,0,0-3.9,1.35,139.06,139.06,0,0,1,2.07,17.61c.81,11.5,1.31,26.74,1.31,43.46,0,6.9-.08,13.54-.24,19.77l.44-1.39s7.84,45.82,9.79,76.58C478.29,414.62,467.79,410.86,456.28,406.71Z" transform="translate(56.26 499.3)"/><path class="cls-151" d="M525.41,246.26a38.9,38.9,0,0,1-1.14,4.21,9.68,9.68,0,0,0-.35,1.34c-.6.06-8.94.94-45.51,8.74a18.34,18.34,0,0,0-3.9,1.35,34.47,34.47,0,0,0-3.85,2.11,43,43,0,0,0-8.24,6.75l-25.19-15.55q3.4-4.61,7.15-9Z" transform="translate(56.26 499.3)"/><path class="cls-151" d="M456.28,406.71l4.65-24.45-.12,0a31.64,31.64,0,0,0,4.2.34l4.21-13.27,8.43-26.57.44-1.39s7.84,45.82,9.79,76.58C478.29,414.62,467.79,410.86,456.28,406.71Z" transform="translate(56.26 499.3)"/><path class="cls-147" d="M683.93,578s-3.84-4.12-5-5.59c-1.37-1.71-5.07-7.17-5.07-7.17s-12-19.58-10.45-20.33,5.5,1.5,6.67,2.46,2.63,2,3.8,2.92a3,3,0,0,0,4.16-.44c1.31-1.34-2.52-6.14-4.18-7.55C668.7,538,652.51,529,650.84,528c-2-1.21-16.43-38.9-22.42-51.44h0c-9.19-20.8-17.57-42.63-18.53-44.84L598.33,335.4l-37.57-9.77s11.32,107,12.51,112.32c.56,2.52,25.64,49.13,25.66,49.13,13.82,22.19,26.06,41.72,28.3,45.53,0,0,3.59,13.17,5.38,21.68s6.9,15.66,7.78,18a56.08,56.08,0,0,0,9.35,16.66c5.74,7.06,3.58-2.25,3.58-2.25s-8.25-15-6.94-15.42c1-.35,5,8.1,11.29,16,1.61,2,3.21,4,4.69,5.83,3.89,4.77,8,3.76,4.71-1.88a59.34,59.34,0,0,0-4.91-7.38c-1.89-2.3-2.89-5-4.18-7.19-2.57-4.31-4.51-7.42-4.27-7.43s.41-1.23,2.19.87c2.14,2.52,5.48,8.87,8.91,12.33,2,2,5.76,6.32,5.76,6.32s7,6.38,7.44,6.08c2.51-1.63-1.15-7.61-4.15-9.93-1.14-2.45-5.28-6.91-5.28-6.91s-6.33-10.9-4.78-11.82c1.27-.75,21.53,22.43,23.94,20.62C689.71,585.27,683.93,578,683.93,578Z" transform="translate(56.26 499.3)"/><path class="cls-152" d="M646.33,544s11,6.24,16.9,1.11a8.43,8.43,0,0,1-7,4.21C651.35,549.33,646.33,544,646.33,544Z" transform="translate(56.26 499.3)"/><path class="cls-149" d="M566.34,261.42s11.2,5.17,26.36,35.83c14.12,28.57,16.43,94.95,16.43,94.95s-22.46,7.14-35.36,4.68S566.34,261.42,566.34,261.42Z" transform="translate(56.26 499.3)"/><path class="cls-153" d="M598.78,331.74c-.09.69-.36,1.9-.78,3.57v0c-.89,3.58-2.45,9.3-4.41,16.42-2.06,7.51-4.55,16.59-7.11,26.42-1.61,6.17-3.25,12.64-4.83,19.2-2.15,8.93-4.18,18-5.89,26.78-.1.51-.2,1-.29,1.53a109.7,109.7,0,0,0-1.55,13.84c-.28,4.8-.4,10-.4,15.27,0,2.25,0,4.52.07,6.79,0,.75,0,1.48,0,2.22,0,2.34.11,4.64.2,6.92v.06c0,.27,0,.55,0,.82.1,2.34.19,4.64.3,6.87h0c.07,1.48.13,2.92.22,4.34h0c.06,1.2.13,2.38.2,3.53.37,6.38.77,11.79,1.07,15.43.25,3.1.42,4.9.42,4.9s-3.14.54-8.17,1.17h0l-.37.06h0c-5.13.64-12.13,1.37-19.77,1.74a161.31,161.31,0,0,1-24.07-.43c-45.24-4.75-55.41-10.65-57.7-13-.65-.68-.66-1.07-.66-1.07l5.32-12.89h0c.95-2.31,2-4.8,3.06-7.4h0c2.82-6.84,5.93-14.39,8.64-20.91,1.74-4.18,3.29-8,4.5-10.85a26.29,26.29,0,0,0,1.34-7.85,148.53,148.53,0,0,0-.29-17.28q-.18-2.88-.44-5.93c0-.49-.07-1-.12-1.52l0-.41c-.08-.89-.16-1.79-.25-2.69q-.21-2.36-.45-4.74c-.11-1-.21-2-.32-3.05-.92-8.62-2-17.46-3.19-25.58-.07-.51-.13-1-.21-1.51-.41-3-.82-5.88-1.24-8.59-.09-.66-.19-1.32-.28-2,0-.32-.1-.64-.15-1-.1-.65-.19-1.27-.29-1.89,0-.31-.09-.63-.13-.93-.1-.64-.19-1.27-.29-1.88-.06-.39-.13-.77-.18-1.15s-.14-.87-.2-1.29-.1-.62-.15-.91c-.19-1.28-.38-2.49-.56-3.59h0c-.12-.72-.23-1.4-.33-2q-.06-.41-.12-.78c-.05-.25-.09-.49-.12-.73-.07-.41-.14-.8-.2-1.17-.34-2.09-.54-3.26-.54-3.26l-.45,1.39c.16-6.23.25-12.88.25-19.77,0-16.72-.5-32-1.32-43.46a140.94,140.94,0,0,0-2.06-17.6l.88-.4.53-.2.28-.11c.47-.17.93-.32,1.36-.45.28-.08.57-.15.85-.21,36.57-7.79,44.91-8.67,45.52-8.73h0a205.36,205.36,0,0,1,29.22,4.05,27.73,27.73,0,0,1,3.51,1.1c3.39,1.29,6.74,3.09,9,4.1.22.11.45.22.69.36l0,0,.09.05c5.95,3.68,14.33,18.82,21.07,34.26S599.38,326.93,598.78,331.74Z" transform="translate(56.26 499.3)"/><path class="cls-154" d="M553.89,303.3c-21.31-5.2-32.27-39.69-30-51.49a9.68,9.68,0,0,1,.35-1.34,38.9,38.9,0,0,0,1.14-4.21c.25-1.1.47-2.28.68-3.51s.39-2.31.56-3.51c.65-4.57,1.16-9.55,1.53-14v0c0-.35.06-.68.08-1,.07-.87.14-1.72.2-2.52q0-.45.06-.87c.12-1.59.21-3,.28-4.23,0-.31,0-.6.05-.87,0-.09,0-.17,0-.26s0-.28,0-.42,0-.56.05-.8c0-.7.06-1.22.07-1.53,0-.05,0-.09,0-.13a1.23,1.23,0,0,1,0-.18L553.38,207l6.87-1.51s0,.18,0,.51c0,.57-.12,1.59-.22,3-.19,2.5-.46,6.17-.77,10.4-.06.87-.13,1.76-.19,2.67-.4,5.43-.84,11.53-1.23,17.16-.08,1.19-.16,2.37-.23,3.51s-.17,2.38-.24,3.51c-.31,4.71-.55,8.59-.64,10.71a15.46,15.46,0,0,0,0,1.71C559.45,273.47,573.88,308.19,553.89,303.3Z" transform="translate(56.26 499.3)"/><path class="cls-152" d="M558.77,221.73c1.73-8.79,3.36-16.08,3.36-16.08L529,212.4s-.25,5.69-.85,12.87C540.59,231,551.19,228.44,558.77,221.73Z" transform="translate(56.26 499.3)"/><path class="cls-154" d="M539,136.68a38,38,0,0,0-20.5,16.42c-7.49,12.8-11.23,49.54,16.36,65.22s47.17-9.44,46.34-32.94S573.8,130.79,539,136.68Z" transform="translate(56.26 499.3)"/><path class="cls-154" d="M583.65,177.43c-2,5.78-6.35,9.52-9.72,8.36s-4.48-6.79-2.48-12.58,6.35-9.52,9.71-8.36S585.64,171.64,583.65,177.43Z" transform="translate(56.26 499.3)"/><path class="cls-154" d="M516.42,185.47c2.24,6,.77,12.11-3.29,13.63S504,197,501.71,191s-.77-12.11,3.29-13.63S514.17,179.46,516.42,185.47Z" transform="translate(56.26 499.3)"/><polygon class="cls-155" points="658.98 880.66 656.35 893.93 656.35 893.94 647.9 936.55 647.9 936.56 642.66 962.97 642.66 962.98 640.96 971.59 637.18 990.65 636.63 993.43 633.59 1008.75 624.15 1007.17 624.14 1007.17 623.78 1007.12 605.41 1004.05 538.74 992.95 541.57 974.68 541.99 971.96 544.66 954.7 547.85 933.97 547.86 933.97 550.13 919.28 559.13 861.08 614.92 872.02 622.21 873.45 622.22 873.45 623.39 873.68 642.74 877.47 658.98 880.66"/><path class="cls-147" d="M592,455.79c-.32,3.74-1.06,9.19-3,12.7a7.7,7.7,0,0,1-2.18,2.59,12.22,12.22,0,0,1-2.09,1.21h0c-2.72,1.19-5.05.56-9.38-.38l-1.46-.31a.41.41,0,0,0-.16,0l-.66-.14c-3.3-.66-10-3.35-17-5.32h0c-2.12-.6-4.26-1.13-6.32-1.52h0c-1-.18-1.88-.32-2.79-.43-25.3-3.07-36.21-3.45-58.52-8.77-1.93-.45-3.94-.95-6.06-1.49-3.08-.78-6.38-1.65-9.94-2.63-12.62-3.44-24.59-6.95-34-10.21-10.64-3.7-17.93-7.07-19-9.66-.95-2.35-.83-7.6-.14-14.26.23-2.18.52-4.52.85-7h0c1.65-12,4.39-26.4,6.14-36.69l.42.13.58.18.65.2.56.17.68.21.68.21.7.21.46.14.26.08.37.11,3.12.92.82.24,2.53.72.87.25c5.54,1.54,11.6,3.11,16.8,4.14l1.09.21H457l.79.14,1.52.26.85.13.7.09.12,0-4.65,24.45c11.51,4.15,22,7.91,31.6,11.22l6,2q10.81,3.67,20,6.47c15.09,4.59,27.06,7.34,36.48,7.93a22,22,0,0,0,3.29-.18,28.79,28.79,0,0,1,5.29-4.5c1.59-1.08,7.17-2.83,12.72-4.4,1.39-.4,2.79-.78,4.12-1.14,4.81-1.3,8.74-2.27,8.74-2.27s7.65-.93,7.65,2.81-9.39,7.42-9.49,7.54c-.75.91-5.58,3.54-4.5,4,5.41,2.33,13.28.17,13.41.73,0,.09,0,.18.08.28C593.16,443.08,592.78,446.66,592,455.79Z" transform="translate(56.26 499.3)"/><path class="cls-151" d="M540,136.37s-6.47,38.15-18.68,44.15S513.49,204,513.49,204s-9.31-40.59.62-52.58S540,136.37,540,136.37Z" transform="translate(56.26 499.3)"/><path class="cls-22" d="M550.52,202.28l20.6-3.06s.69,7.89-8.33,9.5C551.79,210.68,550.52,202.28,550.52,202.28Z" transform="translate(56.26 499.3)"/><path class="cls-151" d="M548.29,164.06c-.1,1.88-4.95-.43-7.34.36-4.06,1.33-3.74,3.61-5.34,3.52-.64-2,1.45-5.18,5-6.21C545.86,160.21,548.29,164.06,548.29,164.06Z" transform="translate(56.26 499.3)"/><path class="cls-156" d="M542.43,173.44c.51,2.35,2,4,3.24,3.75s1.92-2.4,1.42-4.74-2-4-3.24-3.75S541.93,171.1,542.43,173.44Z" transform="translate(56.26 499.3)"/><path class="cls-156" d="M543.84,168.7a9.39,9.39,0,0,0-4.39,1.32,4.55,4.55,0,0,1,3.5.7Z" transform="translate(56.26 499.3)"/><path class="cls-151" d="M560.94,161.35c.86,1.67,4.34-2.43,6.84-2.69,4.24-.45,4.9,1.75,6.31,1-.23-2.09-3.44-4.13-7.1-3.61C561.58,156.83,560.94,161.35,560.94,161.35Z" transform="translate(56.26 499.3)"/><path class="cls-156" d="M570.13,167.5c.51,2.34-.13,4.47-1.41,4.75s-2.74-1.41-3.24-3.75.13-4.48,1.41-4.75S569.63,165.15,570.13,167.5Z" transform="translate(56.26 499.3)"/><path class="cls-156" d="M566.89,163.75a9.3,9.3,0,0,1,4.55-.59,4.53,4.53,0,0,0-2.91,2.06Z" transform="translate(56.26 499.3)"/><path class="cls-157" d="M565.31,192a2.5,2.5,0,0,0,1.31-1.21c1-1.58,1.64-3,1.71-3h0c-.23,0-2.57,2.92-3.13,3.25a3.36,3.36,0,0,1-1.71.21c-3-.07-5.17-.42-5.26-.32a9.64,9.64,0,0,0,2,.69,12.2,12.2,0,0,0,3.39.58A4.9,4.9,0,0,0,565.31,192Z" transform="translate(56.26 499.3)"/><path class="cls-149" d="M479.66,327.68c0,7.68-.09,15.08-.27,22L470,379.3l-4.69,14.78a38,38,0,0,1-4.69-.37l-.77-.11-.95-.15-1.69-.28-.88-.16h-.06l-1.21-.24c-5.79-1.15-12.55-2.89-18.72-4.61l-1-.28c-1-.26-1.91-.53-2.83-.8l-.91-.27c-1.2-.34-2.37-.69-3.47-1l-.41-.13-.29-.08-.52-.16-.78-.23-.76-.23c-.26-.08-.51-.15-.76-.24l-.61-.18-.73-.23-.65-.2-.47-.14c-2.86-.9-4.61-1.47-4.61-1.47s19.07-69,40.75-107.56a29.06,29.06,0,0,1,4.09-5.41,48,48,0,0,1,9.18-7.52,40,40,0,0,1,4.29-2.35,154.54,154.54,0,0,1,2.3,19.61C479.11,292.07,479.66,309.05,479.66,327.68Z" transform="translate(56.26 499.3)"/><polygon class="cls-158" points="1334.94 952.01 1289.47 1343.06 1343.8 1343.06 1351 952.67 1334.94 952.01"/><ellipse class="cls-159" cx="1435.06" cy="1471.02" rx="338.23" ry="18.95"/><path class="cls-160" d="M1720,844.33c-8.53-66.86-32-314.35-38.72-364.66s.09-48.19-45.34-48.46c-14.71-.09-46.68,0-83.22.09-1.75,0-3.53,0-5.31,0h-4.9c-27.45.09-56.72.21-82.73.34v0c-10.67,0-20.77.07-30,.12l-3.63,0h-.06c-3.6,0-7,0-10.33,0-21.53.12-35.5.18-35.5.18-54.07,1-83.38-4.84-95.22,4.23l0,0c-.07,0-.12.11-.18.16a16,16,0,0,0-1.31,1.14l-.67.72a13.6,13.6,0,0,0-2.59,4.39,21.79,21.79,0,0,0-.7,2.16c-.09.36-.18.72-.25,1.08a32.76,32.76,0,0,0-.51,3.56c0,.38-.07.78-.09,1.19,0,.65-.07,1.35-.07,2.07-.23,21.06-7.22,246.38-11.81,391.05-1.6,50.76-2.91,91.57-3.51,110.15-.18,5.43-.3,9-.34,10.28-.7,19.06,12.67,17.26,77.69,16.11s349.52-6.18,372.67-6.61a6.94,6.94,0,0,0,1-.07,6.58,6.58,0,0,0,.92-.13.29.29,0,0,0,.16,0,1.72,1.72,0,0,0,.18,0,3.69,3.69,0,0,0,.65-.18,9.68,9.68,0,0,0,2.43-1c.18-.13.39-.24.57-.36a14.28,14.28,0,0,0,1.28-1.05,13.11,13.11,0,0,0,2.16-2.61C1733.69,951.56,1727,899.59,1720,844.33Zm-158.24,9.57c-6.86.13-13,.24-17.9.36l-3.45-54.77h18.9Z" transform="translate(56.26 499.3)"/><path class="cls-161" d="M1446.93,467.83l12.81-36.18-44,.21c-1.37,3.65-3.41,8.45-5.06,9.57-2.75,1.86-115.93,11.94-115.93,11.94Z" transform="translate(56.26 499.3)"/><path class="cls-162" d="M1715.23,832.08c-8.2-64.41-30.77-302.78-37.27-351.22s.08-46.41-43.67-46.68c-15-.09-48.57,0-86.28.1l1.83,2.53s93.45.07,102.44,0,17.69-2.68,22.31,26.67c5.94,37.79,44,411.48,47.22,441.57,2.62,24.91,1.88,45.15-2,57.65C1730.76,947.13,1722.06,885.74,1715.23,832.08Z" transform="translate(56.26 499.3)"/><path class="cls-163" d="M1723.69,966.56c-2.33.06-385.45,8.65-420.16,7.45s-31.86-1.1-32.76-30.76,11.89-448.86,12.38-480c.3-18.95.27-24.23,1.9-27-4.26,3.24-6.28,8.39-6.37,16.48-.31,30.59-15,492.41-15.66,511.48s12.66,17.26,77.68,16.11l372.67-6.61C1718,973.61,1721.31,971.06,1723.69,966.56Z" transform="translate(56.26 499.3)"/><path class="cls-161" d="M1694.72,864.18l-72.53-326.93-319.37-83.11-3-.77h-5.13l-13.92,390.38-3.94,109.91-.25,7.17s112.81-3.89,204.36-7.17c56.49-2,104.91-3.78,113.73-4.26,23.06-1.21,33.5,7.52,55.48-12.51,21.55-19.64,46.44-58.13,47.38-59.62l.05,0Zm-135.44-64.69,2.45,54.41c-6.86.13-13,.24-17.9.36l-3.45-54.77Z" transform="translate(56.26 499.3)"/><path class="cls-164" d="M1561.73,853.9c-6.86.13-13,.24-17.9.36l-3.45-54.77h18.9Z" transform="translate(56.26 499.3)"/><path class="cls-165" d="M1697.2,868.61c-.07-.9-.11-1.84-.16-2.81s-.16-2.18-.22-3.33c-6-94.88-37.28-409.1-37.28-409.1H1299.87l0,.5-12.22,490.58-.09,3.2s190.66-3.13,286.46-5.06l1.53,0c.4,0,.81,0,1.21,0l4.5-.09c.34,0,.65,0,1,0,1.3,0,2.59-.07,3.85-.09,5.67-.09,10.86-.2,15.54-.32l9.29-.22c6.51-.16,11.32-.29,14.07-.38l1-.07c.63,0,1.08-.05,1.35-.07a4.14,4.14,0,0,0,1.17-.27,3.5,3.5,0,0,0,.58-.25,38.24,38.24,0,0,0,7.81-5l1.31-1c.9-.7,1.82-1.46,2.76-2.25.48-.38,1-.79,1.44-1.22,5-4.23,10.73-9.47,16.54-15,3.28-3.11,6.59-6.33,9.79-9.5,1.12-1.12,2.22-2.23,3.33-3.28v0c13-12.93,24-24.57,25.42-26.07a.67.67,0,0,1,.11-.14l.05,0C1697.54,874.71,1697.38,871.83,1697.2,868.61Zm-153.37-14.35-3.45-54.77h18.9l2.45,54.41C1554.87,854,1548.75,854.14,1543.83,854.26Z" transform="translate(56.26 499.3)"/><path class="cls-166" d="M1350,453.37c20.4,6.53,59.62,18.79,68.87,19.59,12.63,1.1,131.3-10.44,131.3-10.44l-25-9.15H1350Z" transform="translate(56.26 499.3)"/><path class="cls-167" d="M1697.63,877.23c-.16-4-.44-9-.81-14.77-4.54,4.38-29.56,19.87-66.58,17.79-16.85,39.55-89.48,48.71-134.47,53.29-34.87,3.55-155.55,8.74-208.15,10.9l-.08,3.2s328.78-5.38,339.77-6.35S1697.63,877.23,1697.63,877.23Z" transform="translate(56.26 499.3)"/><path class="cls-168" d="M1662.47,892.7l-35.16,3.3s-13.15,31.14-53.36,46.6c30-.6,50.74-1.08,53.36-1.31,6.12-.54,27.23-20.35,44.74-37.79Z" transform="translate(56.26 499.3)"/><path class="cls-22" d="M1627.31,941.29s13.92-17.09,21.24-54.45a348.3,348.3,0,0,1,49.08-9.61S1642,940.81,1627.31,941.29Z" transform="translate(56.26 499.3)"/><path class="cls-169" d="M1459.56,379c-3.2,2.87-5.49,19.22-3.84,23.07s15.38,15.38,12.08,23.07,29.18-5.93,29.18-5.93l-20.83-19.4s-9.45-14.89,9.78-14.77,21.65,1.53,19.34,14.77c6.48-4.33,6.48-12.25,6.48-12.25s2.75-6.6-8.79-12.25S1465.06,374.07,1459.56,379Z" transform="translate(56.26 499.3)"/><path class="cls-170" d="M1550.21,419.12s-26.37,2.75-35.71-4.39,20.88-16.49.55-39-49.45-4.4-55.49,3.3,7.69,24.72,12.09,29.11,1.1,11-11.54,11-32-1.59-32.41,2.2c-.46,4.37-6.6,38.46-5.5,41.2s117.57-.55,128,0S1550.21,419.12,1550.21,419.12Zm-46.15-28c-2.19,9.34-21.42,13.74-28,0s8.4-18.51,24.12-14.28C1505.74,378.32,1506.26,381.76,1504.06,391.1Z" transform="translate(56.26 499.3)"/><path class="cls-171" d="M1550.21,462.52c3.12.17,4.37-3.65,4.59-9.07-19.25.37-99,1.86-113.92,1.38-17-.55-9.64-35.35-9.59-35.6-2.13.36-3.48,1-3.59,2.09-.46,4.37-6.6,38.46-5.5,41.2S1539.77,462,1550.21,462.52Z" transform="translate(56.26 499.3)"/><path class="cls-172" d="M1513.4,380.11s8.79,7.55,0,20-8.18,16.27,2,20.67,30.73,3,30.73,3l4.4,25.55-8.79-19.78s-17.86-1.65-28.3-5.77-12.85-8-6.15-18.4S1516.38,388.84,1513.4,380.11Z" transform="translate(56.26 499.3)"/><path class="cls-173" d="M1320.58,779.83l1.17-47.79,51.53-1,.66,46.17Zm4.28-44.67-1,41.31,46.84-2.34-.56-39.89Z" transform="translate(56.26 499.3)"/><path class="cls-174" d="M1374.81,846h-55.65l1.16-47.6,53.78-2.11Zm-52.38-3.19h49.14l-.61-43.2-47.53,1.86Z" transform="translate(56.26 499.3)"/><path class="cls-175" d="M1322.06,713.78l1.07-43.84h49.36l.6,42.41Zm4.18-40.65-.91,37.37,44.53-1.25-.51-36.12Z" transform="translate(56.26 499.3)"/><path class="cls-176" d="M1370.82,532.5H1326l.88-36.23h43.42Zm-41.55-3.19h38.31l-.42-29.85H1330Z" transform="translate(56.26 499.3)"/><path class="cls-177" d="M1371.57,591.33h-46.86l1-40H1371ZM1328,588.14h40.35l-.47-33.61H1328.8Z" transform="translate(56.26 499.3)"/><path class="cls-178" d="M1372.28,651.5h-48.8l1-42h47.18Zm-45.53-3.19h42.3l-.51-35.64h-40.92Z" transform="translate(56.26 499.3)"/><polygon class="cls-179" points="1396.05 1007.43 1392.06 1007.43 1396.05 1023.91 1406.3 1023.91 1436.71 982.15 1401 1013.69 1396.05 1007.43"/><polygon class="cls-180" points="1391.06 1186.8 1386.58 1186.8 1391.06 1205.31 1402.56 1205.31 1436.71 1158.42 1396.61 1193.83 1391.06 1186.8"/><polygon class="cls-181" points="1391.06 1251.08 1386.58 1251.08 1391.06 1269.59 1402.56 1269.59 1436.71 1222.7 1396.61 1258.11 1391.06 1251.08"/><path class="cls-182" d="M1672.09,854.73l-33.9.74-7.68.16-2.94.07-13.89.29-3.15.07-10.7.22-3.2.07-13,.27-3.06.07-3,.06-1.51,0-3,.06-1.6,0-2.74.06-1.47,0-2.74.06-2.61.05c-17,.36-29.45.61-30.53.61v-3.2l9.29-.16,3.2-.06c4.92-.12,11-.23,17.9-.36.54,0,1.06,0,1.6,0l1.58,0h.4l2.86-.07,1.44,0,3-.07,1.5,0,3-.07,3.08-.07,16.25-.34c.54,0,1.08,0,1.59,0s1.06,0,1.6,0l26.73-.57,3-.06,5.53-.12,1.6,0,1.57,0c19.26-.41,33.5-.7,33.93-.72Z" transform="translate(56.26 499.3)"/><polygon class="cls-183" points="1616.17 1295.6 1616.17 1298.8 1596.64 1298.8 1600.09 1353.56 1600.2 1355.27 1597 1355.47 1596.89 1353.63 1593.25 1295.6 1616.17 1295.6"/><polygon class="cls-184" points="1619.65 1354.74 1616.18 1277.45 1649.13 1276.28 1654.38 1354.02 1619.65 1354.74"/><path class="cls-185" d="M1599.71,854.66l-.11-1.57-5.24-77.76-1.6.07-1.57,0-32.94,1.17.87,19.69.16,3.19,2.45,54.41.14,3.17,2.61-.05,2.74-.06,1.47,0,2.74-.06,1.6,0,3-.06,1.51,0,3-.06,3.06-.07,13-.27,3.2-.07Zm-19.55-1.17-3.08.07-3,.07-1.5,0-3,.07-1.44,0-2.86.07h-.4l-3.33-74.11,29.81-1.08,5,74.53Z" transform="translate(56.26 499.3)"/><polygon class="cls-186" points="1692.81 1353.2 1689.43 1254.68 1647.68 1254.68 1654.38 1354.02 1692.81 1353.2"/><path class="cls-187" d="M1596.63,856.34l-6.92-102.55h45l3.48,101.67ZM1593.12,757l6.48,96.11,35.3-.75L1631.63,757Z" transform="translate(56.26 499.3)"/><polygon class="cls-188" points="1722.39 1352.45 1718.73 1303.57 1691.11 1303.57 1692.81 1353.2 1722.39 1352.45"/><path class="cls-189" d="M1635,855.54l-1.81-52.87H1664l3.9,52Zm1.49-49.68,1.59,46.41,26.34-.68L1661,805.86Z" transform="translate(56.26 499.3)"/><rect class="cls-190" x="1577.27" y="495.43" width="3.19" height="213.39" transform="translate(19.62 605.92) rotate(-3.82)"/><rect class="cls-191" x="1455.76" y="1004.3" width="84.84" height="4.78"/><rect class="cls-192" x="1458.68" y="1017.89" width="59.52" height="4.78"/><rect class="cls-193" x="1532.91" y="1017.89" width="30.82" height="4.78"/><rect class="cls-194" x="1456.49" y="1057.04" width="89.63" height="4.78"/><rect class="cls-195" x="1456.49" y="1068.25" width="44.82" height="4.79"/><rect class="cls-196" x="1460.15" y="1107.98" width="104.75" height="4.79"/><rect class="cls-197" x="1460.15" y="1127.4" width="73.99" height="4.79"/><rect class="cls-198" x="1549.6" y="1127.4" width="33.65" height="4.79"/><rect class="cls-199" x="1460.15" y="1145.14" width="46.23" height="4.79"/><rect class="cls-200" x="1464.55" y="1179.47" width="51.46" height="4.79"/><rect class="cls-201" x="1464.55" y="1192.56" width="66.16" height="4.79"/><rect class="cls-202" x="1464.55" y="1240.17" width="60.07" height="4.79"/><rect class="cls-203" x="1539.86" y="1240.17" width="43.39" height="4.79"/><rect class="cls-204" x="1464.55" y="1253.81" width="97.01" height="4.79"/><rect class="cls-205" x="1466.01" y="1307.57" width="43.22" height="4.79"/><rect class="cls-206" x="1466.74" y="1322.22" width="67.86" height="4.79"/><rect class="cls-207" x="1323.69" y="894.28" width="152.97" height="3.19" transform="translate(44.07 518.64) rotate(-0.79)"/><rect class="cls-208" x="1322.91" y="908.44" width="170.44" height="3.19" transform="translate(45.07 516.85) rotate(-0.71)"/><rect class="cls-209" x="1657.96" y="1028.61" width="33.15" height="3.19"/><rect class="cls-210" x="1660.16" y="1039.53" width="21.3" height="3.19"/><rect class="cls-211" x="1665.26" y="1122.3" width="25.85" height="3.19"/><rect class="cls-212" x="1665.83" y="1133.29" width="32.13" height="3.19"/></g></g></svg>