<svg id="Layer_1" data-name="Layer 1" xmlns="http://www.w3.org/2000/svg" xmlns:xlink="http://www.w3.org/1999/xlink" viewBox="0 0 330.47 910.77"><defs><style>.cls-1{fill:url(#linear-gradient);}.cls-2{fill:#f48c7f;}.cls-3{fill:#f79c8d;}.cls-4{fill:#a00035;}.cls-5{fill:#739fdc;}.cls-6{fill:#3b1405;}.cls-7{fill:#f17458;}.cls-8{fill:#c41051;}.cls-9{fill:#f5a28f;}.cls-10{fill:url(#linear-gradient-2);}.cls-11{fill:#fff;}.cls-12{fill:#233862;}.cls-13{fill:#6d4721;opacity:0.5;}</style><linearGradient id="linear-gradient" x1="870.66" y1="578.77" x2="1025.02" y2="578.77" gradientUnits="userSpaceOnUse"><stop offset="0" stop-color="#085fa2"/><stop offset="1" stop-color="#347aaf"/></linearGradient><linearGradient id="linear-gradient-2" x1="124.8" y1="319.63" x2="245.04" y2="319.63" gradientUnits="userSpaceOnUse"><stop offset="0" stop-color="#3c8f7c"/><stop offset="1" stop-color="#215346"/></linearGradient></defs><title>people</title><path class="cls-1" d="M1023,546.28c-2.78,15.2-5.59,83.85-13.1,159.06-1.89.32-3.94.61-6.09.86-14.45,1.68-33.92,1.8-50.09,1.27h-.13c-1.66-.05-3.33-.11-5-.19h-.25c-1.64-.06-3.28-.15-4.91-.23h-.29l-4.87-.28h-.25l-3.15-.2c-.59,0-1.18-.07-1.77-.12-26.28-1.78-49.67-4.93-58.61-6.21l-3.86-.57c13-44.58,1.28-149.1,8-183.12,4.88-24.62,21.08-53,29.66-66.73L903,462.68s0,.39.66,1.07c2.29,2.37,12.46,8.27,57.7,13a161.31,161.31,0,0,0,24.07.43c7.64-.37,14.64-1.1,19.77-1.75h0l.37-.05h0l9.44,1.58,3-15.33.55-2.77C1021.77,475.85,1028.29,517.55,1023,546.28Z" transform="translate(-795.4 -83.51)"/><path class="cls-2" d="M1018.09,461.65l-3,15.33-9.44-1.58h0l-.37.05h0c-5.13.65-12.13,1.38-19.77,1.75l1.42-4.92,7.28-25.23,14.94,5.64,3.2,1.21,4.86,1.83S1017.53,457.9,1018.09,461.65Z" transform="translate(-795.4 -83.51)"/><path class="cls-2" d="M1036.53,994.17l-78.45-1.27s-3.46-1.41-6.49-7.08c-1.17-2.2-.9-5.4-.05-8.86.13-.53.27-1.07.43-1.61.1-.35.2-.69.31-1,.22-.74.46-1.48.7-2.22s.59-1.74.89-2.59l.12-.35q.35-.95.66-1.86a42.16,42.16,0,0,0,1.69-5.57,45.89,45.89,0,0,0,.68-6.18c.14-2.42.19-5.16.19-8,0,0-16.14-161-14.84-180.9s11.56-53,11.56-53l-.18-6.1c16.17.53,35.64.41,50.09-1.27-9.79,101.87-20.16,216.71-21.23,228.58.73,9.2,2.27,20.75,5.5,24.35a54.14,54.14,0,0,0,11.2,9.93h0c1.54.94,5.82,3.67,7,4.24,18,8.74,22.58,11.48,28.22,15.64C1038,991.49,1040.8,994.25,1036.53,994.17Z" transform="translate(-795.4 -83.51)"/><path class="cls-3" d="M934.9,706.54l-1.33,3.91L846.49,924.07a121.73,121.73,0,0,0-4.29,27.64,75.46,75.46,0,0,1-3.59,20c-.19.58-.38,1.14-.58,1.69s-.35,1-.54,1.46-.27.69-.4,1-.18.46-.28.69c-.16.39-.33.77-.49,1.14l-.06.14c-.13.29-.26.58-.4.86-5.42,11.11-18,17-29.85,13.37-4.1-1.27-2.18-1.26-4-5.2-3.42-7.43-6-20.77-1.79-30.11.15-.31.3-.63.46-.94,3.06-6,7.67-10.13,10.21-13.43,4.17-5.44,7.38-17.12,9.43-26.56h0s13.55-90,17.44-121.18,29.49-68.43,36.24-92.56q.27-.95.51-1.92c8.94,1.28,32.33,4.43,58.61,6.21C933.72,706.47,934.31,706.5,934.9,706.54Z" transform="translate(-795.4 -83.51)"/><path class="cls-3" d="M1012.76,431.15l-1.21,7.1-.15.85-2.31,13.59-3.85,22.66,0,.1c-5.13.65-12.13,1.38-19.77,1.75a161.31,161.31,0,0,1-24.07-.43c-45.24-4.75-55.41-10.65-57.7-13,6.48-11.85,11.78-19.85,11.78-19.85l7.57-1,70.73-9.27h0l17.58-2.31Z" transform="translate(-795.4 -83.51)"/><path class="cls-4" d="M838.62,971.74c-18.85,3.45-31.39-7.6-37.92-15.88-4.79,9.38-7.13,23.36-3.6,31.06,3.1,6.78,12.17,6.58,19.31,6.85,7.55.28,13.39-3.92,17.14-10.51A63.63,63.63,0,0,0,838.62,971.74Z" transform="translate(-795.4 -83.51)"/><path class="cls-4" d="M999.32,969.06c-20.75,5.34-36.09,1.71-44.67-1.76-2.21,6.29-5.14,14.17-3.59,18.72,1.91,5.57,4.62,6.83,7,6.89,18.95.5,69.42,1.18,83.87,1.37a2.37,2.37,0,0,0,1.83-3.89C1040.2,986.1,1000.87,970,999.32,969.06Z" transform="translate(-795.4 -83.51)"/><path class="cls-5" d="M1018.64,458.88l-.55,2.77-3,15.33-9.44-1.58h0l-.37.05h0c-5.13.65-12.13,1.38-19.77,1.75a161.31,161.31,0,0,1-24.07-.43c-45.24-4.75-55.41-10.65-57.7-13-.65-.68-.66-1.07-.66-1.07l5.32-12.89h0c3.26-5.23,5.41-8.35,5.41-8.35l9.69-1.22,64-8.07h0l23.88-3,3.63-.46L1013,439.44l-1.16,6.56h0l-.74,4.17,1,.17,5.06.91S1017.76,454.09,1018.64,458.88Z" transform="translate(-795.4 -83.51)"/><path class="cls-6" d="M1042.43,153.62c0-.05,0-.1,0-.15-.21-1.71-.45-3.41-.72-5.11a128.71,128.71,0,0,0-10.49-34.61c-.19-.41-.39-.83-.59-1.24-8.88-18.48-30.86-29-50.91-29-24.82,0-41.19,12.73-54.33,30.24-7.82,10.42-14.5,22.52-21.13,34.61-10.81,19.7-21.49,39.35-36.82,51.62-2.93,2.35-5.94,4.59-9,6.79q-2.16,1.56-4.33,3.09l-.58.42-5,3.51a194.71,194.71,0,0,0-19,14.87,73,73,0,0,0-12.08,14.19c-1.28,2-2.44,4-3.51,6a74.45,74.45,0,0,0-3.51,7.8c-7.66,20-6.77,42.95,0,64.34,1,3.28,2.21,6.53,3.51,9.72,1.08,2.65,2.25,5.27,3.51,7.84a118.76,118.76,0,0,0,28,37.25,114.06,114.06,0,0,0,11.6,8.86q3,2,6.17,3.86c18.89,11,41.39,17.18,62.69,14.21,1.14-.16,2.28-.34,3.42-.55a69.67,69.67,0,0,0,21-7.49l1.27-.73c17.11-9.86,30.16-25.79,39.52-43.21,1.84-3.43,3.6-6.95,5.28-10.51q3-6.39,5.74-13c.5-1.21,1-2.42,1.49-3.64h0c2.3-5.74,4.48-11.53,6.58-17.37q1.66-4.59,3.27-9.18c3.28-9.39,6.44-18.75,9.71-27.86q1.05-3,2.09-5.92c.59-1.7,1.17-3.39,1.75-5.1a355.43,355.43,0,0,0,12.18-44.39c.24-1.17.46-2.34.67-3.51s.42-2.34.62-3.51a214.38,214.38,0,0,0,2.9-26.89A161.84,161.84,0,0,0,1042.43,153.62ZM894,374.24l4.65-24.45-.12,0-.7-.09-.85-.13-1.52-.26-.79-.14h0l-1.09-.21c-5.2-1-11.26-2.6-16.8-4.15l-.87-.24c-.86-.24-1.71-.48-2.53-.73l-.82-.23-3.12-.92-.37-.11-.26-.08-.46-.14-.7-.21-.68-.21-.68-.21-.56-.17-.65-.2-.58-.18L864,341c-2.57-.8-4.15-1.32-4.15-1.32s17.13-61.95,36.59-96.55a25.76,25.76,0,0,1,3.67-4.86L875,222.74q3.4-4.61,7.15-9h81A38.9,38.9,0,0,1,962,218a9.68,9.68,0,0,0-.35,1.34c-.6.06-8.94.94-45.51,8.74a18.34,18.34,0,0,0-3.9,1.35A139.09,139.09,0,0,1,914.3,247c.81,11.51,1.31,26.75,1.31,43.47,0,6.9-.08,13.54-.24,19.77l.44-1.39s7.84,45.82,9.79,76.58Q911.23,380.5,894,374.24Z" transform="translate(-795.4 -83.51)"/><path class="cls-6" d="M963.13,213.79A38.9,38.9,0,0,1,962,218a9.68,9.68,0,0,0-.35,1.34c-.6.06-8.94.94-45.51,8.74a18.34,18.34,0,0,0-3.9,1.35,34.47,34.47,0,0,0-3.85,2.11,43,43,0,0,0-8.24,6.75L875,222.74q3.4-4.61,7.15-9Z" transform="translate(-795.4 -83.51)"/><path class="cls-6" d="M894,374.24l4.65-24.45-.12,0a31.64,31.64,0,0,0,4.2.34l4.21-13.27,8.43-26.57.44-1.39s7.84,45.82,9.79,76.58Q911.23,380.5,894,374.24Z" transform="translate(-795.4 -83.51)"/><path class="cls-2" d="M1121.65,545.56s-3.84-4.12-5-5.59c-1.37-1.71-5.07-7.17-5.07-7.17s-12-19.58-10.45-20.33,5.5,1.5,6.67,2.46,2.63,2,3.8,2.92a3,3,0,0,0,4.16-.44c1.31-1.34-2.52-6.14-4.18-7.55-5.16-4.37-21.35-13.34-23-14.36-2-1.21-16.42-38.9-22.42-51.44h0c-9.19-20.8-17.57-42.63-18.53-44.84l-11.57-96.29-37.57-9.77s11.32,107,12.51,112.32c.56,2.52,25.64,49.13,25.67,49.13,13.82,22.19,26,41.72,28.29,45.53,0,0,3.59,13.17,5.38,21.68s6.9,15.66,7.78,18a56.08,56.08,0,0,0,9.35,16.66c5.74,7.06,3.58-2.25,3.58-2.25s-8.25-15-6.94-15.42c1-.35,5,8.1,11.29,16,1.61,2,3.21,4,4.69,5.83,3.89,4.77,8,3.76,4.71-1.88a59.34,59.34,0,0,0-4.91-7.38c-1.89-2.3-2.89-5-4.18-7.19-2.57-4.31-4.51-7.42-4.27-7.43s.41-1.23,2.19.87c2.14,2.52,5.48,8.87,8.91,12.33,2,2,5.76,6.32,5.76,6.32s7,6.37,7.44,6.08c2.51-1.63-1.15-7.61-4.15-9.93-1.14-2.45-5.28-6.92-5.28-6.92s-6.33-10.89-4.78-11.81c1.27-.75,21.53,22.42,23.94,20.62C1127.43,552.8,1121.65,545.56,1121.65,545.56Z" transform="translate(-795.4 -83.51)"/><path class="cls-7" d="M1084.05,511.49s11,6.24,16.9,1.11a8.43,8.43,0,0,1-7,4.21C1089.07,516.86,1084.05,511.49,1084.05,511.49Z" transform="translate(-795.4 -83.51)"/><path class="cls-4" d="M1004.06,229s11.2,5.17,26.36,35.83c14.12,28.57,16.43,95,16.43,95s-22.46,7.14-35.36,4.68S1004.06,229,1004.06,229Z" transform="translate(-795.4 -83.51)"/><path class="cls-8" d="M1036.5,299.27c-.09.69-.36,1.9-.78,3.57h0c-.89,3.59-2.45,9.31-4.41,16.43-2.06,7.5-4.55,16.59-7.11,26.42-1.61,6.17-3.25,12.63-4.83,19.2-2.15,8.93-4.18,18-5.89,26.78-.1.51-.19,1-.29,1.53a109.49,109.49,0,0,0-1.55,13.84c-.28,4.8-.4,10-.4,15.27,0,2.25,0,4.52.07,6.79,0,.75,0,1.48,0,2.22,0,2.34.11,4.64.2,6.92v.06c0,.27,0,.55,0,.82.1,2.34.19,4.64.3,6.87h0c.07,1.48.13,2.92.22,4.34h0c.06,1.2.13,2.38.2,3.53.37,6.38.77,11.79,1.07,15.43.25,3.1.42,4.9.42,4.9s-3.14.54-8.17,1.17h0l-.37.05h0c-5.13.65-12.13,1.38-19.77,1.75a161.31,161.31,0,0,1-24.07-.43c-45.24-4.75-55.41-10.65-57.7-13-.65-.68-.66-1.07-.66-1.07l5.32-12.89h0c.95-2.31,2-4.8,3.06-7.4h0c2.82-6.84,5.93-14.4,8.64-20.91,1.74-4.19,3.29-7.95,4.5-10.85a26.56,26.56,0,0,0,1.35-7.85,151.07,151.07,0,0,0-.3-17.28c-.12-1.93-.27-3.9-.44-5.93,0-.49-.07-1-.12-1.52l0-.41c-.08-.89-.16-1.79-.25-2.69q-.21-2.36-.45-4.74c-.11-1-.21-2-.32-3.05-.92-8.62-2-17.46-3.19-25.58-.07-.51-.13-1-.21-1.51-.41-3-.82-5.88-1.24-8.59-.09-.67-.19-1.32-.28-2,0-.32-.1-.64-.15-1-.09-.65-.19-1.27-.29-1.9,0-.3-.09-.62-.13-.92-.1-.64-.19-1.27-.29-1.88-.06-.39-.13-.77-.18-1.15s-.14-.87-.2-1.29-.1-.62-.15-.91c-.19-1.29-.38-2.49-.56-3.59h0q-.18-1.08-.33-2l-.12-.77c0-.25-.09-.5-.12-.73-.07-.41-.14-.8-.2-1.17-.34-2.09-.54-3.26-.54-3.26l-.45,1.39c.16-6.23.25-12.88.25-19.77,0-16.72-.5-32-1.31-43.46a140.51,140.51,0,0,0-2.07-17.6l.88-.4.53-.2.28-.11c.47-.17.93-.32,1.36-.45l.85-.21c36.57-7.79,44.91-8.67,45.52-8.73h0a205.36,205.36,0,0,1,29.22,4,27.73,27.73,0,0,1,3.51,1.1c3.39,1.29,6.74,3.09,9,4.1a7.7,7.7,0,0,1,.69.36l0,0,.09.05c5.95,3.68,14.33,18.82,21.07,34.26S1037.1,294.46,1036.5,299.27Z" transform="translate(-795.4 -83.51)"/><path class="cls-9" d="M991.61,270.83c-21.31-5.2-32.27-39.69-30-51.49A9.68,9.68,0,0,1,962,218a38.9,38.9,0,0,0,1.14-4.21c.25-1.1.47-2.28.68-3.51s.39-2.31.56-3.51c.66-4.57,1.16-9.56,1.53-14v0c0-.35.06-.68.09-1,.06-.87.13-1.72.19-2.52l.06-.87c.12-1.59.21-3,.28-4.23,0-.31,0-.6.05-.87,0-.09,0-.18,0-.26s0-.28,0-.42,0-.56,0-.8c0-.7.06-1.22.07-1.53,0-.05,0-.09,0-.13a1.23,1.23,0,0,1,0-.18l24.35-5.36,6.87-1.51s0,.18,0,.51c0,.57-.12,1.59-.22,3-.19,2.5-.46,6.17-.77,10.4-.06.87-.13,1.76-.19,2.67-.4,5.43-.83,11.53-1.23,17.16-.08,1.19-.15,2.37-.23,3.51s-.17,2.38-.24,3.51c-.31,4.71-.55,8.59-.64,10.71a15.46,15.46,0,0,0,0,1.71C997.17,241,1011.6,275.72,991.61,270.83Z" transform="translate(-795.4 -83.51)"/><path class="cls-7" d="M996.49,189.26c1.73-8.79,3.36-16.08,3.36-16.08l-33.1,6.75s-.25,5.69-.85,12.87C978.31,198.54,988.91,196,996.49,189.26Z" transform="translate(-795.4 -83.51)"/><path class="cls-9" d="M976.76,104.21a38,38,0,0,0-20.5,16.42c-7.49,12.8-11.23,49.54,16.36,65.22s47.17-9.44,46.34-32.94S1011.52,98.32,976.76,104.21Z" transform="translate(-795.4 -83.51)"/><path class="cls-9" d="M1021.37,145c-2,5.78-6.35,9.52-9.72,8.36s-4.48-6.79-2.48-12.58,6.35-9.52,9.71-8.36S1023.36,139.17,1021.37,145Z" transform="translate(-795.4 -83.51)"/><path class="cls-9" d="M954.14,153c2.24,6,.77,12.11-3.29,13.63s-9.18-2.13-11.42-8.13-.77-12.11,3.29-13.63S951.89,147,954.14,153Z" transform="translate(-795.4 -83.51)"/><polygon class="cls-10" points="245.04 265.37 242.41 278.64 242.41 278.66 233.96 321.27 233.96 321.28 228.72 347.68 228.72 347.69 227.02 356.31 223.24 375.37 222.69 378.14 219.65 393.47 210.21 391.89 210.2 391.89 209.84 391.84 191.47 388.77 124.8 377.67 127.63 359.4 128.05 356.68 130.72 339.42 133.91 318.68 133.92 318.68 136.19 303.99 145.18 245.79 200.98 256.74 208.26 258.17 208.27 258.17 209.45 258.4 228.79 262.19 245.04 265.37"/><path class="cls-2" d="M1029.71,423.32c-.32,3.74-1.06,9.18-3,12.7a7.7,7.7,0,0,1-2.18,2.59,12.22,12.22,0,0,1-2.09,1.21h0c-2.72,1.19-5,.56-9.38-.38l-1.46-.31-.16,0-.66-.13c-3.3-.66-10-3.35-17-5.32h0c-2.12-.6-4.26-1.14-6.32-1.52h0c-.95-.18-1.88-.32-2.79-.43-25.3-3.07-36.21-3.45-58.52-8.77-1.93-.45-3.94-.95-6.06-1.49-3.08-.78-6.38-1.65-9.94-2.63-12.62-3.44-24.59-6.95-34-10.21-10.64-3.7-17.93-7.07-19-9.66-.95-2.35-.83-7.61-.14-14.26.23-2.18.52-4.52.85-7h0c1.65-12,4.39-26.4,6.14-36.69l.42.13.58.18.65.2.56.17.68.21.68.21.7.21.46.14.26.08.37.11,3.12.92.82.23c.82.25,1.67.49,2.53.73l.87.24c5.54,1.55,11.6,3.12,16.8,4.15l1.09.21h0l.79.14,1.52.26.85.13.7.09.12,0L894,374.24q17.26,6.22,31.6,11.22l6,2q10.81,3.67,20,6.47c15.1,4.59,27.06,7.34,36.48,7.92a20.55,20.55,0,0,0,3.29-.17,28.35,28.35,0,0,1,5.29-4.5c1.59-1.09,7.17-2.83,12.72-4.4,1.39-.4,2.79-.78,4.12-1.14,4.81-1.3,8.74-2.27,8.74-2.27s7.65-.93,7.65,2.81-9.39,7.42-9.49,7.54c-.75.91-5.58,3.54-4.5,4,5.41,2.33,13.28.17,13.41.72,0,.1,0,.19.08.28C1030.88,410.61,1030.5,414.19,1029.71,423.32Z" transform="translate(-795.4 -83.51)"/><path class="cls-6" d="M977.75,103.9s-6.47,38.15-18.68,44.15-7.86,23.51-7.86,23.51S941.9,131,951.83,119,977.75,103.9,977.75,103.9Z" transform="translate(-795.4 -83.51)"/><path class="cls-11" d="M988.24,169.81l20.6-3.06s.69,7.89-8.33,9.5C989.51,178.21,988.24,169.81,988.24,169.81Z" transform="translate(-795.4 -83.51)"/><path class="cls-6" d="M986,131.59c-.11,1.88-5-.43-7.35.36-4.06,1.33-3.74,3.61-5.34,3.52-.64-2,1.45-5.18,5-6.21C983.58,127.74,986,131.59,986,131.59Z" transform="translate(-795.4 -83.51)"/><path class="cls-12" d="M980.15,141c.51,2.35,2,4,3.24,3.75s1.92-2.4,1.42-4.75-2-4-3.24-3.75S979.65,138.63,980.15,141Z" transform="translate(-795.4 -83.51)"/><path class="cls-12" d="M981.56,136.23a9.39,9.39,0,0,0-4.39,1.32,4.55,4.55,0,0,1,3.5.7Z" transform="translate(-795.4 -83.51)"/><path class="cls-6" d="M998.66,128.88c.86,1.67,4.34-2.43,6.84-2.69,4.24-.45,4.9,1.75,6.31,1-.23-2.09-3.44-4.13-7.1-3.61C999.3,124.36,998.66,128.88,998.66,128.88Z" transform="translate(-795.4 -83.51)"/><path class="cls-12" d="M1007.85,135c.51,2.34-.13,4.47-1.41,4.75s-2.74-1.41-3.24-3.75.13-4.48,1.41-4.75S1007.35,132.68,1007.85,135Z" transform="translate(-795.4 -83.51)"/><path class="cls-12" d="M1004.61,131.28a9.3,9.3,0,0,1,4.55-.59,4.53,4.53,0,0,0-2.91,2.06Z" transform="translate(-795.4 -83.51)"/><path class="cls-13" d="M1003,159.53a2.55,2.55,0,0,0,1.32-1.21c1-1.58,1.63-3,1.7-3h0c-.23,0-2.57,2.92-3.13,3.25a3.36,3.36,0,0,1-1.71.21c-3-.08-5.17-.42-5.26-.33s1.77.64,2,.7a12.2,12.2,0,0,0,3.39.58A4.9,4.9,0,0,0,1003,159.53Z" transform="translate(-795.4 -83.51)"/><path class="cls-4" d="M917.38,295.21c0,7.68-.09,15.08-.27,22l-9.38,29.6L903,361.61a36.35,36.35,0,0,1-4.69-.38l-.77-.1-1-.15-1.69-.28-.88-.16H894l-1.21-.24c-5.79-1.15-12.55-2.89-18.72-4.61l-1-.28c-1-.26-1.91-.53-2.83-.8l-.91-.27c-1.2-.34-2.37-.69-3.47-1l-.41-.13-.29-.08-.52-.16-.78-.23-.76-.24-.75-.23-.62-.18-.73-.23-.65-.2-.47-.14c-2.86-.9-4.61-1.47-4.61-1.47s19.08-69,40.75-107.56a29.06,29.06,0,0,1,4.09-5.41,48,48,0,0,1,9.18-7.52,40,40,0,0,1,4.29-2.35,154.54,154.54,0,0,1,2.3,19.61C916.83,259.6,917.38,276.58,917.38,295.21Z" transform="translate(-795.4 -83.51)"/></svg>