<svg width="327" height="783" viewBox="0 0 327 783" fill="none" xmlns="http://www.w3.org/2000/svg">
<g clip-path="url(#clip0_146_1494)">
<path d="M326.9 400.438C323.832 397.87 320.122 399.043 309.444 394.107C306.204 392.859 302.87 391.867 299.475 391.14C299.25 391.097 299.042 390.991 298.876 390.834C298.709 390.677 298.59 390.476 298.533 390.255C295.288 378.002 281.088 321.307 279.526 304.958C277.931 288.244 267.143 217.37 265.492 206.589C265.466 206.417 265.403 206.252 265.308 206.106C265.213 205.96 265.088 205.836 264.942 205.742C264.795 205.647 264.63 205.585 264.458 205.56C264.285 205.534 264.109 205.545 263.942 205.593L232.927 214.227C232.622 214.313 232.362 214.512 232.199 214.783C232.036 215.055 231.984 215.379 232.052 215.688C233.969 224.144 245.887 277.186 249.387 304.028C252.178 325.424 284.079 394.085 284.721 398.479C284.721 398.479 284.721 398.556 284.721 398.601C284.817 399.239 285.139 399.822 285.629 400.243C286.119 400.663 286.744 400.894 287.39 400.892H321.927C323.278 400.892 327.831 401.235 326.9 400.438Z" fill="#F58D80"/>
<path d="M270.853 224.986C270.045 225.207 269.247 225.451 268.417 225.727C262.336 227.62 255.413 230.465 248.789 232.933C244.724 234.461 240.792 235.866 237.214 236.829L234.102 213.895L228.752 174.501L223.014 132.229L222.948 131.719C222.948 131.719 230.269 130.867 239.806 142.788C245.411 149.762 251.791 161.118 257.894 179.636C261.959 191.901 267.464 209.179 270.853 224.986Z" fill="#9F1C38"/>
<path d="M262.48 778.517C257.728 775.019 253.895 772.706 238.709 765.345C237.724 764.869 234.124 762.567 232.817 761.781C229.296 759.441 226.116 756.625 223.368 753.413C220.644 750.38 219.348 740.65 218.738 732.902C220.3 715.591 245.4 437.973 250.694 407.91C256.155 376.917 247.836 329.575 247.836 329.575L228.453 322.27L191.668 449.672L194.57 546.658C194.57 546.658 185.919 574.618 184.833 591.321C183.748 608.023 197.305 743.628 197.305 743.628C197.403 747.63 197.158 751.633 196.574 755.593C195.578 760.674 190.017 771.09 192.565 775.883C195.112 780.675 198.025 781.849 198.025 781.849L264.13 782.956C267.763 782.978 265.382 780.653 262.48 778.517Z" fill="#F58D80"/>
<path d="M162.16 319.635C162.16 319.635 139.209 354.248 133.749 382.883C128.288 411.518 137.758 499.526 127.247 537.05C121.553 557.361 99.9874 588.73 96.7088 614.986C93.4301 641.241 82.0103 717.007 82.0103 717.007C80.2824 724.955 77.5797 734.795 74.0685 739.367C71.9196 742.167 67.9875 745.709 65.4177 750.767C61.408 758.648 63.6233 770.37 66.5807 776.823C68.0982 780.144 66.47 780.144 69.9037 781.251C74.8811 782.711 80.2212 782.299 84.9151 780.092C89.609 777.885 93.3316 774.037 95.3796 769.275C98.3961 762.305 100.09 754.836 100.375 747.248C100.687 739.387 101.898 731.588 103.986 724.003V724.003L177.368 544.034L230.535 388.816L244.137 308.876L162.16 319.635Z" fill="#F79C8D"/>
<path d="M97.4177 764.028C81.534 766.928 70.967 757.619 65.4731 750.657C61.4412 758.549 59.4696 770.326 62.4381 776.801C65.0522 782.513 72.6949 782.336 78.7095 782.568C85.0674 782.812 89.9964 779.248 93.1089 773.713C94.8635 770.636 96.3069 767.391 97.4177 764.028Z" fill="#C41E53"/>
<path d="M232.817 761.77C215.327 766.264 202.412 763.209 195.157 760.287C193.296 765.578 190.826 772.219 192.133 776.049C193.739 780.731 196.021 781.793 198.037 781.849C214.009 782.269 256.531 782.845 268.704 782.956C269.095 782.969 269.48 782.867 269.813 782.662C270.146 782.458 270.412 782.161 270.577 781.807C270.742 781.453 270.8 781.059 270.742 780.673C270.685 780.287 270.516 779.926 270.255 779.635C267.253 776.115 234.113 762.567 232.817 761.77Z" fill="#C41E53"/>
<path d="M177.047 540.647L181.189 540.902H181.4L185.509 541.123H185.753L189.884 541.311H190.095L194.315 541.466C209.988 541.987 229.339 541.787 241.755 539.673C248.091 476.348 250.439 418.547 252.832 405.74C258.514 374.747 247.881 325.745 247.881 325.745L242.808 324.838L246.009 306.707L160.72 317.444C160.72 317.444 136.85 352.045 131.168 380.68C125.486 409.315 135.344 497.324 124.411 534.847C124.411 534.925 148.746 538.721 177.047 540.647Z" fill="#18457C"/>
<path d="M248.335 296.59C248.169 309.928 247.98 320.809 247.903 326.089C247.847 328.302 247.836 329.487 247.836 329.487C245.438 330.986 242.823 332.106 240.083 332.807C235.07 334.089 229.935 334.831 224.764 335.021C197.881 336.549 161.008 329.542 156.544 328.668L156.09 328.579C156.09 328.579 156.932 325.79 158.15 321.373C161.794 308.091 168.85 280.009 167.211 267.501C167.033 266.062 166.601 263.981 165.981 261.347C164.109 253.444 160.443 240.659 156.533 226.115C155.425 222.163 154.318 218.057 153.21 213.939L152.689 211.991C143.662 177.843 135.033 139.855 141.945 132.295C143.531 130.576 145.364 129.102 147.384 127.923C159.501 120.662 177.512 122.3 180.347 122.632C176.094 130.679 194.935 156.425 213.078 153.27C218.428 152.33 208.648 130.026 208.991 127.303C215.715 128.764 221.441 130.435 223.047 132.096V132.151C225.008 134.287 229.693 145.179 234.556 157.609C240.515 172.984 246.618 190.761 247.847 197.347C248.315 201.448 248.56 205.572 248.579 209.7C248.734 215.887 248.8 223.868 248.8 232.767C248.833 252.824 248.59 277.264 248.335 296.59Z" fill="#C41E53"/>
<path d="M213.045 153.403C194.902 156.558 176.061 130.812 180.314 122.765C183.438 116.776 187.901 97.0296 189.784 87.5879C189.718 87.9974 189.64 88.418 189.552 88.8719C191.498 94.5263 194.888 99.5744 199.388 103.516C202.983 106.902 207.492 109.161 212.358 110.013C212.358 110.013 212.358 110.013 212.358 110.08C211.096 116.522 209.855 122.798 208.936 127.392C208.93 127.417 208.93 127.443 208.936 127.469C208.626 130.137 218.351 152.496 213.045 153.403Z" fill="#F8A592"/>
<path d="M190.25 85.4184C190.128 86.0493 189.995 86.7688 189.829 87.5547C189.984 86.7466 190.117 86.0825 190.25 85.4184Z" fill="#F8A592"/>
<path d="M215.548 94.0521C215.216 95.7013 214.873 97.4613 214.518 99.2766C213.998 101.856 213.411 104.567 212.934 107.279C212.768 108.187 212.58 109.084 212.403 109.98C207.536 109.128 203.027 106.869 199.432 103.483C194.916 99.5465 191.51 94.4979 189.552 88.8386C189.64 88.3848 189.718 87.9642 189.784 87.5547C190.338 88.097 190.892 88.6615 191.523 89.1707C200.03 96.5868 208.437 97.3063 215.548 94.0521Z" fill="#F8A592"/>
<path opacity="0.5" d="M215.548 94.0521C215.216 95.7013 214.873 97.4613 214.518 99.2766C213.998 101.856 213.411 104.567 212.934 107.279C212.768 108.187 212.58 109.084 212.403 109.98C207.536 109.128 203.027 106.869 199.432 103.483C194.916 99.5465 191.51 94.4979 189.552 88.8386C189.64 88.3848 189.718 87.9642 189.784 87.5547C190.338 88.097 190.892 88.6615 191.523 89.1707C200.03 96.5868 208.437 97.3063 215.548 94.0521Z" fill="#F37458"/>
<path d="M209.146 20.2007H208.581C203.708 28.2035 190.936 47.6736 181.233 48.7915L180.403 48.9022C180.393 48.9459 180.393 48.9913 180.403 49.0351L180.27 48.9354C179.729 48.5043 179.103 48.1926 178.433 48.0209C177.763 47.8492 177.064 47.8214 176.382 47.9392C173.901 48.4373 172.162 51.1603 171.763 54.5806C171.581 56.0549 171.629 57.5487 171.907 59.0081C172.915 64.4429 176.515 68.2617 179.993 67.5422C181.108 75.0496 184.552 82.0183 189.84 87.4661C190.006 86.6802 190.139 85.9608 190.272 85.352C190.15 85.9829 190.017 86.7024 189.851 87.4883C190.405 88.0306 190.959 88.5951 191.59 89.1043C200.052 96.5205 208.459 97.2399 215.571 93.9857C223.667 90.3219 230.059 81.5111 232.916 71.6377C233.477 69.7306 233.896 67.7845 234.168 65.8154C234.655 62.2623 235.098 58.5985 235.353 54.9458C236.583 37.0253 233.293 19.5698 209.146 20.2007ZM197.228 42.3384C197.283 40.4346 200.03 38.3647 203.375 38.5639C204.687 38.5507 205.968 38.9649 207.023 39.7438C208.078 40.5227 208.851 41.6239 209.224 42.8808C208.57 44.4525 205.125 41.0101 202.855 40.9548C198.978 40.8773 198.557 42.914 197.228 42.3495V42.3384ZM199.864 45.2827C201.244 45.0042 202.671 45.0727 204.018 45.4819C205.192 45.6369 205.923 47.5075 205.646 49.666C205.369 51.8244 204.173 53.4405 202.988 53.2966C201.802 53.1527 201.083 51.2599 201.359 49.1125C201.467 48.1894 201.786 47.3033 202.29 46.5224V46.5224C201.618 45.886 200.775 45.459 199.864 45.2938V45.2827ZM217.354 81.4004C216.246 83.3596 213.643 86.315 208.039 85.3852C204.339 84.7653 202.212 83.3485 201.005 81.7989C200.394 81.0061 199.948 80.0992 199.693 79.1317C199.439 78.1641 199.38 77.1554 199.521 76.1648L218.041 79.8065C217.876 80.3666 217.645 80.9053 217.354 81.4115V81.4004ZM216.756 71.2503C216.355 71.642 215.821 71.8675 215.26 71.8812C214.735 71.8584 214.217 71.7422 213.732 71.538C212.76 71.1581 211.847 70.6439 211.018 70.0105C210.863 69.9109 209.423 68.9037 209.545 68.8262C209.667 68.7487 211.406 69.7228 213.976 70.6968C214.452 70.9382 214.981 71.0562 215.515 71.0399C216.058 70.9293 218.838 69.2247 219.148 69.2247C218.982 69.3021 218.074 70.2762 216.756 71.2613V71.2503ZM226.835 52.4332C226.547 54.5916 225.362 56.2077 224.177 56.0527C222.992 55.8978 222.272 54.0271 222.549 51.8687C222.826 49.7102 224.022 48.0942 225.207 48.2492C226.61 48.1992 228.004 48.4997 229.261 49.1236C228.34 49.0502 227.418 49.2423 226.603 49.677C226.894 50.5727 226.974 51.5237 226.835 52.4553V52.4332ZM232.584 46.9652C231.155 47.1644 231.266 45.0835 227.5 44.1758C225.285 43.6445 221.076 46.0797 220.854 44.3972C221.541 43.2774 222.574 42.4108 223.796 41.9277C225.019 41.4447 226.365 41.3713 227.633 41.7185C230.9 42.4159 233.027 45.1277 232.584 46.9873V46.9652Z" fill="#F8A592"/>
<path d="M205.657 49.677C205.369 51.8908 204.184 53.4515 202.999 53.3076C201.814 53.1637 201.094 51.271 201.371 49.1236C201.478 48.2005 201.797 47.3144 202.301 46.5335V46.5335C201.626 45.8951 200.779 45.4681 199.864 45.3048C201.244 45.0264 202.671 45.0948 204.018 45.5041V45.5041C205.203 45.648 205.934 47.5186 205.657 49.677Z" fill="#F8A592"/>
<path d="M209.224 42.914C208.57 44.4857 205.125 41.0433 202.855 40.988C198.978 40.8994 198.557 42.9361 197.228 42.3716C197.283 40.4677 200.03 38.3979 203.375 38.5971C204.687 38.5839 205.968 38.9981 207.023 39.777C208.078 40.5559 208.851 41.6571 209.224 42.914V42.914Z" fill="#F8A592"/>
<path d="M219.104 69.2357C218.982 69.3021 218.074 70.2762 216.756 71.2613C216.355 71.6531 215.821 71.8785 215.26 71.8922C214.735 71.8695 214.217 71.7533 213.732 71.5491C212.76 71.1691 211.847 70.655 211.018 70.0216C210.863 69.922 209.423 68.9147 209.545 68.8372C209.667 68.7597 211.406 69.7338 213.976 70.7079C214.452 70.9492 214.981 71.0672 215.515 71.051C216.014 70.9403 218.772 69.2357 219.104 69.2357Z" fill="#F8A592"/>
<path d="M190.25 85.4184C190.128 86.0493 189.995 86.7688 189.829 87.5547C189.984 86.7466 190.117 86.0825 190.25 85.4184Z" fill="#F8A592"/>
<path d="M226.603 49.6992C226.891 50.5879 226.971 51.5309 226.835 52.4553C226.547 54.6138 225.362 56.2298 224.177 56.0748C222.992 55.9199 222.272 54.0492 222.549 51.8908C222.826 49.7324 224.022 48.1163 225.207 48.2713C226.61 48.2213 228.004 48.5218 229.261 49.1457C228.34 49.0723 227.418 49.2644 226.603 49.6992V49.6992Z" fill="#F8A592"/>
<path d="M232.584 46.9873C231.155 47.1866 231.266 45.1056 227.5 44.198C225.285 43.6667 221.076 46.1018 220.854 44.4193C221.541 43.2995 222.574 42.4329 223.796 41.9499C225.019 41.4668 226.365 41.3934 227.633 41.7407C230.9 42.4159 233.027 45.1277 232.584 46.9873Z" fill="#F8A592"/>
<path d="M240.05 65.5719C238.167 69.2357 235.287 71.6155 232.894 71.7041C233.455 69.797 233.874 67.8509 234.146 65.8818C234.633 62.3287 235.076 58.665 235.331 55.0122C235.953 54.5327 236.695 54.2318 237.475 54.1421C238.256 54.0524 239.047 54.1772 239.762 54.5031C242.287 55.9752 242.442 60.9341 240.05 65.5719Z" fill="#F8A592"/>
<path d="M252.821 79.6294C251.924 101.192 246.629 122.311 239.806 142.722C230.269 130.845 222.947 131.653 222.947 131.653L223.014 132.162C221.408 130.502 215.681 128.842 208.958 127.369C208.952 127.344 208.952 127.317 208.958 127.292C209.877 122.698 211.173 116.422 212.38 109.98C212.38 109.98 212.38 109.98 212.38 109.914C212.558 109.017 212.746 108.121 212.912 107.213C213.444 104.501 214.02 101.789 214.496 99.2102C214.851 97.3949 215.194 95.6349 215.526 93.9857C223.623 90.3219 230.014 81.5111 232.872 71.6377C235.264 71.5491 238.144 69.1693 240.027 65.5055C242.42 60.8677 242.243 55.9088 239.728 54.4367C239.013 54.1108 238.223 53.986 237.442 54.0757C236.661 54.1654 235.92 54.4663 235.298 54.9458C236.549 36.9589 233.26 19.5255 209.113 20.1343H208.548C203.674 28.137 190.903 47.6072 181.2 48.7251L180.369 48.8358H180.214C179.674 48.4047 179.047 48.093 178.377 47.9213C177.707 47.7496 177.008 47.7217 176.327 47.8396C173.845 48.3377 172.106 51.0606 171.708 54.4809C171.525 55.9553 171.574 57.449 171.852 58.9085C172.86 64.3433 176.459 68.162 179.937 67.4426C181.052 74.95 184.496 81.9186 189.784 87.3665C187.901 96.8082 183.438 116.555 180.314 122.543C177.478 122.211 159.468 120.573 147.35 127.834C145.862 127.773 144.373 127.907 142.92 128.233C126.172 131.963 112.803 221.211 112.803 221.211L117.677 223.746C115.051 230.387 112.692 236.398 112.061 238.523C103.886 236.973 87.482 230.066 73.7915 223.901C52.2921 192.631 46.3883 146.696 76.0068 119.721C85.6987 110.866 97.1407 104.224 107.386 96.0223C140.882 69.2136 147.572 -0.276716 200.219 -0.221372C216.833 -0.221372 234.965 8.46768 242.309 23.7427C250.805 41.7296 253.607 60.5577 252.821 79.6294Z" fill="#381510"/>
<path d="M218.041 79.8175C217.875 80.3739 217.644 80.9088 217.354 81.4114C216.246 83.3706 213.643 86.326 208.039 85.3962C204.339 84.7764 202.212 83.3596 201.005 81.8099C200.394 81.0171 199.948 80.1102 199.693 79.1427C199.439 78.1751 199.38 77.1664 199.521 76.1759L218.041 79.8175Z" fill="white"/>
<path d="M153.697 212.566C153.542 213.031 153.376 213.496 153.21 213.994C151.128 220.005 147.483 228.638 143.485 237.361C139.187 246.736 134.48 256.178 130.813 262.664C128.255 267.092 126.205 270.191 125.12 270.755C112.238 277.574 58.2623 238.268 47.5846 231.627C36.9068 224.986 31.1581 227.764 24.0692 225.838C16.9802 223.912 7.45445 230.907 6.34681 228.24C5.23916 225.572 18.4091 222.506 18.9629 219.706C19.5167 216.905 1.92727 217.802 1.14084 215.367C-0.2991 210.939 20.3142 213.208 19.7826 211.15C19.2509 209.091 -1.89411 205.693 0.143966 201.951C2.18204 198.21 21.6877 207.74 22.1086 205.272C22.5295 202.804 3.1457 198.044 3.15677 192.653C3.15677 189.787 35.2786 204.984 38.7344 203.202C42.1903 201.42 33.9273 188.436 36.6631 186.267C39.399 184.097 49.4565 212.909 51.4946 213.773C52.4139 214.16 62.1169 218.876 73.7805 224.133C87.471 230.299 103.875 237.206 112.05 238.755C112.681 236.63 115.04 230.609 117.666 223.978C121.299 214.78 125.419 204.386 126.205 201.586C134.624 206.799 143.994 207.641 152.689 212.057C152.999 212.267 153.365 212.378 153.697 212.566Z" fill="#F8A592"/>
<path d="M178.132 165.657C177.567 178.74 164.741 208.371 156.5 226.203C152.556 234.748 149.654 240.593 149.654 240.593L143.485 237.383L117.666 223.989L112.792 221.455C112.792 221.455 126.161 132.151 142.909 128.476C144.362 128.15 145.851 128.016 147.339 128.078C162.968 128.465 178.896 148.068 178.132 165.657Z" fill="#9F1C38"/>
<path d="M209.224 42.914C208.57 44.4857 205.125 41.0433 202.855 40.988C198.978 40.8994 198.557 42.9361 197.228 42.3716C197.283 40.4677 200.03 38.3979 203.375 38.5971C204.687 38.5839 205.968 38.9981 207.023 39.777C208.078 40.5559 208.851 41.6571 209.224 42.914V42.914Z" fill="#381510"/>
<path d="M205.657 49.677C205.369 51.8908 204.184 53.4515 202.999 53.3076C201.814 53.1637 201.094 51.2709 201.37 49.1236C201.478 48.2005 201.797 47.3144 202.301 46.5335V46.5335C202.466 46.222 202.713 45.9615 203.016 45.7801C203.319 45.5987 203.665 45.5033 204.018 45.5041C205.203 45.648 205.934 47.5186 205.657 49.677Z" fill="#14274E"/>
<path d="M204.018 45.493L202.644 46.943C202.549 46.7917 202.433 46.654 202.301 46.5335V46.5335C201.626 45.8951 200.779 45.4681 199.864 45.3048C201.243 45.0228 202.67 45.0874 204.018 45.493Z" fill="#14274E"/>
<path d="M232.584 46.9873C231.155 47.1866 231.266 45.1056 227.5 44.198C225.285 43.6667 221.076 46.1018 220.854 44.4193C221.541 43.2995 222.574 42.4329 223.796 41.9499C225.019 41.4668 226.365 41.3934 227.633 41.7407C230.9 42.4159 233.027 45.1277 232.584 46.9873Z" fill="#381510"/>
<path d="M226.835 52.4553C226.547 54.6138 225.362 56.2298 224.177 56.0748C222.992 55.9199 222.272 54.0492 222.549 51.8908C222.826 49.7324 224.022 48.1163 225.207 48.2713C225.816 48.3488 226.315 48.8911 226.603 49.6992C226.891 50.5879 226.97 51.5309 226.835 52.4553V52.4553Z" fill="#14274E"/>
<path d="M229.261 49.1457C228.34 49.0723 227.418 49.2644 226.603 49.6992C226.437 49.7885 226.284 49.9002 226.149 50.0312L225.207 48.2713C226.61 48.2213 228.004 48.5218 229.261 49.1457V49.1457Z" fill="#14274E"/>
<path opacity="0.5" d="M219.104 69.2357C218.982 69.3021 218.074 70.2762 216.756 71.2613C216.355 71.6531 215.821 71.8785 215.26 71.8922C214.735 71.8695 214.217 71.7533 213.732 71.5491C212.76 71.1691 211.847 70.655 211.018 70.0216C210.863 69.922 209.423 68.9147 209.545 68.8372C209.667 68.7597 211.406 69.7338 213.976 70.7079C214.452 70.9492 214.981 71.0672 215.515 71.051C216.014 70.9403 218.772 69.2357 219.104 69.2357Z" fill="#6D4921"/>
</g>
<defs>
<clipPath id="clip0_146_1494">
<rect width="327" height="783" fill="white"/>
</clipPath>
</defs>
</svg>
